<svg id="Layer_4" data-name="Layer 4" xmlns="http://www.w3.org/2000/svg" xmlns:xlink="http://www.w3.org/1999/xlink" viewBox="0 0 1106.41 1461.83"><defs><linearGradient id="linear-gradient" x1="464.22" y1="940.65" x2="415.72" y2="1269.89" gradientUnits="userSpaceOnUse"><stop offset="0" stop-color="#bcc5d3"/><stop offset="1" stop-color="#ebedf0"/></linearGradient><linearGradient id="linear-gradient-2" x1="270.93" y1="1129.52" x2="240.2" y2="1338.11" xlink:href="#linear-gradient"/><linearGradient id="linear-gradient-3" x1="351.76" y1="1374.2" x2="870.51" y2="1114.82" xlink:href="#linear-gradient"/><linearGradient id="linear-gradient-4" x1="454.9" y1="1004.13" x2="425.5" y2="1203.67" gradientUnits="userSpaceOnUse"><stop offset="0" stop-color="#537e8a"/><stop offset="1" stop-color="#3ba0a1"/></linearGradient><linearGradient id="linear-gradient-5" x1="1005.09" y1="2220.5" x2="1109.57" y2="2220.5" gradientTransform="matrix(1, 0.58, 0, 1, 0, -2341.7)" gradientUnits="userSpaceOnUse"><stop offset="0" stop-color="#ffac06"/><stop offset="1" stop-color="#f25227"/></linearGradient><linearGradient id="linear-gradient-6" x1="1005.09" y1="2424.9" x2="1109.57" y2="2424.9" xlink:href="#linear-gradient-5"/><linearGradient id="linear-gradient-7" x1="739.95" y1="375.21" x2="770.84" y2="427.88" gradientUnits="userSpaceOnUse"><stop offset="0" stop-color="#ffc5c5"/><stop offset="1" stop-color="#de8b8b"/></linearGradient><linearGradient id="linear-gradient-8" x1="509.37" y1="247.17" x2="420.24" y2="247.17" xlink:href="#linear-gradient-7"/><linearGradient id="linear-gradient-9" x1="523.01" y1="196.39" x2="420.96" y2="196.39" gradientUnits="userSpaceOnUse"><stop offset="0" stop-color="#4e5883"/><stop offset="1" stop-color="#262847"/></linearGradient><linearGradient id="linear-gradient-10" x1="414.28" y1="1056.57" x2="351.95" y2="1056.57" xlink:href="#linear-gradient-9"/><linearGradient id="linear-gradient-11" x1="557.06" y1="1115.16" x2="466.47" y2="1115.16" xlink:href="#linear-gradient-9"/><linearGradient id="linear-gradient-12" x1="431.56" y1="835.6" x2="346.97" y2="835.6" xlink:href="#linear-gradient-9"/><linearGradient id="linear-gradient-13" x1="270.34" y1="331.61" x2="397.24" y2="547.91" xlink:href="#linear-gradient-4"/><linearGradient id="linear-gradient-14" x1="303.13" y1="460.76" x2="534.31" y2="460.76" gradientUnits="userSpaceOnUse"><stop offset="0" stop-color="#c3c5c5"/><stop offset="1" stop-color="#fff"/></linearGradient><linearGradient id="linear-gradient-15" x1="515.14" y1="482.8" x2="576.23" y2="431.28" xlink:href="#linear-gradient-4"/><linearGradient id="linear-gradient-16" x1="679.64" y1="513.88" x2="643.17" y2="478.84" xlink:href="#linear-gradient-4"/><linearGradient id="linear-gradient-17" x1="534.89" y1="871.24" x2="434.15" y2="871.24" xlink:href="#linear-gradient-9"/></defs><g style="opacity:0.14"><ellipse cx="356.8" cy="1264.67" rx="351.93" ry="197.16" style="fill:#190c00;opacity:0"/><ellipse cx="356.8" cy="1264.67" rx="345.17" ry="193.37" style="fill:#190c00;opacity:0.041666667908430405"/><ellipse cx="356.8" cy="1264.67" rx="338.4" ry="189.58" style="fill:#190c00;opacity:0.08333333446220949"/><ellipse cx="356.8" cy="1264.67" rx="331.63" ry="185.79" style="fill:#190c00;opacity:0.12500000101598857"/><ellipse cx="356.8" cy="1264.67" rx="324.86" ry="181.99" style="fill:#190c00;opacity:0.16666666756976767"/><ellipse cx="356.8" cy="1264.67" rx="318.09" ry="178.2" style="fill:#190c00;opacity:0.20833333412354677"/><ellipse cx="356.8" cy="1264.67" rx="311.32" ry="174.41" style="fill:#190c00;opacity:0.25000000067732586"/><ellipse cx="356.8" cy="1264.67" rx="304.55" ry="170.62" style="fill:#190c00;opacity:0.29166666723110496"/><ellipse cx="356.8" cy="1264.67" rx="297.78" ry="166.82" style="fill:#190c00;opacity:0.33333333378488406"/><ellipse cx="356.8" cy="1264.67" rx="291.01" ry="163.03" style="fill:#190c00;opacity:0.37500000033866315"/><ellipse cx="356.8" cy="1264.67" rx="284.24" ry="159.24" style="fill:#190c00;opacity:0.41666666689244225"/><ellipse cx="356.8" cy="1264.67" rx="277.47" ry="155.45" style="fill:#190c00;opacity:0.45833333344622135"/><ellipse cx="356.8" cy="1264.67" rx="270.7" ry="151.65" style="fill:#190c00;opacity:0.5000000000000004"/><ellipse cx="356.8" cy="1264.67" rx="263.93" ry="147.86" style="fill:#190c00;opacity:0.5416666665537795"/><ellipse cx="356.8" cy="1264.67" rx="257.16" ry="144.07" style="fill:#190c00;opacity:0.5833333331075585"/><ellipse cx="356.8" cy="1264.67" rx="250.39" ry="140.28" style="fill:#190c00;opacity:0.6249999996613376"/><ellipse cx="356.8" cy="1264.67" rx="243.62" ry="136.49" style="fill:#190c00;opacity:0.6666666662151166"/><ellipse cx="356.8" cy="1264.67" rx="236.85" ry="132.69" style="fill:#190c00;opacity:0.7083333327688957"/><ellipse cx="356.8" cy="1264.67" rx="230.08" ry="128.9" style="fill:#190c00;opacity:0.7499999993226747"/><ellipse cx="356.8" cy="1264.67" rx="223.31" ry="125.11" style="fill:#190c00;opacity:0.7916666658764537"/><ellipse cx="356.8" cy="1264.67" rx="216.55" ry="121.32" style="fill:#190c00;opacity:0.8333333324302328"/><ellipse cx="356.8" cy="1264.67" rx="209.78" ry="117.52" style="fill:#190c00;opacity:0.8749999989840118"/><ellipse cx="356.8" cy="1264.67" rx="203.01" ry="113.73" style="fill:#190c00;opacity:0.9166666655377909"/><ellipse cx="356.8" cy="1264.67" rx="196.24" ry="109.94" style="fill:#190c00;opacity:0.9583333320915699"/><ellipse cx="356.8" cy="1264.67" rx="189.47" ry="106.15" style="fill:#190c00"/></g><path d="M798.35,1108.17A21.06,21.06,0,0,1,788,1122.75L469.61,1303.82a65.13,65.13,0,0,1-65.49-.67l-310.49-185a22.88,22.88,0,0,1,.37-39.62L406.59,900.62a71.74,71.74,0,0,1,72.14.75l309.6,184.52A21.21,21.21,0,0,1,798.35,1108.17Z" transform="translate(-82.37 -47.66)" style="fill:url(#linear-gradient)"/><path d="M428.76,1311.79v54.09a65.26,65.26,0,0,1-24.67-8.64L93.63,1172.17a22.46,22.46,0,0,1-10.8-16.12l-.46-.18v-54.09h.28a22.43,22.43,0,0,0,11,16.29l310.46,185.08A65.26,65.26,0,0,0,428.76,1311.79Z" transform="translate(-82.37 -47.66)" style="fill:url(#linear-gradient-2)"/><path d="M798.72,1108.17v47.7l-.27.18a20.87,20.87,0,0,1-10.53,20.71L469.63,1357.87a65.31,65.31,0,0,1-40.87,8v-54.09a65.31,65.31,0,0,0,40.87-8l318.29-181a21.24,21.24,0,0,0,10.44-14.59Z" transform="translate(-82.37 -47.66)" style="fill:url(#linear-gradient-3)"/><path d="M657.4,1105.66a12.78,12.78,0,0,1-6.3,8.83L458.17,1224.23a39.47,39.47,0,0,1-39.7-.4L230.3,1111.68a13.87,13.87,0,0,1,.23-24L420,979.87a43.48,43.48,0,0,1,43.72.46l187.64,111.82A12.87,12.87,0,0,1,657.4,1105.66Z" transform="translate(-82.37 -47.66)" style="fill:url(#linear-gradient-4)"/><g style="opacity:0.14"><ellipse cx="717.15" cy="697.22" rx="236.37" ry="132.42" style="fill:#190c00;opacity:0"/><ellipse cx="717.15" cy="697.22" rx="231.83" ry="129.88" style="fill:#190c00;opacity:0.041666667908430405"/><ellipse cx="717.15" cy="697.22" rx="227.28" ry="127.33" style="fill:#190c00;opacity:0.08333333446220949"/><ellipse cx="717.15" cy="697.22" rx="222.73" ry="124.78" style="fill:#190c00;opacity:0.12500000101598857"/><ellipse cx="717.15" cy="697.22" rx="218.19" ry="122.23" style="fill:#190c00;opacity:0.16666666756976767"/><ellipse cx="717.15" cy="697.22" rx="213.64" ry="119.69" style="fill:#190c00;opacity:0.20833333412354677"/><ellipse cx="717.15" cy="697.22" rx="209.09" ry="117.14" style="fill:#190c00;opacity:0.25000000067732586"/><ellipse cx="717.15" cy="697.22" rx="204.55" ry="114.59" style="fill:#190c00;opacity:0.29166666723110496"/><ellipse cx="717.15" cy="697.22" rx="200" ry="112.05" style="fill:#190c00;opacity:0.33333333378488406"/><ellipse cx="717.15" cy="697.22" rx="195.45" ry="109.5" style="fill:#190c00;opacity:0.37500000033866315"/><ellipse cx="717.15" cy="697.22" rx="190.91" ry="106.95" style="fill:#190c00;opacity:0.41666666689244225"/><ellipse cx="717.15" cy="697.22" rx="186.36" ry="104.4" style="fill:#190c00;opacity:0.45833333344622135"/><ellipse cx="717.15" cy="697.22" rx="181.81" ry="101.86" style="fill:#190c00;opacity:0.5000000000000004"/><ellipse cx="717.15" cy="697.22" rx="177.27" ry="99.31" style="fill:#190c00;opacity:0.5416666665537795"/><ellipse cx="717.15" cy="697.22" rx="172.72" ry="96.76" style="fill:#190c00;opacity:0.5833333331075585"/><ellipse cx="717.15" cy="697.22" rx="168.17" ry="94.22" style="fill:#190c00;opacity:0.6249999996613376"/><ellipse cx="717.15" cy="697.22" rx="163.63" ry="91.67" style="fill:#190c00;opacity:0.6666666662151166"/><ellipse cx="717.15" cy="697.22" rx="159.08" ry="89.12" style="fill:#190c00;opacity:0.7083333327688957"/><ellipse cx="717.15" cy="697.22" rx="154.53" ry="86.57" style="fill:#190c00;opacity:0.7499999993226747"/><ellipse cx="717.15" cy="697.22" rx="149.99" ry="84.03" style="fill:#190c00;opacity:0.7916666658764537"/><ellipse cx="717.15" cy="697.22" rx="145.44" ry="81.48" style="fill:#190c00;opacity:0.8333333324302328"/><ellipse cx="717.15" cy="697.22" rx="140.89" ry="78.93" style="fill:#190c00;opacity:0.8749999989840118"/><ellipse cx="717.15" cy="697.22" rx="136.35" ry="76.39" style="fill:#190c00;opacity:0.9166666655377909"/><ellipse cx="717.15" cy="697.22" rx="131.8" ry="73.84" style="fill:#190c00;opacity:0.9583333320915699"/><ellipse cx="717.15" cy="697.22" rx="127.25" ry="71.29" style="fill:#190c00"/></g><path d="M1188.77,415.7A34.44,34.44,0,0,0,1171.62,386L593.05,51.67a29.56,29.56,0,0,0-44.36,25.56l-.45,433.43a16.41,16.41,0,0,0,8.18,14.16l604.2,350.12a18.75,18.75,0,0,0,28.16-16.23Z" transform="translate(-82.37 -47.66)" style="fill:#449398;opacity:0.58"/><path d="M908,342.2,648.49,191.25c-7.11-4.14-12.93-13.34-12.93-20.46h0c0-7.11,5.82-9.54,12.93-5.4L908,316.34c7.11,4.14,12.93,13.34,12.93,20.45h0C920.89,343.91,915.07,346.34,908,342.2Z" transform="translate(-82.37 -47.66)" style="fill:#ccd3dd"/><path d="M908,547.89l-259.47-151c-7.11-4.13-12.93-13.34-12.93-20.45h0c0-7.11,5.82-9.54,12.93-5.41L908,522c7.11,4.14,12.93,13.34,12.93,20.45h0C920.89,549.59,915.07,552,908,547.89Z" transform="translate(-82.37 -47.66)" style="fill:#ccd3dd"/><path d="M1109.57,510.78v27.13c0,10.83-8.88,14.52-19.71,8.22L647.14,288.57c-10.83-6.3-19.69-20.31-19.69-31.15V230.3c0-10.83,8.86-14.54,19.69-8.24l442.72,257.57C1100.69,485.93,1109.57,500,1109.57,510.78Z" transform="translate(-82.37 -47.66)" style="fill:#fff"/><path d="M1109.57,510.78v27.13c0,10.83-8.88,14.52-19.71,8.22l-84.77-49.32v-66.5l84.77,49.32C1100.69,485.93,1109.57,500,1109.57,510.78Z" transform="translate(-82.37 -47.66)" style="fill:url(#linear-gradient-5)"/><path d="M1109.57,715.19v27.13c0,10.83-8.88,14.52-19.71,8.22L647.14,493c-10.83-6.3-19.69-20.31-19.69-31.14V434.7c0-10.83,8.86-14.53,19.69-8.23L1089.86,684C1100.69,690.33,1109.57,704.36,1109.57,715.19Z" transform="translate(-82.37 -47.66)" style="fill:#fff"/><path d="M1109.57,715.19v27.13c0,10.83-8.88,14.52-19.71,8.22l-84.77-49.32V634.71L1089.86,684C1100.69,690.33,1109.57,704.36,1109.57,715.19Z" transform="translate(-82.37 -47.66)" style="fill:url(#linear-gradient-6)"/><path d="M685.06,277.83c0,5.49-4.46,7.36-10,4.16s-10-10.25-10-15.74,4.45-7.37,10-4.17S685.06,272.33,685.06,277.83Z" transform="translate(-82.37 -47.66)" style="fill:#525575"/><ellipse cx="713.26" cy="294.24" rx="7.47" ry="13.26" transform="matrix(0.8, -0.6, 0.6, 0.8, -116.19, 439.41)" style="fill:#525575"/><path d="M761.37,322.23c0,5.49-4.46,7.36-10,4.16s-10-10.25-10-15.75,4.46-7.36,10-4.16S761.37,316.73,761.37,322.23Z" transform="translate(-82.37 -47.66)" style="fill:#525575"/><ellipse cx="789.57" cy="338.63" rx="7.47" ry="13.26" transform="translate(-127.57 494.11) rotate(-36.89)" style="fill:#525575"/><ellipse cx="827.73" cy="360.83" rx="7.47" ry="13.26" transform="translate(-133.25 521.46) rotate(-36.89)" style="fill:#525575"/><ellipse cx="865.89" cy="383.03" rx="7.47" ry="13.26" transform="translate(-138.94 548.82) rotate(-36.89)" style="fill:#525575"/><path d="M685.06,481.78c0,5.5-4.46,7.36-10,4.16s-10-10.25-10-15.74,4.45-7.36,10-4.17S685.06,476.28,685.06,481.78Z" transform="translate(-82.37 -47.66)" style="fill:#525575"/><ellipse cx="713.26" cy="498.19" rx="7.47" ry="13.26" transform="translate(-238.62 480.25) rotate(-36.89)" style="fill:#525575"/><path d="M761.37,526.18c0,5.49-4.46,7.36-10,4.16s-10-10.25-10-15.75,4.46-7.36,10-4.16S761.37,520.68,761.37,526.18Z" transform="translate(-82.37 -47.66)" style="fill:#525575"/><path d="M799.53,548.38c0,5.49-4.46,7.36-10,4.16s-10-10.25-10-15.75,4.46-7.36,10-4.16S799.53,542.88,799.53,548.38Z" transform="translate(-82.37 -47.66)" style="fill:#525575"/><path d="M837.68,570.57c0,5.5-4.45,7.37-9.95,4.17s-10-10.25-10-15.75,4.45-7.36,10-4.16S837.68,565.08,837.68,570.57Z" transform="translate(-82.37 -47.66)" style="fill:#525575"/><ellipse cx="865.89" cy="586.98" rx="7.47" ry="13.26" transform="translate(-261.37 589.65) rotate(-36.89)" style="fill:#525575"/><path d="M736.8,447.24S757,432.88,757,415.3s9.42-35.91,17.34-43.84,5.2-23-8.42-19.56-39.38,24.76-41.36,42.35-8.38,23.85-8.38,23.85S735.21,424,736.8,447.24Z" transform="translate(-82.37 -47.66)" style="fill:url(#linear-gradient-7)"/><path d="M515.57,181s4.67,30.36,2.33,34.64-2.33,5.45-2.33,5.45,4.42,10.12,3,15.57-7.27,30.74-12.33,37.36-27.35,5.45-32.16,7.79-10.49,31.58-10.49,31.58l-67.89-38.2s14.79-41.65,16.35-55.27,17.12-32.69,17.12-32.69Z" transform="translate(-82.37 -47.66)" style="fill:url(#linear-gradient-8)"/><path d="M528.8,141.27c12.84,8.18-.78,43.2-18.29,45.54s-8.56,24.91-16,26.47-4.67,24.52-9.34,23.74-2.34-19.46-16.35-19.46S472,248.69,463.41,251s-47.48,5.06-58.76-12.46-12.85-34.25-11.29-47.09S407.76,174,407.76,174s-7.4-28.8,24.91-32.7,64.22,2.73,77.45,2.34S528.8,141.27,528.8,141.27Z" transform="translate(-82.37 -47.66)" style="fill:url(#linear-gradient-9)"/><path d="M338.82,1046.63s-6.3,35.4-3.17,39,40.7,16.07,46.46,9.38,16.92-27.23,29-41.07,15.17-43.74-3.13-36.6a150.21,150.21,0,0,0-30.12,15.62Z" transform="translate(-82.37 -47.66)" style="fill:url(#linear-gradient-10)"/><path d="M445.63,1097.5s-7.31,35-2.4,39.44,35.26,23.65,45.53,17.85,29-25.44,50.88-33.92,40.62-46.87,13.84-46.43S495,1085.6,495,1085.6Z" transform="translate(-82.37 -47.66)" style="fill:url(#linear-gradient-11)"/><path d="M340.92,615.08s-23.1,41.41-15.82,65.67,15.82,34.78,15.82,34.78l4.4,127.78S333.39,891,334.5,945.21s0,94.62,0,94.62,6,17.8,31.85,16.18,32.35-16.18,32.35-16.18S390.61,925,421.34,863.53s15.37-228.06,15.37-228.06Z" transform="translate(-82.37 -47.66)" style="fill:url(#linear-gradient-12)"/><path d="M317,265.1s-68.59,167.75-65,180.54,102.29,125,102.29,125l34.1-56.83-68.27-90.92,27.78-101.59Z" transform="translate(-82.37 -47.66)" style="fill:url(#linear-gradient-13)"/><path d="M393,261.36c11.84,4.87,38.12,21.37,67.37,33.2s13.23,28.55,26.45,37.6,25.24,12,29.41,42,18.11,257.61,18.11,257.61-51.53,39-124.63,25.76-71-53.61-71-53.61S332.4,438.9,315,386.68,297,259.21,329,261.3s27,6.32,42.35,5.63S393,261.36,393,261.36Z" transform="translate(-82.37 -47.66)" style="fill:url(#linear-gradient-14)"/><path d="M510.41,356.21c-19.86.39-52,23.74-36.28,68.28S575.26,562.56,584.07,563.05s25.45-23.49,29.85-50.41-8.32-37.19-8.32-37.19S525.83,355.91,510.41,356.21Z" transform="translate(-82.37 -47.66)" style="fill:url(#linear-gradient-15)"/><path d="M614.85,491.11l100.87-75.37s13.71.49,21,19.57,1.47,22.34,1.47,22.34S623.71,574.32,586.52,563.06C586.52,563.06,614.8,535.15,614.85,491.11Z" transform="translate(-82.37 -47.66)" style="fill:url(#linear-gradient-16)"/><path d="M388.32,652.3s-11.74,43.34,0,70.24,29.14,33.62,29.14,33.62l23.09,112.62s-9.4,47.91-4.35,116,4.35,105.9,4.35,105.9,6.57,14.29,25.06,16,35.3-11.77,35.3-11.77,0-149.1,17.65-215.33,9.79-243.83,9.79-243.83S470.71,677.88,388.32,652.3Z" transform="translate(-82.37 -47.66)" style="fill:url(#linear-gradient-17)"/></svg>