<svg xmlns="http://www.w3.org/2000/svg" width="608" height="412.009" viewBox="0 0 608 412.009">
  <g id="OBJECTS" transform="translate(-17 -42.991)">
    <g id="Group_19" data-name="Group 19">
      <g id="Group_4" data-name="Group 4" opacity="0.51">
        <g id="Group_1" data-name="Group 1">
          <path id="Path_1" data-name="Path 1" d="M109.166,104.377H17.321l-.065-.424A13.022,13.022,0,0,1,32,88.937a26.753,26.753,0,0,1,3.829.953c2.106.636,4.1,1.239,6.131.933,3.593-.537,5.889-3.53,8.319-6.7A41.489,41.489,0,0,1,53.51,80.25a17.955,17.955,0,0,1,27.4,2.173c.524.735,1.014,1.532,1.488,2.3,1.414,2.3,2.751,4.475,5.041,5.372,1.974.772,4.107.359,6.366-.079a16.382,16.382,0,0,1,5.6-.434c3.155.49,6.03,2.885,7.691,6.407a25.916,25.916,0,0,1,2,7.822Zm-90.979-1h89.839a23.8,23.8,0,0,0-1.835-6.959c-1.519-3.222-4.113-5.407-6.94-5.845A15.585,15.585,0,0,0,94,91c-2.3.445-4.677.907-6.921.029-2.6-1.02-4.09-3.44-5.529-5.78-.465-.756-.946-1.538-1.45-2.245a16.956,16.956,0,0,0-25.878-2.052,40.757,40.757,0,0,0-3.146,3.781c-2.445,3.187-4.972,6.483-8.966,7.079a15.063,15.063,0,0,1-6.568-.965,25.861,25.861,0,0,0-3.683-.921,12.015,12.015,0,0,0-13.672,13.451Z" fill="#9ebfd6"/>
        </g>
        <g id="Group_2" data-name="Group 2">
          <path id="Path_2" data-name="Path 2" d="M569.091,282.644H477.246l-.065-.424A13.021,13.021,0,0,1,491.927,267.2a26.753,26.753,0,0,1,3.829.953c2.106.636,4.1,1.24,6.131.933,3.593-.537,5.889-3.53,8.319-6.7a41.479,41.479,0,0,1,3.229-3.874,17.954,17.954,0,0,1,27.4,2.173c.525.735,1.014,1.532,1.488,2.3,1.415,2.3,2.751,4.475,5.042,5.372,1.974.772,4.106.359,6.365-.079a16.357,16.357,0,0,1,5.6-.433c3.155.489,6.03,2.884,7.691,6.406a25.92,25.92,0,0,1,2,7.822Zm-90.98-1h89.84a23.835,23.835,0,0,0-1.835-6.959c-1.52-3.222-4.114-5.407-6.94-5.845a15.589,15.589,0,0,0-5.252.427c-2.3.445-4.676.907-6.921.029-2.6-1.02-4.09-3.44-5.529-5.78-.465-.756-.945-1.538-1.45-2.245a16.956,16.956,0,0,0-25.878-2.052A40.759,40.759,0,0,0,511,263c-2.444,3.187-4.972,6.483-8.965,7.079a15.066,15.066,0,0,1-6.569-.965,25.979,25.979,0,0,0-3.682-.921,12.015,12.015,0,0,0-13.673,13.451Z" fill="#9ebfd6"/>
        </g>
        <g id="Group_3" data-name="Group 3">
          <path id="Path_3" data-name="Path 3" d="M610.7,179.75H539.373l-.072-.415a23.42,23.42,0,0,1,6.909-20.644,22.8,22.8,0,0,1,37.619,11.036,21.854,21.854,0,0,1,26.413,9.264Zm-70.482-1H608.9a20.837,20.837,0,0,0-25.239-7.886l-.543.219-.131-.571a21.8,21.8,0,0,0-36.1-11.089A22.407,22.407,0,0,0,540.22,178.75Z" fill="#9ebfd6"/>
        </g>
      </g>
      <g id="Group_18" data-name="Group 18">
        <g id="Group_12" data-name="Group 12">
          <g id="Group_8" data-name="Group 8">
            <g id="Group_5" data-name="Group 5">
              <path id="Path_4" data-name="Path 4" d="M291.844,294.262a.476.476,0,0,1-.112-.013.5.5,0,0,1-.376-.6,47.319,47.319,0,0,1,1.677-5.829.5.5,0,0,1,.934.36,46.724,46.724,0,0,0-1.636,5.694A.5.5,0,0,1,291.844,294.262Z" fill="#a2cee8"/>
            </g>
            <g id="Group_6" data-name="Group 6">
              <path id="Path_5" data-name="Path 5" d="M296.66,335.2a.5.5,0,0,1-.438-.258,51.23,51.23,0,0,1-4.139-9.781.5.5,0,0,1,.957-.293,50.076,50.076,0,0,0,4.057,9.59.5.5,0,0,1-.437.742Zm-6.173-20a.5.5,0,0,1-.5-.448,60.971,60.971,0,0,1-.323-6.292c0-1.425.049-2.877.145-4.315a.5.5,0,1,1,1,.066c-.1,1.417-.143,2.847-.143,4.249a60.088,60.088,0,0,0,.317,6.189.5.5,0,0,1-.445.548Z" fill="#a2cee8"/>
            </g>
            <g id="Group_7" data-name="Group 7">
              <path id="Path_6" data-name="Path 6" d="M306.833,348.167a.5.5,0,0,1-.342-.136,56.378,56.378,0,0,1-4.192-4.37.5.5,0,0,1,.759-.652,55.5,55.5,0,0,0,4.118,4.294.5.5,0,0,1-.343.864Z" fill="#a2cee8"/>
            </g>
          </g>
          <g id="Group_9" data-name="Group 9">
            <path id="Path_7" data-name="Path 7" d="M476.5,164a.5.5,0,0,1-.276-.917c1.828-1.214,3.586-2.509,5.227-3.851a.5.5,0,0,1,.633.775c-1.666,1.362-3.452,2.677-5.308,3.91A.5.5,0,0,1,476.5,164Zm13.738-12.343a.5.5,0,0,1-.388-.815,54.138,54.138,0,0,0,6.421-9.973.5.5,0,1,1,.895.445,55.174,55.174,0,0,1-6.539,10.158A.5.5,0,0,1,490.238,151.657Zm10.641-21.3a.485.485,0,0,1-.124-.016.5.5,0,0,1-.361-.608,63.645,63.645,0,0,0,1.834-11.749.5.5,0,0,1,.531-.468.5.5,0,0,1,.468.531,64.761,64.761,0,0,1-1.864,11.934A.5.5,0,0,1,500.879,130.361Zm1.6-23.829a.5.5,0,0,1-.5-.449A62.925,62.925,0,0,0,499.774,94.4a.5.5,0,0,1,.952-.308,63.984,63.984,0,0,1,2.253,11.885.5.5,0,0,1-.446.548A.441.441,0,0,1,502.481,106.532Z" fill="#a2cee8"/>
          </g>
          <g id="Group_10" data-name="Group 10">
            <path id="Path_8" data-name="Path 8" d="M216.75,90a.481.481,0,0,1-.1-.011.5.5,0,0,1-.384-.594,64.311,64.311,0,0,1,3.995-11.459.5.5,0,0,1,.912.409,63.142,63.142,0,0,0-3.929,11.26A.5.5,0,0,1,216.75,90Zm9.769-21.863a.5.5,0,0,1-.415-.779,60.787,60.787,0,0,1,7.683-9.33.5.5,0,1,1,.7.712,59.628,59.628,0,0,0-7.555,9.176A.5.5,0,0,1,226.519,68.137Zm17.032-16.646a.5.5,0,0,1-.261-.927,50.234,50.234,0,0,1,10.991-5,.5.5,0,0,1,.3.954,49.267,49.267,0,0,0-10.772,4.9A.494.494,0,0,1,243.551,51.491Zm22.611-7.263a.5.5,0,0,1-.044-1,64.341,64.341,0,0,1,6.64-.23.5.5,0,0,1,.492.508.532.532,0,0,1-.508.492,63.421,63.421,0,0,0-6.536.226Z" fill="#a2cee8"/>
          </g>
          <g id="Group_11" data-name="Group 11">
            <path id="Path_9" data-name="Path 9" d="M540.833,364.873a.5.5,0,0,1-.442-.268,62.281,62.281,0,0,0-6.545-9.92.5.5,0,1,1,.781-.625,63.163,63.163,0,0,1,6.648,10.081.5.5,0,0,1-.442.732Zm-14.78-18.768a.5.5,0,0,1-.341-.133,105.107,105.107,0,0,0-9.209-7.614.5.5,0,1,1,.594-.8,106.448,106.448,0,0,1,9.3,7.685.5.5,0,0,1-.341.866Zm-19.258-14.3a.493.493,0,0,1-.257-.072,105.553,105.553,0,0,0-10.571-5.611.5.5,0,1,1,.4-.916,105.793,105.793,0,0,1,10.685,5.67.5.5,0,0,1-.257.929Z" fill="#a2cee8"/>
          </g>
        </g>
        <g id="Group_17" data-name="Group 17">
          <g id="Group_13" data-name="Group 13">
            <path id="Path_10" data-name="Path 10" d="M194.333,378.833h-12a.5.5,0,0,1,0-1h11.5V367.667a.5.5,0,0,1,1,0v10.666A.5.5,0,0,1,194.333,378.833Zm-24,0h-8.667a.5.5,0,0,1-.5-.5V375a.5.5,0,0,1,1,0v2.833h8.167a.5.5,0,1,1,0,1ZM161.666,363.5a.5.5,0,0,1-.5-.5V351a.5.5,0,0,1,1,0v12A.5.5,0,0,1,161.666,363.5Zm32.667-7.333a.5.5,0,0,1-.5-.5v-9.5h-1.5a.5.5,0,0,1,0-1h2a.5.5,0,0,1,.5.5v10A.5.5,0,0,1,194.333,356.167Zm-14-10h-12a.5.5,0,0,1,0-1h12a.5.5,0,1,1,0,1Z" fill="#a2cee8"/>
          </g>
          <g id="Group_14" data-name="Group 14">
            <path id="Path_11" data-name="Path 11" d="M571,102.167H559a.5.5,0,0,1,0-1h11.5V91a.5.5,0,0,1,1,0v10.668A.5.5,0,0,1,571,102.167Zm-24,0h-8.667a.5.5,0,0,1-.5-.5V98.333a.5.5,0,0,1,1,0v2.834H547a.5.5,0,0,1,0,1Zm-8.667-15.334a.5.5,0,0,1-.5-.5v-12a.5.5,0,0,1,1,0v12A.5.5,0,0,1,538.333,86.833ZM571,79.5a.5.5,0,0,1-.5-.5V69.5H569a.5.5,0,0,1,0-1h2a.5.5,0,0,1,.5.5V79A.5.5,0,0,1,571,79.5Zm-14-10H545a.5.5,0,0,1,0-1h12a.5.5,0,0,1,0,1Z" fill="#a2cee8"/>
          </g>
          <g id="Group_15" data-name="Group 15">
            <path id="Path_12" data-name="Path 12" d="M56.333,236.167h-12a.5.5,0,1,1,0-1h11.5V225a.5.5,0,1,1,1,0v10.668A.5.5,0,0,1,56.333,236.167Zm-24,0H23.667a.5.5,0,0,1-.5-.5v-3.334a.5.5,0,0,1,1,0v2.834h8.166a.5.5,0,0,1,0,1Zm-8.666-15.334a.5.5,0,0,1-.5-.5v-12a.5.5,0,0,1,1,0v12A.5.5,0,0,1,23.667,220.833ZM56.333,213.5a.5.5,0,0,1-.5-.5v-9.5h-1.5a.5.5,0,0,1,0-1h2a.5.5,0,0,1,.5.5v10A.5.5,0,0,1,56.333,213.5Zm-14-10h-12a.5.5,0,0,1,0-1h12a.5.5,0,0,1,0,1Z" fill="#a2cee8"/>
          </g>
          <g id="Group_16" data-name="Group 16">
            <path id="Path_13" data-name="Path 13" d="M65.666,214.167H57.585a.5.5,0,0,1,0-1h7.581v-6.684a.5.5,0,1,1,1,0v7.184A.5.5,0,0,1,65.666,214.167Zm-16.163,0H43.667a.5.5,0,0,1-.5-.5v-2.246a.5.5,0,0,1,1,0v1.746H49.5a.5.5,0,0,1,0,1ZM43.667,203.84a.5.5,0,0,1-.5-.5v-8.082a.5.5,0,0,1,1,0v8.082A.5.5,0,0,1,43.667,203.84Zm22-4.939a.5.5,0,0,1-.5-.5v-6.234h-.847a.5.5,0,0,1,0-1h1.347a.5.5,0,0,1,.5.5V198.4A.5.5,0,0,1,65.666,198.9Zm-9.428-6.734H48.156a.5.5,0,0,1,0-1h8.082a.5.5,0,1,1,0,1Z" fill="#a2cee8"/>
          </g>
        </g>
      </g>
    </g>
    <g id="Group_20" data-name="Group 20">
      <path id="Path_14" data-name="Path 14" d="M552.945,412.036c-.4-3.938-2.821-7.853-5.762-11.253a2.254,2.254,0,0,1-.322-.486c-3.536-7.211-7.618-14.509-14.516-18.48-4.807-2.768-10.456-3.584-15.95-4.349l-20.538-2.859a22.406,22.406,0,0,0-6.86-.245c-3.662.628-7.267,3.411-5.882,8.367a9.858,9.858,0,0,0,3.768,5.2c8.373,6.131,19.475,4.166,29.578,5.3a47.086,47.086,0,0,1,21.976,8.417c2.243,1.6,4.4.482,6.815.286a2.333,2.333,0,0,1,2,.877c2.341,2.933,4.155,6.162,4.479,9.35Z" fill="#4e663d"/>
      <path id="Path_15" data-name="Path 15" d="M554.626,408.48a52.158,52.158,0,0,0-7.9-20.133,6.4,6.4,0,0,1-1.1-3.7c.194-4.875-5.144-13.046-7-16.127A127.654,127.654,0,0,0,526.7,352.4c-4.189-4.974-8.55-9.889-13.831-13.685s-11.607-6.429-18.108-6.3c-2.65.055-5.4.605-7.328,2.6a5.323,5.323,0,0,0-1.54,3.344c-.223,3.809,3.636,5.8,6.506,7.955,10.108,7.6,11.156,23.17,20.93,31.2,4.757,3.906,10.835,5.381,16.689,6.78,2.232.534,7.694,2.886,11.48,3.275a7.06,7.06,0,0,1,5.406,3.374,50.318,50.318,0,0,1,6.515,17.728Z" fill="#779463"/>
      <path id="Path_16" data-name="Path 16" d="M570.41,299.032a10.356,10.356,0,0,0-3.356-5.365,4.8,4.8,0,0,0-3.218-.986c-3.558.3-4.782,4.385-5.333,7.729q-2.132,12.943-4.262,25.886c-1.54,9.35-3.085,18.79-2.564,28.252a72.2,72.2,0,0,0,3.153,17.2,54.518,54.518,0,0,0,2.5,7.383,8.83,8.83,0,0,1,.8,4.382c-.838,13.616-.842,25.185.025,33.55l1.218-.126c-.828-7.988-.853-18.936-.111-31.815a7.894,7.894,0,0,1,1.505-4.395,7.041,7.041,0,0,0,.8-1.41c5.905-13.234,9.469-28.824,11.687-42.5A79.349,79.349,0,0,0,570.41,299.032Z" fill="#4e663d"/>
      <path id="Path_17" data-name="Path 17" d="M604.107,315.7a4.243,4.243,0,0,0-6.034,1.166c-7.129,10.692-19.751,18.077-24.906,30.068-3.624,8.429-3.255,19.36-5.811,28.216-.148.511-.328,1-.524,1.494a78.119,78.119,0,0,0-5.308,34.424l1.223-.088a76.592,76.592,0,0,1,2.432-25.472,16.143,16.143,0,0,1,5.476-8.372c16.332-13.186,28.412-30.372,34.06-51.165a24.572,24.572,0,0,0,.886-7.129A3.558,3.558,0,0,0,604.107,315.7Z" fill="#779463"/>
      <path id="Path_18" data-name="Path 18" d="M613.31,358.556c-2.213-2.143-5.552-.814-8.13.552-8.65,4.585-17.474,9.3-24.155,16.457a34.378,34.378,0,0,0-8.573,15.655c-.446,1.995-.828,5.53.07,8.125a5.829,5.829,0,0,1,.093,3.724,41.493,41.493,0,0,0-1.752,7.5l1.225.016a42.71,42.71,0,0,1,2.249-8.71,3.849,3.849,0,0,0,1.018.494c4.016,1.21,9.62-6.2,12.2-8.624,8.534-8.022,16.949-16.247,24.108-25.547,1.445-1.877,2.879-3.882,2.915-6.369A4.459,4.459,0,0,0,613.31,358.556Z" fill="#779463"/>
      <path id="Path_19" data-name="Path 19" d="M524.923,408.067a.487.487,0,0,0-.495.5c.086,3.577,1.016,25.546,10.937,37.721A21.287,21.287,0,0,0,551.9,454h9.554a21.287,21.287,0,0,0,16.532-7.714c9.921-12.175,10.851-34.144,10.938-37.721a.489.489,0,0,0-.5-.5Z" fill="#87bcdc"/>
    </g>
    <g id="Group_21" data-name="Group 21">
      <line id="Line_1" data-name="Line 1" x2="608" transform="translate(17 454)" fill="none" stroke="#9ebfd6" stroke-miterlimit="10" stroke-width="2"/>
    </g>
    <g id="Group_112" data-name="Group 112">
      <g id="Group_54" data-name="Group 54">
        <g id="Group_50" data-name="Group 50">
          <g id="Group_43" data-name="Group 43">
            <g id="Group_41" data-name="Group 41">
              <path id="Path_20" data-name="Path 20" d="M344.526,114.007a59.225,59.225,0,0,1-23.312,47.15c-.481.374-.97.739-1.46,1.086a59.241,59.241,0,0,1-9.8,5.7c-.089.045-.178.08-.276.125-.178.08-.356.16-.543.24a59.451,59.451,0,0,1-48.938-.472c-.089-.035-.187-.08-.276-.124-1.13-.525-2.243-1.1-3.337-1.7a57.98,57.98,0,0,1-7.136-4.635c-.285-.205-.57-.428-.854-.641A59.376,59.376,0,0,1,237.342,149.1q-1.509-2.042-2.83-4.208a59.343,59.343,0,0,1,91.329-74.111q1.828,1.722,3.505,3.586A59.116,59.116,0,0,1,344.526,114.007Z" fill="#c1e4fa"/>
              <g id="Group_40" data-name="Group 40">
                <g id="Group_30" data-name="Group 30">
                  <g id="Group_24" data-name="Group 24">
                    <path id="Path_21" data-name="Path 21" d="M309.958,167.946a.43.43,0,0,0,.009.107c-.089.027-.178.053-.267.089-.187.053-.374.116-.561.169a66.863,66.863,0,0,1-15.3,2.749,83.172,83.172,0,0,1-8.783.125c-.142-.009-.284-.018-.427-.018-1.726-.08-3.514-.2-5.374-.391a110.75,110.75,0,0,1-18.81-3.631,3.3,3.3,0,0,1-.4-.106c-1.139-.321-2.3-.659-3.461-1.024a57.98,57.98,0,0,1-7.136-4.635c.151-.81.347-1.842.578-3.035.063-.293.125-.6.2-.916,1.886-9.361,5.864-26.854,9.966-31.588a9.233,9.233,0,0,1,2.42-1.975,17.459,17.459,0,0,1,6.015-2.029,27.4,27.4,0,0,1,2.918-.3h.009c.872-.036,1.415-.018,1.415-.018s.552.142,1.54.329h.008a55.854,55.854,0,0,0,8.382.89c1.112.035,2.287.035,3.515,0a53.759,53.759,0,0,0,8.222-.837c.631-.115,1.272-.24,1.922-.382a12.769,12.769,0,0,1,1.646-.107h.009a16.2,16.2,0,0,1,2.188.089h.009a14.066,14.066,0,0,1,5.161,1.513,10.26,10.26,0,0,1,3.337,2.829c3.212,4.227,6.3,11.211,8.809,23.856.062.338.133.676.2,1.014.658,3.426,1.272,7.252,1.841,11.532A59.241,59.241,0,0,1,309.958,167.946Z" fill="#fff"/>
                    <g id="Group_23" data-name="Group 23">
                      <path id="Path_22" data-name="Path 22" d="M319.754,162.243a59.241,59.241,0,0,1-9.8,5.7.43.43,0,0,0,.009.107c-.089.027-.178.053-.267.089-.187.053-.374.116-.561.169a59.451,59.451,0,0,1-48.938-.472c-.089-.035-.187-.08-.276-.124-1.13-.525-2.243-1.1-3.337-1.7a57.98,57.98,0,0,1-7.136-4.635c-.285-.205-.57-.428-.854-.641.178-.8.382-1.762.631-2.848.072-.293.134-.587.205-.9,2.4-10.4,7.474-30.191,11.959-32.8.374-.214.73-.418,1.085-.605a28.57,28.57,0,0,1,5.393-2.287,17.092,17.092,0,0,1,2.367-.56c.017,0,.035-.009.053-.009.142-.018.267-.036.383-.045s.2-.017.293-.026c.062-.009.116-.009.16-.018.107-.009.16-.009.16-.009h.009l.258.9.846,3,.009.009,7.643,26.872v.018l3.71,13.017.241.863h.008l.855,3.017.907-3.2.267-.926,4.423-15.553,7.118-25.021.632-2.216.222-.774a11.714,11.714,0,0,1,2.563.418,25.931,25.931,0,0,1,4.662,1.735c.837.392,1.726.854,2.67,1.406,3.505,2.038,7.376,14.566,10.036,24.905.089.33.169.659.25.979,1.174,4.618,2.091,8.7,2.6,11.078C320.733,161.531,320.244,161.9,319.754,162.243Z" fill="#0e161f"/>
                      <path id="Path_23" data-name="Path 23" d="M297.433,141.991l3.559,1.779-8.649,14.878-7.279,12.537-.2.338-.232-.356-5.383-8.337-12.181-18.846,4.556-1.993-9.237-18.579a21.08,21.08,0,0,1,8.9-2.776l8.765,30.8,4.814,16.9,5.6-19.682,7.964-28.011c2.118-.232,7.35,1.886,7.35,1.886Z" fill="#0577ab"/>
                      <g id="Group_22" data-name="Group 22">
                        <path id="Path_24" data-name="Path 24" d="M309.967,168.053c-.089.027-.178.053-.267.089-.009-.027-.009-.045-.018-.071-.08-.392-.169-.783-.258-1.175l-.6-3.025c-.383-1.993-.712-3.986-1.032-5.988-.009-.027-.009-.063-.018-.089-.045-.285-.08-.561-.125-.846-.258-1.753-.516-3.505-.712-5.258-.249-2.047-.48-4.085-.613-6.14.5,1.993.9,4.013,1.281,6.033.32,1.628.6,3.257.863,4.885.044.311.1.632.151.943.009.08.027.169.036.249.311,2.029.614,4.058.845,6.1l.347,3.061q.054.561.107,1.121A.43.43,0,0,0,309.967,168.053Z" fill="#283f59"/>
                        <path id="Path_25" data-name="Path 25" d="M265.068,149.216c-.57,3.461-1.406,6.86-2.3,10.233-.267.961-.534,1.913-.81,2.865-.08.285-.169.569-.249.854-.391,1.335-.809,2.66-1.263,3.977-.08.232-.16.463-.249.694-.089-.035-.187-.08-.276-.124.044-.223.08-.445.124-.676.276-1.371.588-2.741.917-4.1q.093-.428.213-.855c.232-.952.481-1.9.73-2.856C262.834,155.854,263.822,152.5,265.068,149.216Z" fill="#283f59"/>
                      </g>
                    </g>
                  </g>
                  <g id="Group_29" data-name="Group 29">
                    <g id="Group_25" data-name="Group 25">
                      <path id="Path_26" data-name="Path 26" d="M293.531,116.954a25.15,25.15,0,0,1-.446-6.312v-.008a5.468,5.468,0,0,1,.623-2.271l-9-4.6-9.477,3.032a15.809,15.809,0,0,1,.814,3.838l-.19-1.56a38.146,38.146,0,0,1-.257,7.88,58.744,58.744,0,0,1-1.332,5.78h20.594A59.076,59.076,0,0,1,293.531,116.954Z" fill="#c27559"/>
                      <path id="Path_27" data-name="Path 27" d="M275.858,109.074s6.126,4.313,17.432.336C293.29,109.41,284.451,122.273,275.858,109.074Z" fill="#ab593a"/>
                    </g>
                    <g id="Group_28" data-name="Group 28">
                      <path id="Path_28" data-name="Path 28" d="M290.465,148.647l-5.6,19.682-4.814-16.9c.907-10.073,2.144-19.772,2.144-19.789-2.011-2.946-2.206-8.142-2.206-8.142l4.3,3.381,3.871-3.381a22.335,22.335,0,0,1-1.237,8.142S288.7,139.731,290.465,148.647Z" fill="#779463"/>
                      <g id="Group_27" data-name="Group 27">
                        <path id="Path_29" data-name="Path 29" d="M293.28,115.274a23.983,23.983,0,0,0,.668,4l-9.77,3.263-9.083-3.263a24.035,24.035,0,0,0,.667-4,13.731,13.731,0,0,0-8,5.945l9.887,7.068,2.336-4.782,4.3,3.373,3.874-3.373,3.225,4.782,9.707-7.3A12.61,12.61,0,0,0,293.28,115.274Z" fill="#fff"/>
                        <g id="Group_26" data-name="Group 26">
                          <path id="Path_30" data-name="Path 30" d="M272.407,124.524c1.08.562,2.14,1.156,3.207,1.738s2.116,1.195,3.175,1.792l-.436.168c.435-1.645.872-3.289,1.34-4.925a.4.4,0,0,1,.5-.276.4.4,0,0,1,.14.072l.007,0,4.251,3.418-.571.007,4.026-3.423.005,0a.408.408,0,0,1,.575.047.4.4,0,0,1,.034.047q1.48,2.349,2.9,4.735l-.415-.082c1.005-.655,1.995-1.33,3.014-1.963s2.021-1.292,3.049-1.912c-.937.752-1.895,1.472-2.845,2.2s-1.921,1.435-2.882,2.152a.284.284,0,0,1-.4-.058l-.006-.008-.011-.016q-1.572-2.289-3.1-4.607l.614.089L284.6,127.2a.442.442,0,0,1-.571.007l-4.2-3.478.645-.2c-.5,1.627-1.023,3.245-1.551,4.862l-.006.018a.289.289,0,0,1-.363.184.33.33,0,0,1-.068-.033c-1.017-.664-2.049-1.3-3.054-1.989S273.4,125.224,272.407,124.524Z" fill="#b5b5b5"/>
                        </g>
                      </g>
                    </g>
                  </g>
                </g>
                <g id="Group_39" data-name="Group 39">
                  <g id="Group_37" data-name="Group 37">
                    <path id="Path_31" data-name="Path 31" d="M304.88,90.551a3.689,3.689,0,0,0-4.129-2.607c.8-23.511-18.8-20.332-18.8-20.332-12.295,1.067-13.7,14.133-13.607,20.79a4.569,4.569,0,0,0-.978-.455,3.684,3.684,0,0,0-4.152,2.6,4.88,4.88,0,0,0,.631,4.062,6.146,6.146,0,0,0,2.792,2.332,7.967,7.967,0,0,0,2.145.251c1.9,15.358,15.818,13.847,15.818,13.847,12.065.6,15.2-7.829,15.9-13.913a5.5,5.5,0,0,0,.959-.185,6.146,6.146,0,0,0,2.792-2.332A4.88,4.88,0,0,0,304.88,90.551Z" fill="#c27559"/>
                    <g id="Group_36" data-name="Group 36">
                      <g id="Group_33" data-name="Group 33">
                        <g id="Group_31" data-name="Group 31">
                          <path id="Path_32" data-name="Path 32" d="M288.382,88.782c0,1.285.509,2.327,1.137,2.327s1.137-1.042,1.137-2.327-.509-2.327-1.137-2.327S288.382,87.5,288.382,88.782Z" fill="#0e161f"/>
                        </g>
                        <g id="Group_32" data-name="Group 32">
                          <ellipse id="Ellipse_1" data-name="Ellipse 1" cx="1.137" cy="2.327" rx="1.137" ry="2.327" transform="translate(278.539 86.455)" fill="#0e161f"/>
                        </g>
                      </g>
                      <g id="Group_34" data-name="Group 34">
                        <path id="Path_33" data-name="Path 33" d="M288.864,95.822a5.576,5.576,0,0,1-1.713,1.948,4.344,4.344,0,0,1-2.544.844,4.406,4.406,0,0,1-2.533-.874,8.342,8.342,0,0,1-.981-.873c-.267-.344-.529-.689-.763-1.045.351.256.671.53.993.795.358.218.677.485,1.039.667a4.7,4.7,0,0,0,2.248.639,4.577,4.577,0,0,0,2.256-.609A9.793,9.793,0,0,0,288.864,95.822Z" fill="#0e161f"/>
                        <path id="Path_34" data-name="Path 34" d="M285.794,99.947a1.864,1.864,0,0,1-1.2.4,1.955,1.955,0,0,1-1.2-.4,6.157,6.157,0,0,0,1.2.134A5.137,5.137,0,0,0,285.794,99.947Z" fill="#0e161f"/>
                      </g>
                      <g id="Group_35" data-name="Group 35">
                        <path id="Path_35" data-name="Path 35" d="M281.757,80.712A2.7,2.7,0,0,0,280,80.06a5.452,5.452,0,0,0-1.876.266,4.588,4.588,0,0,0-1.652.946,4.814,4.814,0,0,0-1.127,1.445.545.545,0,0,0,.844.666l.046-.043a6.715,6.715,0,0,1,1.122-.891,3.926,3.926,0,0,1,1.239-.509,4.764,4.764,0,0,1,1.343-.13,5.156,5.156,0,0,0,1.435-.084l.144-.035a.57.57,0,0,0,.243-.979Z" fill="#0e161f"/>
                        <path id="Path_36" data-name="Path 36" d="M287.438,80.712a2.692,2.692,0,0,1,1.761-.652,5.446,5.446,0,0,1,1.875.266,4.588,4.588,0,0,1,1.652.946,4.8,4.8,0,0,1,1.127,1.445.544.544,0,0,1-.843.666l-.046-.043a6.72,6.72,0,0,0-1.123-.891,3.907,3.907,0,0,0-1.239-.509,4.76,4.76,0,0,0-1.343-.13,5.158,5.158,0,0,1-1.435-.084l-.144-.035a.569.569,0,0,1-.242-.979Z" fill="#0e161f"/>
                      </g>
                      <path id="Path_37" data-name="Path 37" d="M284.861,85.227c.2.877.349,1.748.511,2.61s.326,1.719.571,2.534c.057.2.12.406.193.6a2.129,2.129,0,0,1,.2.751,1.514,1.514,0,0,1-.815,1.38,1.837,1.837,0,0,1-1.484.079,3.616,3.616,0,0,1-1.175-.7c.816.307,1.769.546,2.343.113a.9.9,0,0,0,.4-.83,1.7,1.7,0,0,0-.171-.517c-.088-.217-.165-.437-.23-.657a12.35,12.35,0,0,1-.427-2.677A14.161,14.161,0,0,1,284.861,85.227Z" fill="#0e161f"/>
                      <path id="Path_38" data-name="Path 38" d="M264.636,91.808a1.936,1.936,0,0,1,.606-1.539A1.8,1.8,0,0,1,267,90.1a3.307,3.307,0,0,1,1.417,1.034,5.286,5.286,0,0,1,.881,1.486.388.388,0,0,1-.636.418l-.026-.026a3.424,3.424,0,0,0-1.3-.922.6.6,0,0,0-.548.061,1.451,1.451,0,0,0-.391.6c-.2.51-.317,1.107.118,1.344a2.921,2.921,0,0,0,1.722.117,2.71,2.71,0,0,1-1.893.254,1.065,1.065,0,0,1-.667-.892,2.764,2.764,0,0,1,.11-1.03,1.929,1.929,0,0,1,.551-.951,1.3,1.3,0,0,1,1.19-.246,3.741,3.741,0,0,1,1.7,1.142l-.662.391a4.151,4.151,0,0,0-1.786-2.235,1.454,1.454,0,0,0-1.323-.08A1.941,1.941,0,0,0,264.636,91.808Z" fill="#0e161f"/>
                      <path id="Path_39" data-name="Path 39" d="M303.962,91.808a1.936,1.936,0,0,0-.606-1.539,1.8,1.8,0,0,0-1.756-.17,3.307,3.307,0,0,0-1.417,1.034,5.287,5.287,0,0,0-.881,1.486.388.388,0,0,0,.636.418l.026-.026a3.425,3.425,0,0,1,1.3-.922.6.6,0,0,1,.548.061,1.451,1.451,0,0,1,.391.6c.2.51.317,1.107-.118,1.344a2.921,2.921,0,0,1-1.722.117,2.708,2.708,0,0,0,1.892.254,1.064,1.064,0,0,0,.668-.892,2.763,2.763,0,0,0-.11-1.03,1.929,1.929,0,0,0-.551-.951,1.3,1.3,0,0,0-1.19-.246,3.741,3.741,0,0,0-1.7,1.142l.662.391a4.151,4.151,0,0,1,1.786-2.235,1.454,1.454,0,0,1,1.323-.08A1.941,1.941,0,0,1,303.962,91.808Z" fill="#0e161f"/>
                    </g>
                  </g>
                  <g id="Group_38" data-name="Group 38">
                    <path id="Path_40" data-name="Path 40" d="M304.053,79.332a3.941,3.941,0,0,0,.774-4.832,6.284,6.284,0,0,0-4.049-2.936,9.928,9.928,0,0,0-5.632-8.008c-3.106-1.424-6.478-.588-9.245,1.414A9.082,9.082,0,0,0,270.57,70.8a3.907,3.907,0,0,0-4.013.445,5.7,5.7,0,0,0-2.091,3.577,7.706,7.706,0,0,0,.809,4.779,3.587,3.587,0,0,0-2.616,2.927,5.87,5.87,0,0,0,.881,3.986,11.746,11.746,0,0,0,1.388,1.86,3.164,3.164,0,0,1,2.438-.427,2.65,2.65,0,0,1,.413.159c.57.8,1.167,1.574,1.676,2.428a3.073,3.073,0,0,0,1.757-2.386,8.9,8.9,0,0,0,.089-3.057,6.586,6.586,0,0,0,3.177-3.482,6.908,6.908,0,0,0,.3-4.816,6.515,6.515,0,0,0,10.521,2.152,8.538,8.538,0,0,0,5.15,3.161,8.992,8.992,0,0,0,6.149-.853,5.232,5.232,0,0,0-1.124,3.561,5.1,5.1,0,0,0,1.709,3.268,3.21,3.21,0,0,0,.091,2.3,2.75,2.75,0,0,0,1.709,1.27,8.416,8.416,0,0,1,2.391-3.779A3.549,3.549,0,0,1,303.946,89a7.788,7.788,0,0,0,2.037-4.084C306.268,82.953,305.681,80.453,304.053,79.332Z" fill="#0e161f"/>
                    <path id="Path_41" data-name="Path 41" d="M300.778,71.564a9.055,9.055,0,0,0-.165-1.051,25.244,25.244,0,0,1-8.048,1.112c-4.983-.243-9.914-1.507-14.764-2.579-1.59-.351-3.939-1.015-6.3-1.367a9.866,9.866,0,0,0-.928,3.119,3.907,3.907,0,0,0-4.013.445,5.7,5.7,0,0,0-2.091,3.577,7.116,7.116,0,0,0,.087,2.763,22.1,22.1,0,0,1,6.382-.957,26.2,26.2,0,0,1,3.909.393c-.025-.076-.042-.154-.071-.228.034.081.08.156.118.236a74.371,74.371,0,0,1,8.344,2.141c.463.136.912.238,1.363.346a6.141,6.141,0,0,0,.7-.571,7.751,7.751,0,0,0,.78.881c4.268.769,8.133.385,12.7-.3a20.272,20.272,0,0,1,5.464-.038c-.063-.05-.116-.111-.182-.156a3.941,3.941,0,0,0,.774-4.832A6.284,6.284,0,0,0,300.778,71.564Z" fill="#0e161f" opacity="0.5" style="mix-blend-mode: screen;isolation: isolate"/>
                  </g>
                </g>
              </g>
            </g>
            <g id="Group_42" data-name="Group 42">
              <path id="Path_42" data-name="Path 42" d="M278.508,165.574A59.787,59.787,0,1,1,338.3,105.787,59.854,59.854,0,0,1,278.508,165.574Zm0-118.684a58.9,58.9,0,1,0,58.9,58.9A58.964,58.964,0,0,0,278.508,46.89Z" fill="#9ebfd6"/>
            </g>
          </g>
          <g id="Group_49" data-name="Group 49">
            <g id="Group_44" data-name="Group 44">
              <path id="Path_43" data-name="Path 43" d="M230.64,178.02l3.618,7.33,8.09,1.176-5.854,5.706,1.382,8.057-7.236-3.8-7.235,3.8,1.382-8.057-5.854-5.706,8.09-1.176Z" fill="#f3b64c"/>
              <path id="Path_44" data-name="Path 44" d="M258,178.02l3.618,7.33,8.09,1.176-5.854,5.706,1.382,8.057-7.236-3.8-7.236,3.8,1.382-8.057-5.854-5.706,8.089-1.176Z" fill="#f3b64c"/>
              <path id="Path_45" data-name="Path 45" d="M285.358,178.02l3.618,7.33,8.09,1.176-5.854,5.706,1.382,8.057-7.236-3.8-7.235,3.8,1.382-8.057-5.854-5.706,8.09-1.176Z" fill="#f3b64c"/>
              <path id="Path_46" data-name="Path 46" d="M312.717,178.02l3.618,7.33,8.09,1.176-5.854,5.706,1.382,8.057-7.236-3.8-7.236,3.8,1.382-8.057-5.854-5.706,8.09-1.176Z" fill="#f3d7a8"/>
              <path id="Path_47" data-name="Path 47" d="M340.077,178.02l3.618,7.33,8.09,1.176-5.854,5.706,1.382,8.057-7.236-3.8-7.236,3.8,1.382-8.057-5.854-5.706,8.09-1.176Z" fill="#f3d7a8"/>
            </g>
            <g id="Group_48" data-name="Group 48">
              <g id="Group_45" data-name="Group 45">
                <rect id="Rectangle_2" data-name="Rectangle 2" width="34.937" height="6.936" transform="translate(252.733 231.408)" fill="#a2cee8"/>
                <rect id="Rectangle_3" data-name="Rectangle 3" width="26.203" height="6.936" transform="translate(291.781 231.408)" fill="#a2cee8"/>
              </g>
              <g id="Group_46" data-name="Group 46">
                <rect id="Rectangle_4" data-name="Rectangle 4" width="39.305" height="6.936" transform="translate(232.824 219.847)" fill="#a2cee8"/>
                <rect id="Rectangle_5" data-name="Rectangle 5" width="31.855" height="6.936" transform="translate(274.954 219.847)" fill="#a2cee8"/>
                <rect id="Rectangle_6" data-name="Rectangle 6" width="27.744" height="6.936" transform="translate(310.149 219.847)" fill="#a2cee8"/>
              </g>
              <g id="Group_47" data-name="Group 47">
                <rect id="Rectangle_7" data-name="Rectangle 7" width="40.846" height="6.936" transform="translate(221.906 207.517)" fill="#a2cee8"/>
                <rect id="Rectangle_8" data-name="Rectangle 8" width="29.928" height="6.936" transform="translate(265.835 207.517)" fill="#a2cee8"/>
                <rect id="Rectangle_9" data-name="Rectangle 9" width="37.506" height="6.936" transform="translate(297.946 207.517)" fill="#a2cee8"/>
                <rect id="Rectangle_10" data-name="Rectangle 10" width="10.019" height="6.936" transform="translate(338.792 207.517)" fill="#a2cee8"/>
              </g>
            </g>
          </g>
        </g>
        <g id="Group_53" data-name="Group 53">
          <g id="Group_51" data-name="Group 51">
            <circle id="Ellipse_2" data-name="Ellipse 2" cx="14.75" cy="14.75" r="14.75" transform="translate(313.454 54.086)" fill="#db4234"/>
          </g>
          <g id="Group_52" data-name="Group 52">
            <line id="Line_2" data-name="Line 2" y1="15.734" x2="15.734" transform="translate(320.337 60.969)" fill="none" stroke="#fff" stroke-miterlimit="10" stroke-width="1.861"/>
            <line id="Line_3" data-name="Line 3" x1="15.734" y1="15.734" transform="translate(320.337 60.969)" fill="none" stroke="#fff" stroke-miterlimit="10" stroke-width="1.861"/>
          </g>
        </g>
      </g>
      <g id="Group_82" data-name="Group 82">
        <g id="Group_80" data-name="Group 80">
          <g id="Group_73" data-name="Group 73">
            <g id="Group_71" data-name="Group 71">
              <path id="Path_48" data-name="Path 48" d="M422.367,313.247a59.437,59.437,0,0,1-32.682,53.031l-.213.107a59.506,59.506,0,0,1-48.939,1.789c-.044-.018-.08-.036-.125-.054a59.052,59.052,0,0,1-12.163-6.789,59.792,59.792,0,0,1-13.062-12.973c-1.015-1.371-1.967-2.794-2.856-4.253a59.348,59.348,0,0,1,91.328-74.111q1.842,1.734,3.532,3.612A59.119,59.119,0,0,1,422.367,313.247Z" fill="#c1e4fa"/>
              <g id="Group_70" data-name="Group 70">
                <g id="Group_60" data-name="Group 60">
                  <g id="Group_56" data-name="Group 56">
                    <path id="Path_49" data-name="Path 49" d="M398.592,360.753a59.325,59.325,0,0,1-8.907,5.525l-.213.107a59.506,59.506,0,0,1-48.939,1.789c-.044-.018-.08-.036-.125-.054a59.052,59.052,0,0,1-12.163-6.789c.142-.792.356-1.895.614-3.221.062-.294.124-.6.187-.908,1.851-9.227,5.908-27.281,10.072-32.1,2.038-2.35,5.286-3.435,8-3.924a24.667,24.667,0,0,1,4.788-.4s.533.134,1.5.32a56.05,56.05,0,0,0,8.017.881c1.388.054,2.892.063,4.476,0,.6-.017,1.2-.053,1.824-.1a2.873,2.873,0,0,0,.392-.027,48.938,48.938,0,0,0,5.418-.694c.65-.107,1.3-.24,1.958-.383a16.667,16.667,0,0,1,4.351.045,11.754,11.754,0,0,1,8,4.28c3.132,4.128,6.149,10.891,8.631,22.992.072.338.143.676.2,1.023C397.364,352.558,398.005,356.419,398.592,360.753Z" fill="#db4234"/>
                    <g id="Group_55" data-name="Group 55">
                      <path id="Path_50" data-name="Path 50" d="M347.465,339.22c-.428,2.544-.944,5.054-1.478,7.563s-1.112,5.009-1.708,7.5-1.219,4.983-1.9,7.456l-.125.472-.24.854-.658,2.385c-.276.907-.534,1.824-.819,2.723-.044-.018-.08-.036-.125-.054.161-.925.347-1.842.517-2.767l.507-2.429.178-.872.1-.472c.525-2.509,1.121-5.009,1.708-7.5.614-2.491,1.228-4.983,1.913-7.456C346,344.149,346.681,341.675,347.465,339.22Z" fill="#f56658"/>
                      <path id="Path_51" data-name="Path 51" d="M389.685,366.278l-.213.107c-.2-.569-.392-1.139-.588-1.7l-1.094-3.372c-.5-1.53-.961-3.078-1.415-4.618-.089-.294-.178-.587-.258-.872q-.186-.641-.374-1.281c-.631-2.278-1.272-4.547-1.841-6.843s-1.148-4.591-1.629-6.913c.828,2.206,1.557,4.458,2.278,6.7s1.388,4.52,2.047,6.789c.1.356.2.721.3,1.077.08.293.169.6.249.889.445,1.62.89,3.239,1.3,4.876l.855,3.444C389.427,365.13,389.561,365.7,389.685,366.278Z" fill="#f56658"/>
                    </g>
                  </g>
                  <g id="Group_59" data-name="Group 59">
                    <g id="Group_57" data-name="Group 57">
                      <path id="Path_52" data-name="Path 52" d="M372.426,316.193a25.151,25.151,0,0,1-.447-6.312v-.007a5.459,5.459,0,0,1,.624-2.271l-9-4.6-9.477,3.031a15.807,15.807,0,0,1,.813,3.839l-.19-1.56a38.135,38.135,0,0,1-.256,7.879,59.055,59.055,0,0,1-1.332,5.781h20.593A58.889,58.889,0,0,1,372.426,316.193Z" fill="#d48f65"/>
                      <path id="Path_53" data-name="Path 53" d="M354.752,308.314s6.126,4.312,17.433.335C372.185,308.649,363.346,321.513,354.752,308.314Z" fill="#c9603a"/>
                    </g>
                    <g id="Group_58" data-name="Group 58">
                      <path id="Path_54" data-name="Path 54" d="M372.212,314.532a24.035,24.035,0,0,0,.667,4L363.11,321.8l-9.083-3.263a24.035,24.035,0,0,0,.667-4,16.575,16.575,0,0,0-7.786,6.507l9.677,6.507,2.336-4.783,4.3,3.374,3.875-3.374,3.225,4.783L380,321.039A16.575,16.575,0,0,0,372.212,314.532Z" fill="#fff"/>
                      <path id="Path_55" data-name="Path 55" d="M357.363,321.762a51.5,51.5,0,0,1,5.834,3.989l-.557.01c.944-.8,1.9-1.578,2.894-2.322.492-.375.995-.738,1.5-1.1.522-.34,1.023-.706,1.562-1.025-.406.478-.85.91-1.274,1.366-.439.439-.882.873-1.335,1.295-.9.849-1.832,1.663-2.778,2.46a.444.444,0,0,1-.558.011A51.847,51.847,0,0,1,357.363,321.762Z" fill="#b5b5b5"/>
                    </g>
                  </g>
                </g>
                <g id="Group_69" data-name="Group 69">
                  <g id="Group_67" data-name="Group 67">
                    <path id="Path_56" data-name="Path 56" d="M383.775,289.79a3.689,3.689,0,0,0-4.13-2.606c.805-23.512-18.8-20.332-18.8-20.332-12.295,1.067-13.7,14.133-13.607,20.79a4.549,4.549,0,0,0-.979-.455,3.686,3.686,0,0,0-4.152,2.6,4.883,4.883,0,0,0,.632,4.063,6.145,6.145,0,0,0,2.791,2.332,8.011,8.011,0,0,0,2.146.251c1.9,15.358,15.818,13.846,15.818,13.846,12.065.6,15.2-7.829,15.9-13.912a5.5,5.5,0,0,0,.959-.185,6.145,6.145,0,0,0,2.791-2.332A4.879,4.879,0,0,0,383.775,289.79Z" fill="#d48f65"/>
                    <g id="Group_66" data-name="Group 66">
                      <g id="Group_63" data-name="Group 63">
                        <g id="Group_61" data-name="Group 61">
                          <path id="Path_57" data-name="Path 57" d="M367.277,288.022c0,1.285.509,2.327,1.137,2.327s1.136-1.042,1.136-2.327-.509-2.327-1.136-2.327S367.277,286.737,367.277,288.022Z" fill="#0e161f"/>
                        </g>
                        <g id="Group_62" data-name="Group 62">
                          <path id="Path_58" data-name="Path 58" d="M359.707,288.022c0,1.285-.509,2.327-1.137,2.327s-1.137-1.042-1.137-2.327.509-2.327,1.137-2.327S359.707,286.737,359.707,288.022Z" fill="#0e161f"/>
                        </g>
                      </g>
                      <g id="Group_64" data-name="Group 64">
                        <path id="Path_59" data-name="Path 59" d="M367.759,295.061a5.567,5.567,0,0,1-1.713,1.948,4.348,4.348,0,0,1-2.545.845,4.406,4.406,0,0,1-2.532-.874,8.343,8.343,0,0,1-.981-.873c-.268-.344-.529-.689-.763-1.046.351.257.671.531.993.8.358.217.677.485,1.039.667a4.7,4.7,0,0,0,2.247.639,4.593,4.593,0,0,0,2.257-.61A9.745,9.745,0,0,0,367.759,295.061Z" fill="#0e161f"/>
                        <path id="Path_60" data-name="Path 60" d="M364.689,299.187a1.872,1.872,0,0,1-1.2.4,1.956,1.956,0,0,1-1.2-.4,6.238,6.238,0,0,0,1.2.134A5.192,5.192,0,0,0,364.689,299.187Z" fill="#0e161f"/>
                      </g>
                      <g id="Group_65" data-name="Group 65">
                        <path id="Path_61" data-name="Path 61" d="M360.651,279.952a2.7,2.7,0,0,0-1.761-.653,5.446,5.446,0,0,0-1.875.267,4.565,4.565,0,0,0-1.652.946,4.8,4.8,0,0,0-1.127,1.445.544.544,0,0,0,.843.665l.046-.042a6.69,6.69,0,0,1,1.123-.892,3.931,3.931,0,0,1,1.239-.509,4.835,4.835,0,0,1,1.343-.13,5.119,5.119,0,0,0,1.435-.083l.143-.035a.568.568,0,0,0,.243-.979Z" fill="#0e161f"/>
                        <path id="Path_62" data-name="Path 62" d="M366.332,279.952a2.7,2.7,0,0,1,1.761-.653,5.452,5.452,0,0,1,1.876.267,4.56,4.56,0,0,1,1.651.946,4.816,4.816,0,0,1,1.128,1.445.544.544,0,0,1-.844.665l-.046-.042a6.724,6.724,0,0,0-1.122-.892,3.95,3.95,0,0,0-1.239-.509,4.839,4.839,0,0,0-1.343-.13,5.117,5.117,0,0,1-1.435-.083l-.144-.035a.57.57,0,0,1-.418-.689A.564.564,0,0,1,366.332,279.952Z" fill="#0e161f"/>
                      </g>
                      <path id="Path_63" data-name="Path 63" d="M363.755,284.467c.2.877.349,1.748.512,2.61s.326,1.718.571,2.533c.056.205.12.406.193.6a2.13,2.13,0,0,1,.2.751,1.513,1.513,0,0,1-.816,1.38,1.839,1.839,0,0,1-1.483.079,3.612,3.612,0,0,1-1.175-.7c.816.307,1.769.546,2.343.112a.9.9,0,0,0,.4-.829,1.649,1.649,0,0,0-.17-.517q-.132-.327-.23-.657a12.359,12.359,0,0,1-.427-2.678A14.147,14.147,0,0,1,363.755,284.467Z" fill="#0e161f"/>
                      <path id="Path_64" data-name="Path 64" d="M343.531,291.048a1.938,1.938,0,0,1,.606-1.54,1.8,1.8,0,0,1,1.755-.169,3.311,3.311,0,0,1,1.418,1.034,5.287,5.287,0,0,1,.881,1.486.388.388,0,0,1-.636.418l-.026-.027a3.417,3.417,0,0,0-1.3-.921.6.6,0,0,0-.547.06,1.456,1.456,0,0,0-.391.6c-.2.51-.318,1.107.117,1.343a2.914,2.914,0,0,0,1.722.118,2.707,2.707,0,0,1-1.892.254,1.067,1.067,0,0,1-.668-.892,2.769,2.769,0,0,1,.111-1.031,1.936,1.936,0,0,1,.55-.95,1.3,1.3,0,0,1,1.191-.246,3.752,3.752,0,0,1,1.7,1.141l-.662.392a4.154,4.154,0,0,0-1.787-2.236,1.458,1.458,0,0,0-1.322-.08A1.94,1.94,0,0,0,343.531,291.048Z" fill="#0e161f"/>
                      <path id="Path_65" data-name="Path 65" d="M382.856,291.048a1.935,1.935,0,0,0-.606-1.54,1.8,1.8,0,0,0-1.755-.169,3.308,3.308,0,0,0-1.417,1.034,5.287,5.287,0,0,0-.881,1.486.388.388,0,0,0,.636.418l.025-.027a3.424,3.424,0,0,1,1.3-.921.6.6,0,0,1,.547.06,1.446,1.446,0,0,1,.391.6c.2.51.318,1.107-.117,1.343a2.914,2.914,0,0,1-1.722.118,2.707,2.707,0,0,0,1.892.254,1.067,1.067,0,0,0,.668-.892,2.769,2.769,0,0,0-.11-1.031,1.946,1.946,0,0,0-.551-.95,1.3,1.3,0,0,0-1.191-.246,3.743,3.743,0,0,0-1.695,1.141l.661.392a4.163,4.163,0,0,1,1.787-2.236,1.46,1.46,0,0,1,1.323-.08A1.942,1.942,0,0,1,382.856,291.048Z" fill="#0e161f"/>
                    </g>
                  </g>
                  <g id="Group_68" data-name="Group 68">
                    <path id="Path_66" data-name="Path 66" d="M381.108,276.9a9.725,9.725,0,0,0,.542-9.921c-1.45,1.637-3.941,1.931-6.077,1.46a48.757,48.757,0,0,1-6.131-2.305,20.184,20.184,0,0,0-10.65-.863c-4.4.845-8.569,3.995-9.8,8.31a3.563,3.563,0,0,0-4.44.988,6.4,6.4,0,0,0-1.139,4.716,35.379,35.379,0,0,0,1.121,4.841,13,13,0,0,1,.427,3.034,3.025,3.025,0,0,1,1.29.026,4.052,4.052,0,0,1,.83.371c1.676,3.126,3.421,4.028,3.421,4.028v-3.114a18.039,18.039,0,0,0,4.448-10.42c4.051,1.377,11.223,3.181,18.292,1.883a17.45,17.45,0,0,0,4.172,8.537v3.114s1.878-.979,3.609-4.4a3.545,3.545,0,0,1,1.185.525A14.724,14.724,0,0,0,381.108,276.9Z" fill="#0e161f"/>
                    <path id="Path_67" data-name="Path 67" d="M382.67,272.64a24.816,24.816,0,0,1-10.131.481c-5.262-.8-10.379-2.414-15.69-2.949-1.009-.1-3.433-.422-5.773-.437a10.437,10.437,0,0,0-2.081,3.844,3.563,3.563,0,0,0-4.44.988,5.779,5.779,0,0,0-1.18,3.493,49.454,49.454,0,0,1,11.463.664l.034.005c.031-.235.059-.464.081-.68,4.051,1.377,11.223,3.181,18.292,1.883a19.75,19.75,0,0,0,.632,2.4,17.093,17.093,0,0,0,4.568-.92c1.3-.444,2.555-.991,3.8-1.554a14.163,14.163,0,0,0-1.142-2.961A9.065,9.065,0,0,0,382.67,272.64Z" fill="#0e161f" opacity="0.5" style="mix-blend-mode: screen;isolation: isolate"/>
                  </g>
                </g>
              </g>
            </g>
            <g id="Group_72" data-name="Group 72">
              <path id="Path_68" data-name="Path 68" d="M356.346,364.814a59.787,59.787,0,1,1,59.787-59.787A59.855,59.855,0,0,1,356.346,364.814Zm0-118.685a58.9,58.9,0,1,0,58.9,58.9A58.964,58.964,0,0,0,356.346,246.129Z" fill="#9ebfd6"/>
            </g>
          </g>
          <g id="Group_79" data-name="Group 79">
            <g id="Group_74" data-name="Group 74">
              <path id="Path_69" data-name="Path 69" d="M308.479,377.259l3.618,7.33,8.089,1.175-5.854,5.706,1.382,8.057-7.236-3.8-7.235,3.8,1.382-8.057-5.854-5.706,8.09-1.175Z" fill="#f3b64c"/>
              <path id="Path_70" data-name="Path 70" d="M335.838,377.259l3.618,7.33,8.09,1.175-5.854,5.706,1.382,8.057-7.236-3.8-7.235,3.8,1.382-8.057-5.854-5.706,8.09-1.175Z" fill="#f3b64c"/>
              <path id="Path_71" data-name="Path 71" d="M363.2,377.259l3.618,7.33,8.09,1.175-5.854,5.706,1.382,8.057-7.236-3.8-7.235,3.8,1.382-8.057-5.854-5.706,8.09-1.175Z" fill="#f3b64c"/>
              <path id="Path_72" data-name="Path 72" d="M390.556,377.259l3.618,7.33,8.09,1.175-5.854,5.706,1.382,8.057-7.236-3.8-7.236,3.8,1.382-8.057-5.854-5.706,8.089-1.175Z" fill="#f3b64c"/>
              <path id="Path_73" data-name="Path 73" d="M417.915,377.259l3.618,7.33,8.09,1.175-5.854,5.706,1.382,8.057-7.236-3.8-7.236,3.8,1.382-8.057-5.854-5.706,8.09-1.175Z" fill="#f3b64c"/>
            </g>
            <g id="Group_78" data-name="Group 78">
              <g id="Group_75" data-name="Group 75">
                <rect id="Rectangle_11" data-name="Rectangle 11" width="34.937" height="6.936" transform="translate(330.571 430.647)" fill="#a2cee8"/>
                <rect id="Rectangle_12" data-name="Rectangle 12" width="26.203" height="6.936" transform="translate(369.619 430.647)" fill="#a2cee8"/>
              </g>
              <g id="Group_76" data-name="Group 76">
                <rect id="Rectangle_13" data-name="Rectangle 13" width="39.305" height="6.936" transform="translate(310.662 419.087)" fill="#a2cee8"/>
                <rect id="Rectangle_14" data-name="Rectangle 14" width="31.855" height="6.936" transform="translate(352.793 419.087)" fill="#a2cee8"/>
                <rect id="Rectangle_15" data-name="Rectangle 15" width="27.744" height="6.936" transform="translate(387.987 419.087)" fill="#a2cee8"/>
              </g>
              <g id="Group_77" data-name="Group 77">
                <rect id="Rectangle_16" data-name="Rectangle 16" width="40.846" height="6.936" transform="translate(299.744 406.756)" fill="#a2cee8"/>
                <rect id="Rectangle_17" data-name="Rectangle 17" width="29.928" height="6.936" transform="translate(343.673 406.756)" fill="#a2cee8"/>
                <rect id="Rectangle_18" data-name="Rectangle 18" width="37.506" height="6.936" transform="translate(375.784 406.756)" fill="#a2cee8"/>
                <rect id="Rectangle_19" data-name="Rectangle 19" width="10.019" height="6.936" transform="translate(416.63 406.756)" fill="#a2cee8"/>
              </g>
            </g>
          </g>
        </g>
        <g id="Group_81" data-name="Group 81">
          <circle id="Ellipse_3" data-name="Ellipse 3" cx="14.75" cy="14.75" r="14.75" transform="translate(392.78 258)" fill="#779463"/>
          <path id="Path_74" data-name="Path 74" d="M398.63,274.106l8.321,4.827-2.681.469L415.9,263.359l.847.531-9.372,17.457-1.121,2.087-1.561-1.618-6.679-6.923Z" fill="#fff"/>
        </g>
      </g>
      <g id="Group_111" data-name="Group 111">
        <g id="Group_107" data-name="Group 107">
          <g id="Group_100" data-name="Group 100">
            <g id="Group_98" data-name="Group 98">
              <path id="Path_75" data-name="Path 75" d="M500.2,114.007a59.437,59.437,0,0,1-33.02,53.2c-.072.035-.152.071-.232.106A59.346,59.346,0,1,1,500.2,114.007Z" fill="#c1e4fa"/>
              <g id="Group_97" data-name="Group 97">
                <g id="Group_86" data-name="Group 86">
                  <g id="Group_83" data-name="Group 83">
                    <path id="Path_76" data-name="Path 76" d="M449.961,116.692a25.147,25.147,0,0,1-.446-6.312v-.007a5.474,5.474,0,0,1,.623-2.271l-9-4.6-9.476,3.031a15.856,15.856,0,0,1,.813,3.839l-.19-1.56a38.068,38.068,0,0,1-.257,7.879,58.9,58.9,0,0,1-1.331,5.781l9.359,2.83,3,.333,8.231-3.163A59.056,59.056,0,0,1,449.961,116.692Z" fill="#e29579"/>
                    <path id="Path_77" data-name="Path 77" d="M432.288,108.813s6.126,4.312,17.432.335C449.72,109.148,440.882,122.011,432.288,108.813Z" fill="#d88567"/>
                  </g>
                  <g id="Group_85" data-name="Group 85">
                    <path id="Path_78" data-name="Path 78" d="M477.835,160.427a59.729,59.729,0,0,1-10.65,6.781c-.072.035-.152.071-.232.106a59.379,59.379,0,0,1-63.576-7.3l7.617-27.833a13.693,13.693,0,0,1,2.563-5.107,11.837,11.837,0,0,1,7.812-4.44c6.9-.552,9.912-2.385,9.912-2.385s7.679,7.27,19.407-.062l.009.009a38,38,0,0,0,7.83,2.109c6,.774,9.449,3.781,10.446,5.561C469.952,129.587,474.89,139.357,477.835,160.427Z" fill="#f3b64c"/>
                    <g id="Group_84" data-name="Group 84">
                      <path id="Path_79" data-name="Path 79" d="M429.159,121.521a12.17,12.17,0,0,0,2.584,1.914c.451.284.938.51,1.4.763.495.2.972.432,1.474.6a15.687,15.687,0,0,0,6.208.92c.525-.006,1.044-.118,1.568-.17.26-.04.525-.052.781-.113l.766-.2a15.586,15.586,0,0,0,1.531-.415c.493-.195.991-.38,1.492-.561a9.387,9.387,0,0,0,1.456-.661l1.435-.728c.931-.535,1.822-1.142,2.769-1.684-.823.7-1.672,1.385-2.537,2.054l-1.4.854a9.994,9.994,0,0,1-1.443.79,16.935,16.935,0,0,1-6.371,1.721,14.3,14.3,0,0,1-6.506-1.175A13,13,0,0,1,429.159,121.521Z" fill="#ffd282"/>
                      <path id="Path_80" data-name="Path 80" d="M425.155,138.316c-.642,2.487-1.376,4.943-2.124,7.394s-1.543,4.886-2.348,7.318c-.825,2.425-1.652,4.85-2.544,7.253l-1.341,3.6c-.478,1.19-.927,2.391-1.431,3.573.313-1.246.679-2.474,1.017-3.712l1.106-3.682c.739-2.454,1.544-4.887,2.35-7.318.826-2.425,1.653-4.85,2.545-7.252S424.166,140.686,425.155,138.316Z" fill="#ffd282"/>
                      <path id="Path_81" data-name="Path 81" d="M467.185,167.208c-.072.035-.152.071-.232.106-.222-.569-.454-1.138-.685-1.708l-1.4-3.657c-.925-2.438-1.788-4.894-2.652-7.359-.845-2.473-1.681-4.938-2.464-7.429s-1.557-4.983-2.234-7.51c1.024,2.4,1.958,4.84,2.883,7.287s1.789,4.894,2.652,7.359c.845,2.473,1.69,4.938,2.465,7.43l1.156,3.737C466.837,166.051,467.015,166.629,467.185,167.208Z" fill="#ffd282"/>
                    </g>
                  </g>
                </g>
                <g id="Group_96" data-name="Group 96">
                  <g id="Group_94" data-name="Group 94">
                    <path id="Path_82" data-name="Path 82" d="M461.311,90.289a3.689,3.689,0,0,0-4.13-2.606c.8-23.512-18.8-20.332-18.8-20.332-12.295,1.067-13.7,14.133-13.608,20.79a4.476,4.476,0,0,0-.978-.455,3.686,3.686,0,0,0-4.152,2.6,4.88,4.88,0,0,0,.632,4.063,6.144,6.144,0,0,0,2.791,2.332,8.012,8.012,0,0,0,2.146.251c1.9,15.358,15.818,13.846,15.818,13.846,12.064.6,15.2-7.828,15.9-13.912a5.5,5.5,0,0,0,.959-.185,6.15,6.15,0,0,0,2.791-2.332A4.887,4.887,0,0,0,461.311,90.289Z" fill="#e29579"/>
                    <g id="Group_93" data-name="Group 93">
                      <g id="Group_87" data-name="Group 87">
                        <path id="Path_83" data-name="Path 83" d="M446.886,96.157a3.936,3.936,0,1,0,3.935-3.935A3.936,3.936,0,0,0,446.886,96.157Z" fill="#df8666"/>
                        <path id="Path_84" data-name="Path 84" d="M427.3,96.157a3.936,3.936,0,1,0,3.936-3.935A3.936,3.936,0,0,0,427.3,96.157Z" fill="#df8666"/>
                      </g>
                      <g id="Group_90" data-name="Group 90">
                        <g id="Group_88" data-name="Group 88">
                          <ellipse id="Ellipse_4" data-name="Ellipse 4" cx="1.137" cy="2.327" rx="1.137" ry="2.327" transform="translate(444.813 86.194)" fill="#0e161f"/>
                          <path id="Path_85" data-name="Path 85" d="M448.269,85.458a3.323,3.323,0,0,1-.769.993,2.7,2.7,0,0,1-1.189.615l-.019,0a.421.421,0,1,1-.078-.831,2.451,2.451,0,0,0,1.823-.923l.008-.009a.136.136,0,0,1,.224.15Z" fill="#0e161f"/>
                        </g>
                        <g id="Group_89" data-name="Group 89">
                          <path id="Path_86" data-name="Path 86" d="M437.242,88.521c0,1.285-.509,2.327-1.136,2.327s-1.137-1.042-1.137-2.327.509-2.327,1.137-2.327S437.242,87.236,437.242,88.521Z" fill="#0e161f"/>
                          <path id="Path_87" data-name="Path 87" d="M434.018,85.317a2.451,2.451,0,0,0,1.823.923.421.421,0,1,1,.033.841.438.438,0,0,1-.109-.01l-.021,0a2.7,2.7,0,0,1-1.189-.615,3.323,3.323,0,0,1-.769-.993.136.136,0,0,1,.224-.15Z" fill="#0e161f"/>
                        </g>
                      </g>
                      <g id="Group_91" data-name="Group 91">
                        <path id="Path_88" data-name="Path 88" d="M445.3,95.56a5.57,5.57,0,0,1-1.714,1.948,4.345,4.345,0,0,1-2.544.845,4.405,4.405,0,0,1-2.532-.874,8.269,8.269,0,0,1-.982-.873c-.267-.345-.528-.689-.763-1.046.352.257.672.531.993.8.358.217.678.485,1.04.667a4.7,4.7,0,0,0,2.247.639,4.6,4.6,0,0,0,2.257-.61A9.81,9.81,0,0,0,445.3,95.56Z" fill="#0e161f"/>
                        <path id="Path_89" data-name="Path 89" d="M442.224,99.686a1.864,1.864,0,0,1-1.2.405,1.956,1.956,0,0,1-1.2-.405,6.236,6.236,0,0,0,1.2.134A5.183,5.183,0,0,0,442.224,99.686Z" fill="#0e161f"/>
                      </g>
                      <g id="Group_92" data-name="Group 92">
                        <path id="Path_90" data-name="Path 90" d="M438.187,80.451a2.7,2.7,0,0,0-1.761-.653,5.456,5.456,0,0,0-1.876.267,4.57,4.57,0,0,0-1.651.946,4.817,4.817,0,0,0-1.128,1.445.544.544,0,0,0,.844.665l.046-.043a6.765,6.765,0,0,1,1.122-.891,3.945,3.945,0,0,1,1.24-.509,4.828,4.828,0,0,1,1.342-.13,5.114,5.114,0,0,0,1.435-.083l.144-.035a.569.569,0,0,0,.418-.689A.558.558,0,0,0,438.187,80.451Z" fill="#0e161f"/>
                        <path id="Path_91" data-name="Path 91" d="M443.868,80.451a2.7,2.7,0,0,1,1.761-.653,5.456,5.456,0,0,1,1.876.267,4.569,4.569,0,0,1,1.651.946,4.8,4.8,0,0,1,1.127,1.445.544.544,0,0,1-.843.665l-.046-.043a6.766,6.766,0,0,0-1.122-.891,3.945,3.945,0,0,0-1.24-.509,4.828,4.828,0,0,0-1.342-.13,5.114,5.114,0,0,1-1.435-.083l-.144-.035a.569.569,0,0,1-.418-.689A.558.558,0,0,1,443.868,80.451Z" fill="#0e161f"/>
                      </g>
                      <path id="Path_92" data-name="Path 92" d="M441.291,84.966c.2.876.349,1.747.511,2.61s.327,1.718.571,2.533c.057.205.121.406.193.6a2.15,2.15,0,0,1,.2.751,1.512,1.512,0,0,1-.816,1.379,1.838,1.838,0,0,1-1.484.08,3.618,3.618,0,0,1-1.174-.7c.816.307,1.769.546,2.343.112a.9.9,0,0,0,.4-.83,1.68,1.68,0,0,0-.17-.516q-.132-.327-.231-.658a12.4,12.4,0,0,1-.427-2.677A14.234,14.234,0,0,1,441.291,84.966Z" fill="#0e161f"/>
                      <path id="Path_93" data-name="Path 93" d="M421.067,91.547a1.933,1.933,0,0,1,.606-1.54,1.8,1.8,0,0,1,1.755-.169,3.308,3.308,0,0,1,1.417,1.034,5.287,5.287,0,0,1,.881,1.486.388.388,0,0,1-.636.418l-.025-.027a3.424,3.424,0,0,0-1.3-.921.6.6,0,0,0-.547.06,1.446,1.446,0,0,0-.391.6c-.2.51-.318,1.107.117,1.343a2.914,2.914,0,0,0,1.722.118,2.708,2.708,0,0,1-1.892.254,1.066,1.066,0,0,1-.668-.892,2.769,2.769,0,0,1,.11-1.031,1.938,1.938,0,0,1,.551-.95,1.3,1.3,0,0,1,1.19-.246,3.741,3.741,0,0,1,1.7,1.141l-.661.392a4.163,4.163,0,0,0-1.787-2.236,1.46,1.46,0,0,0-1.323-.08A1.939,1.939,0,0,0,421.067,91.547Z" fill="#0e161f"/>
                      <path id="Path_94" data-name="Path 94" d="M460.392,91.547a1.937,1.937,0,0,0-.606-1.54,1.8,1.8,0,0,0-1.755-.169,3.31,3.31,0,0,0-1.418,1.034,5.287,5.287,0,0,0-.881,1.486.388.388,0,0,0,.636.418l.026-.027a3.417,3.417,0,0,1,1.3-.921.6.6,0,0,1,.547.06,1.456,1.456,0,0,1,.391.6c.2.51.318,1.107-.118,1.343a2.91,2.91,0,0,1-1.721.118,2.707,2.707,0,0,0,1.892.254,1.067,1.067,0,0,0,.668-.892,2.768,2.768,0,0,0-.111-1.031,1.936,1.936,0,0,0-.55-.95,1.3,1.3,0,0,0-1.191-.246,3.752,3.752,0,0,0-1.7,1.141l.662.392a4.154,4.154,0,0,1,1.787-2.236,1.458,1.458,0,0,1,1.322-.08A1.94,1.94,0,0,1,460.392,91.547Z" fill="#0e161f"/>
                    </g>
                  </g>
                  <g id="Group_95" data-name="Group 95">
                    <path id="Path_95" data-name="Path 95" d="M414.963,108.766l-.037.035a3.6,3.6,0,0,0,1.16,5.885,56.545,56.545,0,0,0,15.566,3.935c.13-.608.259-1.258.377-1.927a37.549,37.549,0,0,0,.276-7.581v-.044a1.675,1.675,0,0,1-.036-.223c-3.2-1.824-6.237-5.312-7.056-11.914a7.923,7.923,0,0,1-2.153-.249,6.129,6.129,0,0,1-2.785-2.332,4.85,4.85,0,0,1-.632-4.066,3.673,3.673,0,0,1,4.146-2.6,4.314,4.314,0,0,1,.979.454,7.568,7.568,0,0,1,.673.652l.011-.014a6.919,6.919,0,0,1,1.816,4.009s6.526-8.3,3.856-16.461c0,0,6.97,9.714,14.83,8.379,0,0,3.506,5.151,8.034,5.078L455,92.195s1.025-3.537,2.181-4.512l-.015-.021.018-.017c0,.014,0,.027,0,.042a3.69,3.69,0,0,1,4.129,2.6,4.919,4.919,0,0,1-.632,4.066,6.115,6.115,0,0,1-2.794,2.332,4.943,4.943,0,0,1-.961.186c-.489,4.245-2.153,9.619-7.207,12.28v.009l-.009.008a9.153,9.153,0,0,0-.2,1.211,25.282,25.282,0,0,0,.445,6.317c.084.465.172.915.262,1.354a67.3,67.3,0,0,0,20.365-7.285,3.19,3.19,0,0,0,1.08-4.677l-.018-.025c3.781-11.79-4.672-17.907-4.672-17.907,1.137-7.081-5.488-11.068-8.377-12.451-1.531-4.261-5.42-9.907-15.313-10.724C427.117,63.645,422.419,76.1,422.419,76.1a17.117,17.117,0,0,0-5.5,5.57c-1.219,2.331-1.352,5.419.329,7.438-1.29,2.047-2.58,4.432-3.728,6.567a13.915,13.915,0,0,0-1.877,6.941A7.5,7.5,0,0,0,414.963,108.766Z" fill="#db4234"/>
                    <path id="Path_96" data-name="Path 96" d="M459.291,76.052a46.265,46.265,0,0,1-7.855,1.206,67.943,67.943,0,0,1-16.82-1.383c-3.7-.692-7.845-1.692-11.608-1a11.439,11.439,0,0,0-.589,1.23,17.117,17.117,0,0,0-5.5,5.57,8.211,8.211,0,0,0-.625,1.622,72.642,72.642,0,0,0,8.71,2.138,27.666,27.666,0,0,0,5.928.164,15.191,15.191,0,0,0,.191-9.269s4.012,5.586,9.38,7.7c.8-.164,1.594-.327,2.4-.482a48.173,48.173,0,0,1,17.381-.208,56.012,56.012,0,0,1,6.6,1.233C465.9,80.136,461.8,77.366,459.291,76.052Z" fill="#db4234" opacity="0.5" style="mix-blend-mode: screen;isolation: isolate"/>
                  </g>
                </g>
              </g>
            </g>
            <g id="Group_99" data-name="Group 99">
              <path id="Path_97" data-name="Path 97" d="M434.185,165.574a59.787,59.787,0,1,1,59.787-59.787A59.854,59.854,0,0,1,434.185,165.574Zm0-118.684a58.9,58.9,0,1,0,58.9,58.9A58.964,58.964,0,0,0,434.185,46.89Z" fill="#9ebfd6"/>
            </g>
          </g>
          <g id="Group_106" data-name="Group 106">
            <g id="Group_101" data-name="Group 101">
              <path id="Path_98" data-name="Path 98" d="M386.317,178.02l3.618,7.33,8.09,1.176-5.854,5.706,1.382,8.057-7.236-3.8-7.236,3.8,1.382-8.057-5.854-5.706,8.09-1.176Z" fill="#f3b64c"/>
              <path id="Path_99" data-name="Path 99" d="M413.676,178.02l3.618,7.33,8.09,1.176-5.854,5.706,1.382,8.057-7.236-3.8-7.236,3.8,1.382-8.057-5.854-5.706,8.09-1.176Z" fill="#f3b64c"/>
              <path id="Path_100" data-name="Path 100" d="M441.035,178.02l3.618,7.33,8.09,1.176-5.854,5.706,1.382,8.057-7.236-3.8-7.236,3.8,1.382-8.057-5.854-5.706,8.09-1.176Z" fill="#f3b64c"/>
              <path id="Path_101" data-name="Path 101" d="M468.395,178.02l3.618,7.33,8.09,1.176-5.854,5.706,1.382,8.057-7.236-3.8-7.236,3.8,1.382-8.057-5.854-5.706,8.09-1.176Z" fill="#f3b64c"/>
              <path id="Path_102" data-name="Path 102" d="M495.754,178.02l3.618,7.33,8.089,1.176-5.854,5.706,1.382,8.057-7.235-3.8-7.235,3.8,1.382-8.057-5.854-5.706,8.09-1.176Z" fill="#f3d7a8"/>
            </g>
            <g id="Group_105" data-name="Group 105">
              <g id="Group_102" data-name="Group 102">
                <rect id="Rectangle_20" data-name="Rectangle 20" width="34.937" height="6.936" transform="translate(408.41 231.408)" fill="#a2cee8"/>
                <rect id="Rectangle_21" data-name="Rectangle 21" width="26.203" height="6.936" transform="translate(447.458 231.408)" fill="#a2cee8"/>
              </g>
              <g id="Group_103" data-name="Group 103">
                <rect id="Rectangle_22" data-name="Rectangle 22" width="39.304" height="6.936" transform="translate(388.501 219.847)" fill="#a2cee8"/>
                <rect id="Rectangle_23" data-name="Rectangle 23" width="31.855" height="6.936" transform="translate(430.631 219.847)" fill="#a2cee8"/>
                <rect id="Rectangle_24" data-name="Rectangle 24" width="27.744" height="6.936" transform="translate(465.826 219.847)" fill="#a2cee8"/>
              </g>
              <g id="Group_104" data-name="Group 104">
                <rect id="Rectangle_25" data-name="Rectangle 25" width="40.846" height="6.936" transform="translate(377.583 207.517)" fill="#a2cee8"/>
                <rect id="Rectangle_26" data-name="Rectangle 26" width="29.928" height="6.936" transform="translate(421.512 207.517)" fill="#a2cee8"/>
                <rect id="Rectangle_27" data-name="Rectangle 27" width="37.506" height="6.936" transform="translate(453.623 207.517)" fill="#a2cee8"/>
                <rect id="Rectangle_28" data-name="Rectangle 28" width="10.019" height="6.936" transform="translate(494.469 207.517)" fill="#a2cee8"/>
              </g>
            </g>
          </g>
        </g>
        <g id="Group_110" data-name="Group 110">
          <g id="Group_108" data-name="Group 108">
            <circle id="Ellipse_5" data-name="Ellipse 5" cx="14.75" cy="14.75" r="14.75" transform="translate(468.454 54.086)" fill="#db4234"/>
          </g>
          <g id="Group_109" data-name="Group 109">
            <line id="Line_4" data-name="Line 4" y1="15.734" x2="15.734" transform="translate(475.337 60.969)" fill="none" stroke="#fff" stroke-miterlimit="10" stroke-width="1.861"/>
            <line id="Line_5" data-name="Line 5" x1="15.734" y1="15.734" transform="translate(475.337 60.969)" fill="none" stroke="#fff" stroke-miterlimit="10" stroke-width="1.861"/>
          </g>
        </g>
      </g>
    </g>
    <g id="Group_142" data-name="Group 142">
      <g id="Group_117" data-name="Group 117">
        <g id="Group_113" data-name="Group 113">
          <path id="Path_103" data-name="Path 103" d="M140.6,331.067H107.28l13.855,106.1,0,.021.484,3.712.68.05c.031.081.066.172.1.242.48,1.166,12,10.9,18.236,10.832s9.324-.8,9.666-3.588c0,0-6.625-3.962-9.931-6.306C140.423,438.741,141.348,381.112,140.6,331.067Z" fill="#e29579"/>
          <path id="Path_104" data-name="Path 104" d="M121.048,436.691a47.05,47.05,0,0,1,6.948,4.8c2.376,2.285,14.9,10.969,22.3,6.947,0,0,6.491,1.28,6.034,5.485L139.179,454a8.372,8.372,0,0,1-5.235-1.807l-9.605-7.6v9.141H121.78S118.763,441.719,121.048,436.691Z" fill="#f3b64c"/>
        </g>
        <g id="Group_114" data-name="Group 114">
          <path id="Path_105" data-name="Path 105" d="M100.622,331.067H68.74C73.683,382.148,80.28,440.9,80.28,440.9l.784.049c.032.081.066.172.095.243.48,1.166,12,10.9,18.237,10.832s9.323-.8,9.666-3.588c0,0-7.328-4.382-10.416-6.656Z" fill="#e29579"/>
          <path id="Path_106" data-name="Path 106" d="M79.811,436.691a47.059,47.059,0,0,1,6.947,4.8c2.377,2.285,14.9,10.969,22.3,6.947,0,0,6.49,1.28,6.033,5.485L97.942,454a8.372,8.372,0,0,1-5.235-1.807L83.1,444.6v9.141h-2.56S77.526,441.719,79.811,436.691Z" fill="#f3b64c"/>
        </g>
        <g id="Group_116" data-name="Group 116">
          <path id="Path_107" data-name="Path 107" d="M136.954,259.219a215.581,215.581,0,0,0-12.268-38.94H75.72c-3.62,4.9-13.82,20.339-14.271,39.123-.548,22.852,6.765,77.7,6.765,77.7h72.762S142.073,282.62,136.954,259.219Z" fill="#0e161f"/>
          <g id="Group_115" data-name="Group 115">
            <path id="Path_108" data-name="Path 108" d="M78.863,221.741a125.675,125.675,0,0,0-5.7,13.3,73.16,73.16,0,0,0-3.766,13.9c-.114.589-.159,1.185-.224,1.778-.049.6-.156,1.184-.158,1.785-.024,1.2-.129,2.385-.1,3.593-.015,2.407.025,4.817.094,7.229.126,4.823.343,9.646.574,14.469.4,9.65.962,19.294,1.469,28.942l1.5,28.948c-.914-9.622-1.658-19.257-2.346-28.9s-1.232-19.289-1.721-28.943c-.2-4.83-.383-9.661-.476-14.5-.053-2.418-.076-4.838-.045-7.263-.016-1.208.089-2.433.137-3.648.015-.609.135-1.213.2-1.82.079-.605.139-1.214.267-1.81a73.18,73.18,0,0,1,4.1-13.952A112.6,112.6,0,0,1,78.863,221.741Z" fill="#283f59"/>
            <path id="Path_109" data-name="Path 109" d="M100.988,255.36c1.444,3.409,2.855,6.769,4.475,10.043,1.591,3.288,3.376,6.464,5.178,9.7a41.326,41.326,0,0,1-9.653-19.742Z" fill="#283f59"/>
            <path id="Path_110" data-name="Path 110" d="M98.534,259.871c.67,2.583,1.323,5.154,2.056,7.7s1.507,5.076,2.365,7.578c.834,2.511,1.762,4.988,2.71,7.462.476,1.237.976,2.464,1.491,3.688l1.534,3.686c-.722-1.123-1.364-2.292-2.02-3.456q-.924-1.775-1.781-3.587a73.036,73.036,0,0,1-5.113-15.166A61.286,61.286,0,0,1,98.534,259.871Z" fill="#283f59"/>
          </g>
        </g>
      </g>
      <g id="Group_130" data-name="Group 130">
        <g id="Group_118" data-name="Group 118">
          <path id="Path_111" data-name="Path 111" d="M115.884,143.586s12.614,6.17,14.945,7.4,44.425,31.4,44.425,31.4l-24.269,15.22-34.964-25.778Z" fill="#f3b64c"/>
          <path id="Path_112" data-name="Path 112" d="M192.268,194.823c-.319.537-.637,1.086-.966,1.623-3.236,5.4-7.185,11.309-9.927,17.4a250.083,250.083,0,0,1-29.573-16.75l22.63-14.194C180.41,186.925,186.465,190.962,192.268,194.823Z" fill="#d88567"/>
        </g>
        <g id="Group_122" data-name="Group 122">
          <g id="Group_119" data-name="Group 119">
            <path id="Path_113" data-name="Path 113" d="M81.238,143.117a13.653,13.653,0,0,0-5.169,1.2c2.77,5.08,5.546,9.977,9.915,13.91a32.131,32.131,0,0,0,6.221,3.417,62.771,62.771,0,0,0,9.039,2.837,13.436,13.436,0,0,0,6.106-1.92,25.309,25.309,0,0,0,6.571-5.886c.445-.671.9-1.331,1.343-2.006q.507-1.275,1.008-2.554c.85-2.171,1.7-4.316,2.639-6.406a16.082,16.082,0,0,1-4.594-3.645c-.29-1.05-.968-3.624-1.477-6.528a30.6,30.6,0,0,1-.543-7.679v-.009a6.662,6.662,0,0,1,.758-2.763l-25.1-14.112c.019.084.028.159.047.244.4,2.33,3.423,20.613.32,30.311A18.281,18.281,0,0,1,81.238,143.117Z" fill="#e29579"/>
            <path id="Path_114" data-name="Path 114" d="M112.84,135.54c-13.644,1.723-20.555-14.571-20.808-15.18a16.091,16.091,0,0,0,9.739,6.986,26.734,26.734,0,0,0,10.442.534c.028-.01.056-.01.084-.019A30.6,30.6,0,0,0,112.84,135.54Z" fill="#df8666"/>
          </g>
          <g id="Group_121" data-name="Group 121">
            <path id="Path_115" data-name="Path 115" d="M82.016,143.037s11.381,11.655,21.665,10.97,12.2-10.421,12.2-10.421l13.574,6.993s6.17,14.808,4.8,23.035-9.571,46.665-9.571,46.665-25.92,6.352-48.966,0c0,0,2.594-17.048,1.909-26.1s-7.816-44.425-7.816-44.425A11.086,11.086,0,0,1,82.016,143.037Z" fill="#f3b64c"/>
            <g id="Group_120" data-name="Group 120">
              <path id="Path_116" data-name="Path 116" d="M132.2,183.486c.269-1.895.505-3.783.644-5.656.091-1.859.224-3.786-.55-5.347-.769-1.677-1.744-3.319-2.666-4.973q-1.424-2.467-2.775-5a49.959,49.959,0,0,1,3.5,4.548,36.315,36.315,0,0,1,2.94,4.977,6.612,6.612,0,0,1,.478,1.468,9.155,9.155,0,0,1,.152,1.506,17.74,17.74,0,0,1-.232,2.918A27.111,27.111,0,0,1,132.2,183.486Z" fill="#ffd282"/>
              <path id="Path_117" data-name="Path 117" d="M112.713,195.952a26.243,26.243,0,0,1,1.8-4.043,25.8,25.8,0,0,1,2.352-3.751,12.807,12.807,0,0,1-4.156,7.794Z" fill="#ffd282"/>
              <path id="Path_118" data-name="Path 118" d="M118.524,190.486a24.831,24.831,0,0,1-7.634,16.1,81.989,81.989,0,0,0,4.321-7.812A80.6,80.6,0,0,0,118.524,190.486Z" fill="#ffd282"/>
            </g>
          </g>
        </g>
        <g id="Group_129" data-name="Group 129">
          <g id="Group_123" data-name="Group 123">
            <path id="Path_119" data-name="Path 119" d="M197.617,213.286h-58.41l4.654-35.17a1.817,1.817,0,0,1,1.8-1.577h54.748a1.815,1.815,0,0,1,1.8,2.054Z" fill="#a2cee8"/>
            <rect id="Rectangle_29" data-name="Rectangle 29" width="86.451" height="3.702" transform="translate(111.153 213.286)" fill="#0577ab"/>
            <rect id="Rectangle_30" data-name="Rectangle 30" width="28.177" height="3.702" transform="translate(111.153 213.286)" fill="#a2cee8"/>
            <path id="Path_120" data-name="Path 120" d="M176.214,196.283a3.291,3.291,0,1,1-3.291-3.29A3.29,3.29,0,0,1,176.214,196.283Z" fill="#0577ab"/>
          </g>
          <g id="Group_127" data-name="Group 127">
            <g id="Group_124" data-name="Group 124">
              <path id="Path_121" data-name="Path 121" d="M139.7,211.5l.457-4.959a26.531,26.531,0,0,0-10.838,4.2l-30.022-6s-.881-4.915-2.205-11.811c-1.089.664-2.17,1.324-3.23,1.979C87.887,198.6,82,202.4,76.118,206.224c-.345.224-.694.458-1.044.7,1.943,6.711,3.969,11.964,5.754,13.907,6.216,6.764,46.985-1.645,46.985-1.645l.022-.114c2.635.385,12.134,2.193,12.775,2.033.731-.183,1.188-1.279,1.188-1.279a4.1,4.1,0,0,0,2.377-1.737,24.622,24.622,0,0,0,7.313-1.372l-7.679-1.645s7.77.274,8.181-1.032S139.7,211.5,139.7,211.5Z" fill="#e29579"/>
              <rect id="Rectangle_31" data-name="Rectangle 31" width="1.371" height="10.512" transform="translate(125.985 209.401)" fill="#0e161f"/>
            </g>
            <g id="Group_126" data-name="Group 126">
              <path id="Path_122" data-name="Path 122" d="M82.016,143.037s-2.879-1.371-9.46,1.509-6.719,17.687-6.582,22.212,7.816,53.064,15.357,56.491c0,0,19.2-16.179,20.7-18.373,0,0-1.234-2.194-2.331-2.742L87.775,149.482Z" fill="#f3b64c"/>
              <g id="Group_125" data-name="Group 125">
                <path id="Path_123" data-name="Path 123" d="M102.309,204.876l-1.489-1.5a8.608,8.608,0,0,0-.773-.681l-.094-.062c-.039-.02,0,.017-.1-.057-.217-.225-.155-.264-.216-.36l-.184-.511c-.421-1.356-.784-2.717-1.155-4.078-.736-2.722-1.363-5.468-1.987-8.215-.6-2.752-1.185-5.506-1.686-8.279l-.745-4.16c-.208-1.4-.452-2.782-.625-4.185.416,1.35.765,2.715,1.151,4.072l1.044,4.094c.695,2.729,1.311,5.476,1.931,8.221.6,2.75,1.2,5.5,1.735,8.262.27,1.38.544,2.762.852,4.126l.117.5c0,.069.1.205-.016.127-.062.007.088.056.117.088l.115.1a8.564,8.564,0,0,1,.726.8C101.485,203.729,101.9,204.3,102.309,204.876Z" fill="#ffd282"/>
                <path id="Path_124" data-name="Path 124" d="M76.669,215.023a9.34,9.34,0,0,1,1.748,2.64,14.317,14.317,0,0,1,.994,2.981,3.97,3.97,0,0,1-1.183-1.145,8.523,8.523,0,0,1-.805-1.374A7.532,7.532,0,0,1,76.669,215.023Z" fill="#ffd282"/>
                <path id="Path_125" data-name="Path 125" d="M80.234,143.174a54.432,54.432,0,0,0,4.254,4.337,49.367,49.367,0,0,0,4.653,3.855,35.5,35.5,0,0,0,5.117,3.123,22.19,22.19,0,0,0,5.582,1.975,16.451,16.451,0,0,0,11.375-1.869,12.823,12.823,0,0,0,4.127-4.187,16.009,16.009,0,0,0,2.187-5.588,15,15,0,0,1-1.723,5.859,13.415,13.415,0,0,1-4.128,4.621,16.5,16.5,0,0,1-12.05,2.24,26.769,26.769,0,0,1-10.995-5.506A43.855,43.855,0,0,1,80.234,143.174Z" fill="#ffd282"/>
              </g>
            </g>
          </g>
          <g id="Group_128" data-name="Group 128">
            <path id="Path_126" data-name="Path 126" d="M199.952,195.535l-.531,4.045s-11.918-.143-11.552.863a6.4,6.4,0,0,0,1.782,2.1s-3.245.823-3.427,1.645,8.683,2.834,8.683,2.834-8.592,1.188-8.5,1.828,7.77,1.554,7.77,1.554-5.3,1.646-5.21,2.1,8.958.182,8.958.182,4.936-1,5.393-3.2-.457-4.662-.274-5.393,0-6.947-.457-8.044a13.178,13.178,0,0,0-2.308-2.885Z" fill="#e29579"/>
            <path id="Path_127" data-name="Path 127" d="M190.474,201.722a12.577,12.577,0,0,1,3.917.006,12.422,12.422,0,0,1,3.761,1.091,12.391,12.391,0,0,1-3.916-.006A12.552,12.552,0,0,1,190.474,201.722Z" fill="#df8666"/>
          </g>
        </g>
      </g>
      <g id="Group_141" data-name="Group 141">
        <g id="Group_138" data-name="Group 138">
          <path id="Path_128" data-name="Path 128" d="M125.685,104.974c-.275-7.4-1.185-15.006-3.73-21.554-3.28-8.436-18.735-11.7-29.5-2.347-5.01,4.355-6.061,12.242-5.763,19.443a3.878,3.878,0,0,0-.648-.264c-2.193-.547-4.395,1.105-5.051,3.166a5.939,5.939,0,0,0,.768,4.943,7.47,7.47,0,0,0,3.4,2.837,9.621,9.621,0,0,0,2.922.289A21.807,21.807,0,0,0,95.256,123.7a19.706,19.706,0,0,0,16.728,4.234c4.662-.966,11.562-3.96,13.273-8.8a12.018,12.018,0,0,0,.5-3.96c0-.308.011-.615.011-.933C125.805,111.26,125.794,108.133,125.685,104.974Z" fill="#e29579"/>
          <g id="Group_137" data-name="Group 137">
            <g id="Group_131" data-name="Group 131">
              <path id="Path_129" data-name="Path 129" d="M125.772,114.243a4.528,4.528,0,0,1-1.228.165,4.788,4.788,0,0,1,0-9.576,4.367,4.367,0,0,1,1.141.142C125.794,108.133,125.805,111.26,125.772,114.243Z" fill="#df8666"/>
              <circle id="Ellipse_6" data-name="Ellipse 6" cx="4.788" cy="4.788" r="4.788" transform="translate(95.931 104.833)" fill="#df8666"/>
            </g>
            <g id="Group_134" data-name="Group 134">
              <g id="Group_132" data-name="Group 132">
                <path id="Path_130" data-name="Path 130" d="M117.239,100.331c0,1.563.619,2.831,1.382,2.831S120,101.894,120,100.331s-.619-2.831-1.383-2.831S117.239,98.767,117.239,100.331Z" fill="#0e161f"/>
                <path id="Path_131" data-name="Path 131" d="M121.444,96.605a4.074,4.074,0,0,1-.936,1.208,3.284,3.284,0,0,1-1.447.748l-.023.005a.511.511,0,1,1-.229-1,.559.559,0,0,1,.134-.013,2.986,2.986,0,0,0,2.218-1.122l.01-.012a.166.166,0,0,1,.273.183Z" fill="#0e161f"/>
              </g>
              <g id="Group_133" data-name="Group 133">
                <path id="Path_132" data-name="Path 132" d="M108.028,100.331c0,1.563-.619,2.831-1.382,2.831s-1.383-1.268-1.383-2.831.619-2.831,1.383-2.831S108.028,98.767,108.028,100.331Z" fill="#0e161f"/>
                <path id="Path_133" data-name="Path 133" d="M104.106,96.434a2.984,2.984,0,0,0,2.217,1.122.512.512,0,1,1,.041,1.023.489.489,0,0,1-.133-.012l-.025-.006a3.284,3.284,0,0,1-1.447-.748,4.074,4.074,0,0,1-.936-1.208.165.165,0,0,1,.273-.183Z" fill="#0e161f"/>
              </g>
            </g>
            <g id="Group_135" data-name="Group 135">
              <path id="Path_134" data-name="Path 134" d="M117.825,108.895a6.788,6.788,0,0,1-2.085,2.37,5.282,5.282,0,0,1-3.1,1.027,5.362,5.362,0,0,1-3.081-1.063,10.163,10.163,0,0,1-1.193-1.062c-.326-.419-.644-.839-.929-1.272.427.312.817.645,1.208.968.436.264.824.589,1.265.811a5.7,5.7,0,0,0,2.734.777,5.572,5.572,0,0,0,2.745-.741A11.95,11.95,0,0,0,117.825,108.895Z" fill="#0e161f"/>
              <path id="Path_135" data-name="Path 135" d="M114.09,113.914a2.28,2.28,0,0,1-1.456.493,2.387,2.387,0,0,1-1.457-.493,7.554,7.554,0,0,0,1.458.163A6.309,6.309,0,0,0,114.09,113.914Z" fill="#0e161f"/>
            </g>
            <g id="Group_136" data-name="Group 136">
              <path id="Path_136" data-name="Path 136" d="M109.178,90.513a3.282,3.282,0,0,0-2.143-.794,6.633,6.633,0,0,0-2.282.324,5.582,5.582,0,0,0-2.009,1.151,5.862,5.862,0,0,0-1.371,1.759.662.662,0,0,0,1.026.809l.056-.052a8.193,8.193,0,0,1,1.365-1.084,4.8,4.8,0,0,1,1.508-.62,5.878,5.878,0,0,1,1.634-.158,6.253,6.253,0,0,0,1.745-.1l.175-.043a.693.693,0,0,0,.3-1.191Z" fill="#0e161f"/>
              <path id="Path_137" data-name="Path 137" d="M116.089,90.513a3.282,3.282,0,0,1,2.143-.794,6.624,6.624,0,0,1,2.281.324,5.578,5.578,0,0,1,2.01,1.151,5.862,5.862,0,0,1,1.371,1.759.662.662,0,0,1-1.026.809l-.056-.052a8.158,8.158,0,0,0-1.366-1.084,4.786,4.786,0,0,0-1.507-.62,5.878,5.878,0,0,0-1.634-.158,6.262,6.262,0,0,1-1.746-.1l-.174-.043a.693.693,0,0,1-.3-1.191Z" fill="#0e161f"/>
            </g>
            <path id="Path_138" data-name="Path 138" d="M112.954,96.006c.244,1.066.425,2.126.622,3.175s.4,2.091.7,3.082c.069.249.146.494.234.731a2.613,2.613,0,0,1,.241.913,1.842,1.842,0,0,1-.993,1.679,2.231,2.231,0,0,1-1.805.1,4.39,4.39,0,0,1-1.429-.855c.993.373,2.152.664,2.851.137a1.091,1.091,0,0,0,.49-1.01,2.037,2.037,0,0,0-.207-.628c-.107-.265-.2-.531-.28-.8a15.1,15.1,0,0,1-.52-3.256A17.292,17.292,0,0,1,112.954,96.006Z" fill="#0e161f"/>
            <path id="Path_139" data-name="Path 139" d="M82.731,104.949a2.358,2.358,0,0,1,.737-1.874,2.194,2.194,0,0,1,2.136-.2,4.027,4.027,0,0,1,1.724,1.257,6.459,6.459,0,0,1,1.072,1.808.472.472,0,0,1-.774.509l-.031-.032a4.148,4.148,0,0,0-1.585-1.121.73.73,0,0,0-.666.073,1.758,1.758,0,0,0-.475.734c-.242.621-.387,1.347.142,1.635a3.557,3.557,0,0,0,2.1.143,3.3,3.3,0,0,1-2.3.309,1.3,1.3,0,0,1-.812-1.086,3.371,3.371,0,0,1,.134-1.253,2.358,2.358,0,0,1,.67-1.157,1.589,1.589,0,0,1,1.448-.3,4.547,4.547,0,0,1,2.063,1.389l-.805.476a5.058,5.058,0,0,0-2.173-2.72,1.773,1.773,0,0,0-1.609-.1A2.363,2.363,0,0,0,82.731,104.949Z" fill="#0e161f"/>
          </g>
        </g>
        <g id="Group_140" data-name="Group 140">
          <g id="Group_139" data-name="Group 139">
            <path id="Path_140" data-name="Path 140" d="M115.967,76.268c-4.254-2.69-10.43-3.762-17.585-1.514-12.8,4.026-13.536,11.88-13.536,11.88-4.936,1.645-6.4,11.342-6.4,11.342s-4.574,27.138-4.793,46.1c5.8-2.259,8.358-1.042,8.358-1.042l.022.022a17.552,17.552,0,0,0,6.286-1.525c3.005-9.389.263-26.83-.264-30.044a9.429,9.429,0,0,1-2.895-.3,7.465,7.465,0,0,1-3.4-2.83A5.955,5.955,0,0,1,81,103.417a3.882,3.882,0,0,1,5.618-2.936c1.122,2.045,2.417,4.027,3.081,4.027,1.234,0,.823-4.388.823-4.388,2.273-.689,4.893-4.7,6.937-8.524a15.882,15.882,0,0,0,1.838,4.416s1.25,0,3.2-.022l-.1-7.524,1.009,7.5c6.439-.11,18.527-.527,21.8-2.019C125.2,93.95,126.1,80.779,115.967,76.268Z" fill="#0e161f"/>
            <path id="Path_141" data-name="Path 141" d="M123.842,121.6l-.2,25.8c-3.214-1.59-6.449-3.17-7.448-3.664l-.175-.087-.143-.066a.173.173,0,0,1-.011.044,12.247,12.247,0,0,1-1.546-1.558c-.3-1.053-.977-3.631-1.481-6.538a30.278,30.278,0,0,1-.538-7.678C116.076,127.022,121.165,124.9,123.842,121.6Z" fill="#0e161f"/>
          </g>
          <path id="Path_142" data-name="Path 142" d="M85.641,84.17a8.22,8.22,0,0,0-.795,2.464c-2.419.806-4,3.546-4.985,6.132,1.126.629,2.264,1.275,3.479,1.89,4.222,2.14,7.149.455,11.162-1.366.872-.4,1.75-.761,2.633-1.105.108-.2.215-.393.32-.589.036.138.084.285.125.427q2.394-.909,4.843-1.59l-.026-1.967.257,1.906a73.749,73.749,0,0,1,12.463-2.221,55.719,55.719,0,0,1,9.559-.136,19.854,19.854,0,0,0-2.158-5.783C112.168,78.895,97.045,85.055,85.641,84.17Z" fill="#0e161f" opacity="0.5" style="mix-blend-mode: screen;isolation: isolate"/>
        </g>
      </g>
    </g>
  </g>
</svg>
