<svg version="1.1" xmlns="http://www.w3.org/2000/svg" xmlns:xlink="http://www.w3.org/1999/xlink" viewBox="0 0 172 172"><g fill="none" fill-rule="nonzero" stroke="none" stroke-width="1" stroke-linecap="butt" stroke-linejoin="miter" stroke-miterlimit="10" stroke-dasharray="" stroke-dashoffset="0" font-family="none" font-weight="none" font-size="none" text-anchor="none" style="mix-blend-mode: normal"><path d="M0,172v-172h172v172z" fill="none"></path><g><path d="M154.67436,101.94494c-0.06047,-0.06047 -0.12161,-0.12161 -0.18208,-0.18208c-3.35602,-3.35602 -8.79484,-3.3587 -12.15019,-0.00134c-7.13666,7.14002 -18.62773,18.63109 -23.52167,23.5257c-1.49089,1.49089 -3.51323,2.32872 -5.62158,2.32872h-16.69811c5.51005,-0.02889 9.96928,-4.50223 9.96928,-10.019v0c0,-5.53491 -4.48678,-10.02169 -10.02169,-10.02169h-21.672c-5.39448,0 -10.55852,2.18359 -14.31698,6.05359l-13.58397,13.98777h-30.64758c-0.74242,0 -1.34375,0.60133 -1.34375,1.34375v30.68252c0,0.74242 0.60133,1.34375 1.34375,1.34375h81.26933c6.35191,0 12.44313,-2.52289 16.93528,-7.0137l40.24061,-40.23389c3.25725,-3.25792 3.25792,-8.53752 0.00134,-11.79409z" fill="#fcc4ae"></path><path d="M155.14736,102.46833c0.14042,2.30117 -0.66045,4.6487 -2.41875,6.40767l-40.24128,40.23389c-4.49148,4.49081 -10.58338,7.0137 -16.93461,7.0137h-80.66867v3.51794c0,0.74242 0.60133,1.34375 1.34375,1.34375h81.26933c6.35191,0 12.44313,-2.52289 16.93528,-7.0137l40.24061,-40.23389c3.08861,-3.08794 3.24314,-7.9933 0.47434,-11.26936z" fill="#f2ad97"></path><path d="M96.44631,127.61795h-16.40853c-0.80558,0 -1.45864,-0.65306 -1.45864,-1.45864v0c0,-0.80558 0.65306,-1.45864 1.45864,-1.45864h14.46412c5.53491,0 10.02169,-4.48678 10.02169,-10.02169v0c0,-1.42169 -0.30033,-2.77148 -0.8338,-3.99698c1.71731,1.79861 2.7782,4.23012 2.7782,6.91427v0c0,5.53491 -4.48678,10.02169 -10.02169,10.02169z" fill="#f2ad97"></path><path d="M93.06275,123.91995h2.03242c2.96834,0 5.375,-2.40666 5.375,-5.375v-1.89805c0,-2.96834 -2.40666,-5.375 -5.375,-5.375h-2.03242c-0.74242,0 -1.34375,0.60133 -1.34375,1.34375v9.96055c0,0.74242 0.60133,1.34375 1.34375,1.34375z" fill="#ffd2c0"></path><g><circle cx="131.159" cy="84.332" transform="scale(0.67188,0.67188)" r="67.5" fill="#ffc91d"></circle><path d="M88.12178,21.79092c-0.74175,0 -1.34375,-0.602 -1.34375,-1.34375v-3.49442c0,-0.74175 0.602,-1.34375 1.34375,-1.34375c0.74175,0 1.34375,0.602 1.34375,1.34375v3.49442c0,0.74175 -0.60133,1.34375 -1.34375,1.34375z" fill="#ffa91a"></path><path d="M88.12178,97.7128c-0.74175,0 -1.34375,-0.602 -1.34375,-1.34375v-3.49442c0,-0.74175 0.602,-1.34375 1.34375,-1.34375c0.74175,0 1.34375,0.602 1.34375,1.34375v3.49442c0,0.74175 -0.60133,1.34375 -1.34375,1.34375z" fill="#ffa91a"></path><path d="M75.73644,23.97519c-0.54825,0 -1.06425,-0.33862 -1.26313,-0.88419l-1.19459,-3.28345c-0.2533,-0.69741 0.10616,-1.46872 0.80356,-1.72202c0.69472,-0.2533 1.46805,0.10548 1.72202,0.80289l1.19459,3.28345c0.2533,0.69741 -0.10616,1.46872 -0.80356,1.72202c-0.15117,0.05509 -0.30638,0.0813 -0.45889,0.0813z" fill="#ffa91a"></path><path d="M101.70306,95.31823c-0.54825,0 -1.06425,-0.33862 -1.26245,-0.88419l-1.19527,-3.28413c-0.25397,-0.69741 0.10548,-1.46872 0.80222,-1.72202c0.69741,-0.2533 1.46939,0.10548 1.72202,0.80289l1.19527,3.28413c0.25397,0.69741 -0.10548,1.46872 -0.80222,1.72202c-0.15184,0.05509 -0.30638,0.0813 -0.45956,0.0813z" fill="#ffa91a"></path><path d="M64.84534,30.26327c-0.38297,0 -0.76459,-0.16327 -1.02998,-0.47972l-2.24675,-2.67675c-0.47703,-0.56841 -0.40312,-1.41564 0.16528,-1.89334c0.56908,-0.47636 1.41698,-0.40245 1.89334,0.16595l2.24675,2.67675c0.47703,0.56841 0.40312,1.41564 -0.16528,1.89334c-0.25195,0.21097 -0.55833,0.31377 -0.86336,0.31377z" fill="#ffa91a"></path><path d="M113.64631,88.42278c-0.38364,0 -0.76459,-0.16327 -1.02998,-0.47972l-2.24608,-2.67675c-0.47703,-0.56841 -0.40313,-1.41631 0.16595,-1.89334c0.56773,-0.47636 1.41564,-0.40245 1.89267,0.16595l2.24608,2.67675c0.47703,0.56841 0.40313,1.41631 -0.16595,1.89334c-0.25061,0.21097 -0.55698,0.31377 -0.86269,0.31377z" fill="#ffa91a"></path><path d="M56.75933,39.89795c-0.22777,0 -0.45889,-0.05778 -0.67053,-0.18073l-3.0268,-1.74755c-0.64231,-0.37087 -0.86269,-1.19258 -0.49181,-1.83556c0.37155,-0.64231 1.19123,-0.8647 1.83556,-0.49181l3.0268,1.74755c0.64231,0.37087 0.86269,1.19258 0.49181,1.83556c-0.24927,0.43134 -0.70077,0.67255 -1.16503,0.67255z" fill="#ffa91a"></path><path d="M122.50902,77.85889c-0.22777,0 -0.45889,-0.05778 -0.67053,-0.18073l-3.02612,-1.74755c-0.64298,-0.37087 -0.86269,-1.19258 -0.49181,-1.83556c0.37155,-0.64298 1.19056,-0.86403 1.83556,-0.49181l3.02612,1.74755c0.64298,0.37087 0.86269,1.19258 0.49181,1.83556c-0.24927,0.43134 -0.70077,0.67255 -1.16503,0.67255z" fill="#ffa91a"></path><path d="M52.46,51.71623c-0.07727,0 -0.1552,-0.00672 -0.23516,-0.02083l-3.44134,-0.6067c-0.731,-0.129 -1.21811,-0.82573 -1.08978,-1.55673c0.12833,-0.731 0.82036,-1.21811 1.55673,-1.09045l3.44134,0.6067c0.731,0.129 1.21811,0.82573 1.08978,1.55673c-0.11422,0.65239 -0.68128,1.11128 -1.32158,1.11128z" fill="#ffa91a"></path><path d="M127.22827,64.89977c-0.07727,0 -0.1552,-0.00672 -0.23516,-0.02083l-3.44134,-0.6067c-0.73033,-0.129 -1.21811,-0.82573 -1.08978,-1.55673c0.12833,-0.73033 0.82237,-1.21744 1.55673,-1.09045l3.44134,0.6067c0.73033,0.129 1.21811,0.82573 1.08978,1.55673c-0.11422,0.65239 -0.68128,1.11128 -1.32158,1.11128z" fill="#ffa91a"></path><path d="M49.01597,64.89977c-0.6403,0 -1.20736,-0.45889 -1.32225,-1.11061c-0.12833,-0.73033 0.35878,-1.42773 1.08978,-1.55673l3.44134,-0.6067c0.7357,-0.12631 1.42841,0.35945 1.55673,1.09045c0.12833,0.73033 -0.35878,1.42773 -1.08978,1.55673l-3.44134,0.6067c-0.07861,0.01344 -0.15722,0.02016 -0.23448,0.02016z" fill="#ffa91a"></path><path d="M123.78423,51.71623c-0.6403,0 -1.20736,-0.45889 -1.32225,-1.11061c-0.12833,-0.73033 0.35878,-1.42773 1.08978,-1.55673l3.44134,-0.6067c0.73436,-0.12833 1.42773,0.35878 1.55673,1.09045c0.12833,0.73033 -0.35878,1.42773 -1.08978,1.55673l-3.44134,0.6067c-0.07861,0.01344 -0.15655,0.02016 -0.23448,0.02016z" fill="#ffa91a"></path><path d="M53.73522,77.85889c-0.46427,0 -0.91577,-0.2412 -1.16503,-0.67187c-0.37088,-0.64298 -0.1505,-1.46469 0.49181,-1.83556l3.0268,-1.74755c0.64366,-0.37222 1.46402,-0.15117 1.83556,0.49181c0.37088,0.64298 0.1505,1.46469 -0.49181,1.83556l-3.0268,1.74755c-0.21231,0.12161 -0.44344,0.18006 -0.67053,0.18006z" fill="#ffa91a"></path><path d="M119.48558,39.89795c-0.46427,0 -0.91577,-0.2412 -1.16503,-0.67187c-0.37087,-0.64298 -0.15117,-1.46469 0.49181,-1.83556l3.02612,-1.74755c0.64097,-0.37289 1.46402,-0.1505 1.83556,0.49181c0.37087,0.64298 0.15117,1.46469 -0.49181,1.83556l-3.02612,1.74755c-0.21164,0.12161 -0.44277,0.18006 -0.67053,0.18006z" fill="#ffa91a"></path><g fill="#ffa91a"><path d="M62.59725,88.42278c-0.30503,0 -0.61141,-0.1028 -0.86336,-0.31444c-0.56841,-0.47703 -0.64231,-1.32494 -0.16528,-1.89334l2.24675,-2.67675c0.4777,-0.56841 1.32494,-0.64231 1.89334,-0.16595c0.56841,0.47703 0.64231,1.32494 0.16528,1.89334l-2.24675,2.67675c-0.26539,0.31713 -0.64702,0.48039 -1.02998,0.48039z"></path><path d="M111.39956,30.26327c-0.30503,0 -0.61141,-0.1028 -0.86269,-0.31444c-0.56908,-0.47703 -0.64298,-1.32494 -0.16595,-1.89334l2.24608,-2.67675c0.4777,-0.56841 1.32628,-0.64231 1.89267,-0.16595c0.56908,0.47703 0.64298,1.32494 0.16595,1.89334l-2.24608,2.67675c-0.26606,0.31713 -0.64702,0.48039 -1.02998,0.48039z"></path></g><g fill="#ffa91a"><path d="M74.54117,95.31823c-0.15319,0 -0.30772,-0.0262 -0.45956,-0.0813c-0.69741,-0.2533 -1.05686,-1.02461 -0.80356,-1.72202l1.19459,-3.28413c0.25464,-0.69808 1.02595,-1.05686 1.72202,-0.80356c0.69741,0.2533 1.05686,1.02461 0.80356,1.72202l-1.19459,3.28413c-0.1982,0.54623 -0.71353,0.88486 -1.26245,0.88486z"></path><path d="M100.5078,23.97519c-0.15319,0 -0.30772,-0.0262 -0.46023,-0.0813c-0.69673,-0.25397 -1.05619,-1.02528 -0.80222,-1.72202l1.19527,-3.28345c0.2533,-0.69808 1.02394,-1.05619 1.72202,-0.80289c0.69673,0.25397 1.05619,1.02528 0.80222,1.72202l-1.19527,3.28345c-0.19753,0.54489 -0.71353,0.88419 -1.26178,0.88419z"></path></g><g fill="#ffa91a"><circle cx="131.159" cy="84.332" transform="scale(0.67188,0.67188)" r="47.5"></circle></g><g fill="#ffc91d"><path d="M60.35252,55.49486c-0.04031,0 -0.08062,-0.00134 -0.12161,-0.00538c-0.73906,-0.06652 -1.28463,-0.71891 -1.21811,-1.45797c1.03267,-11.53005 8.80425,-21.37369 19.79948,-25.07706c0.7048,-0.23717 1.46603,0.14177 1.70253,0.84455c0.23717,0.70345 -0.14109,1.46603 -0.84455,1.70253c-9.98473,3.36341 -17.04278,12.30136 -17.98072,22.76984c-0.06248,0.69808 -0.64836,1.22348 -1.33703,1.22348zM84.46544,30.36002c-0.66381,0 -1.24162,-0.49248 -1.33031,-1.16906c-0.09675,-0.7357 0.42194,-1.41094 1.15831,-1.50702l0.29428,-0.03695c0.7263,-0.08869 1.40556,0.43672 1.49358,1.17444c0.08869,0.73705 -0.43672,1.40556 -1.17444,1.49425l-0.26405,0.03292c-0.0598,0.00806 -0.11892,0.01142 -0.17738,0.01142z"></path></g><g fill="#f79219"><path d="M107.07672,30.98755c3.91972,5.30042 6.24038,11.85591 6.24038,18.95494c0,17.62597 -14.28809,31.91406 -31.91406,31.91406c-7.09903,0 -13.65384,-2.32066 -18.95494,-6.24037c5.81306,7.86027 15.14675,12.95912 25.67369,12.95912c17.62597,0 31.91406,-14.28809 31.91406,-31.91406c0.00067,-10.52761 -5.09886,-19.8613 -12.95913,-25.67369z"></path></g><g fill="#ef7816"><path d="M108.9405,32.48314c4.81734,5.58933 7.73664,12.86036 7.73664,20.81805c0,17.62597 -14.28809,31.91406 -31.91406,31.91406c-7.95769,0 -15.22872,-2.9193 -20.81805,-7.73664c5.8527,6.79064 14.50981,11.09602 24.17742,11.09602c17.62597,0 31.91406,-14.28809 31.91406,-31.91406c0,-9.66761 -4.30537,-18.32539 -11.09602,-24.17742z"></path></g><path d="M90.90872,53.92334h-1.44252v-11.24517h1.44252c3.1007,0 5.62292,2.52222 5.62292,5.62292c0,0.74175 0.602,1.34375 1.34375,1.34375c0.74175,0 1.34375,-0.602 1.34375,-1.34375c0,-4.58219 -3.72823,-8.31042 -8.31042,-8.31042h-1.44252v-1.44252c0,-0.74175 -0.602,-1.34375 -1.34375,-1.34375c-0.74175,0 -1.34375,0.602 -1.34375,1.34375v1.44252h-1.44252c-4.58219,0 -8.30975,3.72756 -8.30975,8.31042c0,4.58286 3.72756,8.31042 8.30975,8.31042h1.44252v14.03211h-1.44252c-3.10003,0 -5.62225,-2.52222 -5.62225,-5.62292c0,-0.74175 -0.602,-1.34375 -1.34375,-1.34375c-0.74175,0 -1.34375,0.602 -1.34375,1.34375c0,4.58219 3.72756,8.31042 8.30975,8.31042h1.44252v1.44252c0,0.74175 0.602,1.34375 1.34375,1.34375c0.74175,0 1.34375,-0.602 1.34375,-1.34375v-1.44252h1.44252c4.58219,0 8.31042,-3.72756 8.31042,-8.31042v-2.78627c0,-4.58286 -3.72823,-8.31109 -8.31042,-8.31109zM85.33552,53.92334c-3.10003,0 -5.62225,-2.52222 -5.62225,-5.62292c0,-3.1007 2.52222,-5.62292 5.62225,-5.62292h1.44252v11.24517h-1.44252zM96.53164,65.02003c0,3.10003 -2.52222,5.62292 -5.62292,5.62292h-1.44252v-14.03211h1.44252c3.1007,0 5.62292,2.52222 5.62292,5.62292z" fill="#995222"></path><g fill="#ffc91d"><path d="M134.54028,11.47361l0.54489,2.53834c0.57244,2.66667 2.65592,4.74948 5.32259,5.32259l2.53834,0.54489c0.61208,0.13169 0.61208,1.00445 0,1.13614l-2.53834,0.54489c-2.66667,0.57244 -4.74948,2.65592 -5.32259,5.32259l-0.54489,2.53834c-0.13169,0.61208 -1.00445,0.61208 -1.13614,0l-0.54489,-2.53834c-0.57244,-2.66667 -2.65592,-4.74948 -5.32259,-5.32259l-2.53834,-0.54489c-0.61208,-0.13169 -0.61208,-1.00445 0,-1.13614l2.53834,-0.54489c2.66667,-0.57244 4.74948,-2.65592 5.32259,-5.32259l0.54489,-2.53834c0.13169,-0.61208 1.00445,-0.61208 1.13614,0z"></path></g><g fill="#ffc91d"><path d="M28.24361,60.23964l0.54489,2.53834c0.57244,2.66667 2.65592,4.74948 5.32259,5.32259l2.53834,0.54489c0.61208,0.13169 0.61208,1.00445 0,1.13614l-2.53834,0.54489c-2.66667,0.57244 -4.74948,2.65592 -5.32259,5.32259l-0.54489,2.53834c-0.13169,0.61208 -1.00445,0.61208 -1.13614,0l-0.54489,-2.53834c-0.57244,-2.66667 -2.65592,-4.74948 -5.32259,-5.32259l-2.53834,-0.54489c-0.61208,-0.13169 -0.61208,-1.00445 0,-1.13614l2.53834,-0.54489c2.66667,-0.57244 4.74948,-2.65592 5.32259,-5.32259l0.54489,-2.53834c0.13169,-0.61141 1.00512,-0.61141 1.13614,0z"></path></g><g fill="#ffc91d"><path d="M44.27455,86.09541l0.79886,3.71883c0.83917,3.90762 3.8915,6.95995 7.79913,7.79913l3.71883,0.79886c0.89695,0.19283 0.89695,1.47208 0,1.66423l-3.71883,0.79886c-3.90762,0.83917 -6.95995,3.8915 -7.79913,7.79913l-0.79886,3.71883c-0.19283,0.89695 -1.47208,0.89695 -1.66423,0l-0.79886,-3.71883c-0.83917,-3.90763 -3.8915,-6.95995 -7.79913,-7.79913l-3.71883,-0.79886c-0.89695,-0.19283 -0.89695,-1.47208 0,-1.66423l3.71883,-0.79886c3.90763,-0.83917 6.95995,-3.8915 7.79913,-7.79913l0.79886,-3.71883c0.19216,-0.89695 1.47208,-0.89695 1.66423,0z"></path></g></g></g></g></svg>