<svg version="1.1" xmlns="http://www.w3.org/2000/svg" xmlns:xlink="http://www.w3.org/1999/xlink" viewBox="0 0 172 172"><g fill="none" fill-rule="nonzero" stroke="none" stroke-width="1" stroke-linecap="butt" stroke-linejoin="miter" stroke-miterlimit="10" stroke-dasharray="" stroke-dashoffset="0" font-family="none" font-weight="none" font-size="none" text-anchor="none" style="mix-blend-mode: normal"><path d="M0,172v-172h172v172z" fill="none"></path><g fill="#000000"><path d="M86,5.76343c-44.31241,0.0007 -80.23428,35.92332 -80.23405,80.23573c0.00023,44.31241 35.92248,80.23466 80.23489,80.23489c44.31241,0.00023 80.23504,-35.92164 80.23573,-80.23405c-0.04966,-44.29285 -35.94373,-80.18691 -80.23658,-80.23657zM83.98438,25.6546v8.95483c0,1.1132 0.90243,2.01563 2.01563,2.01563c1.1132,0 2.01563,-0.90243 2.01563,-2.01562v-8.95483c14.6115,0.47507 28.54998,6.25478 39.21021,16.25885l-6.31458,6.3172c-0.74904,0.7927 -0.73199,2.03731 0.03848,2.80919c0.77047,0.77189 2.01504,0.79122 2.80912,0.04365l6.3172,-6.31458c10.00949,10.65973 15.79316,24.60063 16.26934,39.21545h-8.95745c-1.1132,0 -2.01562,0.90243 -2.01562,2.01563c0,1.1132 0.90243,2.01563 2.01563,2.01563h8.95745c-0.47818,14.61284 -6.26166,28.55141 -16.26934,39.21021l-6.3172,-6.31458c-0.79357,-0.74251 -2.03291,-0.7222 -2.80173,0.04591c-0.76882,0.76811 -0.79027,2.00743 -0.04849,2.80169l6.3172,6.3172c-10.65832,10.00842 -24.59718,15.79202 -39.21021,16.26934v-8.9627c0,-1.1132 -0.90243,-2.01562 -2.01562,-2.01562c-1.1132,0 -2.01562,0.90243 -2.01562,2.01563v8.96271c-14.61477,-0.47643 -28.55559,-6.26007 -39.21545,-16.26934l6.31458,-6.3172c0.54875,-0.4993 0.77884,-1.25969 0.59899,-1.97947c-0.17985,-0.71978 -0.74057,-1.28257 -1.45968,-1.46507c-0.71911,-0.1825 -1.48034,0.04479 -1.98166,0.59169l-6.3172,6.3172c-10.0071,-10.65812 -15.79053,-24.59566 -16.26935,-39.20758h8.96008c1.1132,0 2.01563,-0.90243 2.01563,-2.01562c0,-1.1132 -0.90243,-2.01562 -2.01562,-2.01562h-8.96008c0.47755,-14.61375 6.26108,-28.55336 16.26935,-39.21283l6.3172,6.31458c0.79811,0.70419 2.0062,0.66647 2.75882,-0.08615c0.75262,-0.75262 0.79035,-1.96071 0.08615,-2.75882l-6.31458,-6.3172c10.65906,-10.0089 24.59892,-15.79253 39.21283,-16.26935zM71.26337,47.19397c-0.66557,0.0068 -1.28488,0.34172 -1.65494,0.89497c-0.37006,0.55325 -0.44316,1.25351 -0.19534,1.87127l14.71826,36.78516c0.3047,0.76556 1.04468,1.26859 1.86865,1.27026c0.18188,0.00061 0.36297,-0.02412 0.53803,-0.07349l20.69427,-5.74243c0.70594,-0.18167 1.25879,-0.73033 1.44581,-1.43487c0.18702,-0.70454 -0.02092,-1.45516 -0.54381,-1.96303c-0.5229,-0.50787 -1.27926,-0.69385 -1.97805,-0.48637v-0.00525l-18.94635,5.25952l-14.05426,-35.10809c-0.30874,-0.77254 -1.06036,-1.27606 -1.89227,-1.26764z"></path></g></g></svg>