<svg version="1.1" xmlns="http://www.w3.org/2000/svg" xmlns:xlink="http://www.w3.org/1999/xlink" viewBox="0 0 172 172"><g fill="none" fill-rule="nonzero" stroke="none" stroke-width="1" stroke-linecap="butt" stroke-linejoin="miter" stroke-miterlimit="10" stroke-dasharray="" stroke-dashoffset="0" font-family="none" font-weight="none" font-size="none" text-anchor="none" style="mix-blend-mode: normal"><path d="M0,172v-172h172v172z" fill="none"></path><g><path d="M158.5625,99.4375h-145.125l8.0625,-86h129z" fill="#e74c3c"></path><rect x="40" y="296" transform="scale(0.33594,0.33594)" width="432" height="48" fill="#d18d28"></rect><path d="M56.4375,115.5625h59.125l2.6875,43h-64.5z" fill="#6e3f0d"></path><rect x="200" y="344" transform="scale(0.33594,0.33594)" width="112" height="128" fill="#834b10"></rect><path d="M80.625,67.1875h-53.75l5.375,-43h43z" fill="#3a97ff"></path><circle cx="160" cy="128" transform="scale(0.33594,0.33594)" r="24" fill="#007af6"></circle><path d="M42.32813,51.0625h22.84375c2.59746,0 4.70313,2.10566 4.70313,4.70313v11.42188h-32.25v-11.42187c0,-2.59746 2.10566,-4.70312 4.70313,-4.70312z" fill="#007af6"></path><path d="M45.6875,67.1875v-8.0625c0,-1.48427 1.20323,-2.6875 2.6875,-2.6875c1.48427,0 2.6875,1.20323 2.6875,2.6875v8.0625z" fill="#006ddc"></path><path d="M56.4375,67.1875v-8.0625c0,-1.48427 1.20323,-2.6875 2.6875,-2.6875c1.48427,0 2.6875,1.20323 2.6875,2.6875v8.0625z" fill="#006ddc"></path><rect x="320" y="72" transform="scale(0.33594,0.33594)" width="48" height="16" fill="#ea9d2d"></rect><rect x="272" y="104" transform="scale(0.33594,0.33594)" width="48" height="16" fill="#ea9d2d"></rect><rect x="336" y="104" transform="scale(0.33594,0.33594)" width="80" height="16" fill="#ea9d2d"></rect><rect x="272" y="136" transform="scale(0.33594,0.33594)" width="88" height="16" fill="#ea9d2d"></rect><rect x="376" y="136" transform="scale(0.33594,0.33594)" width="40" height="16" fill="#ea9d2d"></rect><rect x="272" y="168" transform="scale(0.33594,0.33594)" width="32" height="16" fill="#ea9d2d"></rect><rect x="320" y="168" transform="scale(0.33594,0.33594)" width="40" height="16" fill="#ea9d2d"></rect><rect x="352" y="216" transform="scale(0.33594,0.33594)" width="64" height="16" fill="#ea9d2d"></rect><rect x="376" y="168" transform="scale(0.33594,0.33594)" width="16" height="16" fill="#ea9d2d"></rect><rect x="80" y="232" transform="scale(0.33594,0.33594)" width="160" height="32" fill="#d18d28"></rect><rect x="80" y="232" transform="scale(0.33594,0.33594)" width="32" height="32" fill="#ea9d2d"></rect><rect x="144" y="232" transform="scale(0.33594,0.33594)" width="32" height="32" fill="#ea9d2d"></rect><rect x="208" y="232" transform="scale(0.33594,0.33594)" width="32" height="32" fill="#ea9d2d"></rect></g></g></svg>