<svg version="1.1" xmlns="http://www.w3.org/2000/svg" xmlns:xlink="http://www.w3.org/1999/xlink" viewBox="0 0 172 172"><defs><linearGradient x1="35.3245" y1="35.3245" x2="137.55342" y2="137.55342" gradientUnits="userSpaceOnUse" id="color-1"><stop offset="0" stop-color="#00bffe"></stop><stop offset="1" stop-color="#1d55c4"></stop></linearGradient><linearGradient x1="36.56433" y1="34.69025" x2="138.40267" y2="136.52858" gradientUnits="userSpaceOnUse" id="color-2"><stop offset="0" stop-color="#84e1fe"></stop><stop offset="1" stop-color="#167cf7"></stop></linearGradient><linearGradient x1="108.73267" y1="22.72908" x2="149.26733" y2="63.26017" gradientUnits="userSpaceOnUse" id="color-3"><stop offset="0" stop-color="#d43a02"></stop><stop offset="1" stop-color="#b9360c"></stop></linearGradient><radialGradient cx="129" cy="43" r="12.54167" gradientUnits="userSpaceOnUse" id="color-4"><stop offset="0.177" stop-color="#000000"></stop><stop offset="1" stop-color="#000000" stop-opacity="0"></stop></radialGradient></defs><g fill="none" fill-rule="nonzero" stroke="none" stroke-width="1" stroke-linecap="butt" stroke-linejoin="miter" stroke-miterlimit="10" stroke-dasharray="" stroke-dashoffset="0" font-family="none" font-weight="none" font-size="none" text-anchor="none" style="mix-blend-mode: normal"><path d="M0,172v-172h172v172z" fill="none"></path><g><path d="M157.66667,86c0,39.57792 -32.08875,71.66667 -71.66667,71.66667c-39.57792,0 -71.66667,-32.08875 -71.66667,-71.66667c0,-39.57792 32.08875,-71.66667 71.66667,-71.66667c39.57792,0 71.66667,32.08875 71.66667,71.66667z" fill="url(#color-1)"></path><path d="M85.17583,123.65367c0.82417,2.44742 0,5.719 -0.82058,7.36375c-0.80625,2.451 -1.62683,5.72258 -3.27158,7.34942c-1.62683,1.64475 -3.27158,2.46892 -4.89842,3.28592c-2.451,1.62683 -4.09217,4.89842 -6.54317,7.36375c0,0.80625 -3.27158,4.9665 -4.09217,4.9665c-0.30458,0.16125 -0.59483,0.30817 -0.88867,0.45508c-4.83033,-1.505 -9.417,-3.54033 -13.74925,-5.98058c-0.02867,-0.086 -0.06092,-0.16842 -0.09317,-0.258c0,-0.82058 -0.80625,-5.73333 -0.80625,-6.54317c-0.82058,-2.46175 -1.64475,-5.73333 -2.46175,-8.18433c-1.62683,-4.09217 -4.89842,-8.18433 -4.89842,-13.08275c0,-4.09575 0.80625,-8.17 -1.64475,-11.45592c-3.27158,-4.09217 -9.81475,-4.09217 -13.08633,-6.54317c-4.91633,-3.27158 -9.81475,-8.17 -12.26575,-13.08633c-0.58408,-0.9675 -0.97825,-1.86692 -1.30075,-2.752c0.00358,-0.18992 -0.0215,-0.3655 -0.0215,-0.55183c0,-19.19233 7.5895,-36.58583 19.88033,-49.45c6.72233,-5.43592 19.83375,-7.93708 27.79233,-5.53625c2.451,0.80625 11.26958,6.08092 11.26958,8.53192c0,0.82058 0,0.82058 -0.82058,1.64475c-0.80625,0.82058 -1.63042,0.82058 -2.451,0.82058c-2.451,0 -10.17308,-1.78092 -10.99725,-2.60508c-4.91633,-1.64117 -12.26575,8.99417 -13.08275,12.26575c-0.82058,2.46175 -0.82058,8.18433 3.27158,9.00492c2.451,0 13.66683,-9.51733 15.31158,-10.33792c6.54317,-0.80625 11.59925,4.80167 13.244,10.53858c2.451,6.54317 -11.37708,12.86775 -16.29342,14.5125c-1.62683,0.82058 -2.44742,-0.82058 -4.09217,0c-4.07783,1.62683 -6.48942,5.28183 -6.97675,10.17308c-0.41208,4.13875 -0.82058,8.17358 -1.62683,12.26575c-0.82058,0 -2.50117,-0.01075 -2.50117,-0.83133v-1.62683c0,-2.46892 -0.82058,-5.73692 -3.27158,-6.5575c-0.82058,-0.80267 -1.978,0.48733 -2.79858,0.48733c-2.451,0 -4.89842,-2.46175 -7.34942,-0.82058c-1.64475,1.62683 -3.27158,4.09217 -3.27158,6.54317c0,0.82417 0,1.64475 0.80625,2.451c1.64475,0.82058 3.27158,-0.80625 4.91633,0c1.62683,0 1.62683,1.64475 1.62683,2.46175c1.64475,2.451 3.27158,5.72258 5.73333,6.54317h16.35433c2.451,0.82058 6.54317,1.62683 8.18433,3.27158c0.80267,1.62683 0.80267,3.27158 1.62683,4.89842c4.09217,4.09217 8.99058,4.09217 13.90333,5.73333c1.634,0.82058 2.45817,1.62683 2.45458,3.27158zM130.87767,30.17167c-0.36192,0.1075 -0.72383,0.20425 -1.07858,0.35833c-2.451,0.82058 -8.84725,12.63125 -10.48483,15.07867c-0.82058,0.82058 -1.62683,2.451 -0.82058,3.27158c0,0.82058 0.82058,0.82058 1.64475,0.82058c1.62683,0.82058 1.849,1.161 3.49017,1.96725c0.82058,0 1.62683,0.82058 0.82058,1.64475c0,0 0,0.82058 -0.82058,0.82058c-4.09217,4.09217 -8.18433,7.36375 -12.26575,11.44158c-0.82417,0.82775 -1.37242,2.4725 -1.37242,3.27517c0,0.82058 0.54825,0.82058 0.54825,1.64475c0,0.82417 -0.82058,0.82058 -1.64475,1.62683c-1.62683,0.82058 -3.27158,1.64475 -4.09217,2.46175c-0.80625,1.62683 0,4.09217 -0.80625,5.72258c-0.82417,4.09217 -3.28592,7.36375 -4.91633,11.45592c-1.64475,2.451 -3.11033,4.89842 -4.75508,7.36375c0,3.27158 -0.82058,5.72258 0.82058,8.17c4.09217,5.73333 12.28367,0.24725 18.00625,2.69467c1.62683,0.82058 3.02792,0.97108 4.09217,2.451c2.03175,2.82008 2.279,8.76125 3.10317,11.22658c0.80625,3.27158 1.62683,6.54317 3.27158,9.81475c0.81342,4.05633 2.41875,8.10908 3.2465,11.34842c18.60467,-12.95017 30.80233,-34.45375 30.80233,-58.83117c0,-22.57858 -10.46692,-42.69183 -26.789,-55.82833zM102.512,33.52925c2.43667,-1.56592 4.06708,-4.687 4.88408,-7.02692c0.79908,-1.5695 3.25008,-4.687 2.43667,-7.02692c-0.63425,-1.21833 -3.21425,-1.94933 -5.09908,-2.58358c-5.98417,-1.61608 -12.24067,-2.5585 -18.73367,-2.5585c-1.64833,0 -3.26442,0.13617 -4.88408,0.24725c-1.36525,0.473 -2.54058,1.27567 -2.98492,2.5585c-0.817,3.90225 2.43667,3.1175 5.68317,3.90225c0,0 0.817,6.24217 0.817,7.02692c0.817,3.90225 -1.63042,6.24217 -1.63042,10.13367c0,2.35067 0,6.25292 1.63042,7.81167h0.817c0.817,0 1.61608,-0.78475 3.25008,-1.55158c2.43667,-1.5695 4.88408,-3.90225 7.31717,-5.47175c2.43308,-1.55517 4.86617,-3.90583 6.49658,-5.461z" fill="url(#color-2)"></path><path d="M153.9615,63.37483c-7.11292,-21.36742 -23.99042,-38.23775 -45.36142,-45.34708c-7.23117,5.91608 -11.85008,14.90308 -11.85008,24.97225c0,8.73617 3.49017,16.65175 9.13392,22.46033c0.03225,0.03225 20.58267,20.60058 20.58267,20.60058c1.40108,1.40108 3.66933,1.40108 5.06683,0c0,0 20.55042,-20.56833 20.58267,-20.60058c0.64858,-0.6665 1.25775,-1.36883 1.84542,-2.0855z" fill="#000000" opacity="0.05"></path><path d="M153.22692,61.36817c-7.19533,-19.75492 -22.86167,-35.41767 -42.62017,-42.60583c-7.32433,5.547 -12.06508,14.33692 -12.06508,24.23767c0,8.25242 3.32533,15.69858 8.62508,21.21333c0.02867,0.03225 19.43958,19.4575 19.43958,19.4575c1.32225,1.32225 3.46508,1.32225 4.78733,0c0,0 19.41092,-19.42525 19.43958,-19.4575c0.86,-0.89583 1.6555,-1.849 2.39367,-2.84517z" fill="#000000" opacity="0.07"></path><path d="M149.54683,62.96275c5.01667,-5.16 8.11983,-12.19408 8.11983,-19.96275c0,-15.83117 -12.8355,-28.66667 -28.66667,-28.66667c-15.83117,0 -28.66667,12.8355 -28.66667,28.66667c0,7.76867 3.10317,14.80275 8.11983,19.96275c0.02867,0.02867 18.2965,18.31442 18.2965,18.31442c1.24342,1.24342 3.26083,1.24342 4.50425,0c0,0 18.26425,-18.28217 18.29292,-18.31442z" fill="url(#color-3)"></path><circle cx="36" cy="12" transform="scale(3.58333,3.58333)" r="3.5" fill="url(#color-4)"></circle><circle cx="36" cy="12" transform="scale(3.58333,3.58333)" r="3" fill="#f9f9f9"></circle></g></g></svg>