<svg version="1.1" xmlns="http://www.w3.org/2000/svg" xmlns:xlink="http://www.w3.org/1999/xlink" viewBox="0 0 172 172"><g fill="none" fill-rule="nonzero" stroke="none" stroke-width="1" stroke-linecap="butt" stroke-linejoin="miter" stroke-miterlimit="10" stroke-dasharray="" stroke-dashoffset="0" font-family="none" font-weight="none" font-size="none" text-anchor="none" style="mix-blend-mode: normal"><path d="M0,172v-172h172v172z" fill="none"></path><g fill="#000000"><path d="M86,6.88c-43.6552,0 -79.12,35.4648 -79.12,79.12c0,43.6552 35.4648,79.12 79.12,79.12c43.6552,0 79.12,-35.4648 79.12,-79.12c0,-43.6552 -35.4648,-79.12 -79.12,-79.12zM86,13.76c39.9368,0 72.24,32.3032 72.24,72.24c0,39.9368 -32.3032,72.24 -72.24,72.24c-39.9368,0 -72.24,-32.3032 -72.24,-72.24c0,-39.9368 32.3032,-72.24 72.24,-72.24zM82.56,37.84v10.5014c-5.95808,0.57792 -10.79676,2.68627 -14.39156,6.32235c-6.28144,6.35368 -6.25188,14.96179 -6.24844,15.28515c0,14.79888 12.93854,17.6766 23.33422,19.98828c11.1284,2.46648 17.94578,4.43233 17.94578,13.26281c0,13.5192 -16.50512,13.75656 -17.2,13.76c-16.54296,0 -17.1828,-12.37647 -17.2,-13.78687l-3.44,0.02687h-3.44c0,6.68736 4.41696,18.95483 20.64,20.47875v10.48125h6.88v-10.54172c8.59312,-1.05264 20.64,-6.13884 20.64,-20.41828c0,-14.79888 -12.93854,-17.6766 -23.33422,-19.98828c-11.1284,-2.46648 -17.94578,-4.43513 -17.94578,-13.28969c0,-0.03784 0.01984,-3.94025 2.1836,-7.67953c2.76232,-4.77816 7.81648,-7.2025 15.0164,-7.2025c13.0892,0 13.72904,12.40023 13.76,13.80031l6.88,-0.08735c-0.08256,-6.58416 -3.89408,-18.57262 -17.2,-20.3511v-10.56187z"></path></g></g></svg>