<svg version="1.1" xmlns="http://www.w3.org/2000/svg" xmlns:xlink="http://www.w3.org/1999/xlink" viewBox="0 0 172 172"><g fill="none" fill-rule="nonzero" stroke="none" stroke-width="1" stroke-linecap="butt" stroke-linejoin="miter" stroke-miterlimit="10" stroke-dasharray="" stroke-dashoffset="0" font-family="none" font-weight="none" font-size="none" text-anchor="none" style="mix-blend-mode: normal"><path d="M0,172v-172h172v172z" fill="none"></path><g><path d="M53.75,161.25h86c5.93669,0 10.75,-4.81331 10.75,-10.75v-118.25c0,-5.93669 -4.81331,-10.75 -10.75,-10.75h-86c-5.93669,0 -10.75,4.81331 -10.75,10.75v118.25c0,5.93669 4.81331,10.75 10.75,10.75z" fill="#0a5078"></path><path d="M53.75,158.5625h86c2.96969,0 5.375,-2.40531 5.375,-5.375v-118.25c0,-2.96969 -2.40531,-5.375 -5.375,-5.375h-86c-2.96969,0 -5.375,2.40531 -5.375,5.375v118.25c0,2.96969 2.40531,5.375 5.375,5.375z" fill="#00325a"></path><path d="M53.75,155.875h86c2.96969,0 5.375,-2.40531 5.375,-5.375v-118.25c0,-2.96969 -2.40531,-5.375 -5.375,-5.375h-86c-2.96969,0 -5.375,2.40531 -5.375,5.375v118.25c0,2.96969 2.40531,5.375 5.375,5.375z" fill="#f0f0f0"></path><path d="M48.375,59.25938v67.05312l8.84994,8.84994c1.69313,1.69313 4.58756,0.4945 4.58756,-1.90006v-25.76237c6.52794,-4.902 10.75,-12.70919 10.75,-21.5c0,-13.93469 -10.60756,-25.39419 -24.1875,-26.74062z" fill="#d2d2d2"></path><path d="M80.625,24.1875v-2.6875c0,-4.45319 3.60931,-8.0625 8.0625,-8.0625h16.125c4.45319,0 8.0625,3.60931 8.0625,8.0625v2.6875h5.375c2.96969,0 5.375,2.40531 5.375,5.375v5.375c0,2.96969 -2.40531,5.375 -5.375,5.375h-43c-2.96969,0 -5.375,-2.40531 -5.375,-5.375v-5.375c0,-2.96969 2.40531,-5.375 5.375,-5.375z" fill="#d2d2d2"></path><path d="M80.625,21.5v-2.6875c0,-4.45319 3.60931,-8.0625 8.0625,-8.0625h16.125c4.45319,0 8.0625,3.60931 8.0625,8.0625v2.6875h5.375c2.96969,0 5.375,2.40531 5.375,5.375v5.375c0,2.96969 -2.40531,5.375 -5.375,5.375h-43c-2.96969,0 -5.375,-2.40531 -5.375,-5.375v-5.375c0,-2.96969 2.40531,-5.375 5.375,-5.375z" fill="#fab400"></path><circle cx="43" cy="11" transform="scale(2.6875,2.6875)" r="1" fill="#dc9600"></circle><circle cx="29" cy="11" transform="scale(2.6875,2.6875)" r="1" fill="#dc9600"></circle><circle cx="46" cy="22" transform="scale(2.6875,2.6875)" r="6" fill="#d2d2d2"></circle><path d="M120.9375,67.1875c-0.688,0 -1.376,-0.26337 -1.90006,-0.78744l-5.375,-5.375c-1.05081,-1.05081 -1.05081,-2.74931 0,-3.80013c1.05081,-1.05081 2.74931,-1.05081 3.80013,0l3.47494,3.47494l8.84994,-8.84994c1.05081,-1.05081 2.74931,-1.05081 3.80012,0c1.05081,1.05081 1.05081,2.74931 0,3.80013l-10.75,10.75c-0.52406,0.52406 -1.21206,0.78744 -1.90006,0.78744z" fill="#00a0c8"></path><circle cx="46" cy="36" transform="scale(2.6875,2.6875)" r="6" fill="#d2d2d2"></circle><path d="M120.9375,104.8125c-0.688,0 -1.376,-0.26337 -1.90006,-0.78744l-5.375,-5.375c-1.05081,-1.05081 -1.05081,-2.74931 0,-3.80013c1.05081,-1.05081 2.74931,-1.05081 3.80013,0l3.47494,3.47494l8.84994,-8.84994c1.05081,-1.05081 2.74931,-1.05081 3.80012,0c1.05081,1.05081 1.05081,2.74931 0,3.80013l-10.75,10.75c-0.52406,0.52406 -1.21206,0.78744 -1.90006,0.78744z" fill="#00a0c8"></path><circle cx="46" cy="50" transform="scale(2.6875,2.6875)" r="6" fill="#d2d2d2"></circle><path d="M127.42513,134.375l3.47494,-3.47494c1.05081,-1.05081 1.05081,-2.74931 0,-3.80012c-1.05081,-1.05081 -2.74931,-1.05081 -3.80012,0l-3.47494,3.47494l-3.47494,-3.47494c-1.05081,-1.05081 -2.74931,-1.05081 -3.80013,0c-1.05081,1.05081 -1.05081,2.74931 0,3.80012l3.47494,3.47494l-3.47494,3.47494c-1.05081,1.05081 -1.05081,2.74931 0,3.80012c0.52406,0.52406 1.21206,0.78744 1.90006,0.78744c0.688,0 1.376,-0.26337 1.90006,-0.78744l3.47494,-3.47494l3.47494,3.47494c0.52406,0.52406 1.21206,0.78744 1.90006,0.78744c0.688,0 1.376,-0.26337 1.90006,-0.78744c1.05081,-1.05081 1.05081,-2.74931 0,-3.80012z" fill="#c80a50"></path><path d="M99.4375,61.8125h-37.625c-1.4835,0 -2.6875,-1.204 -2.6875,-2.6875v0c0,-1.4835 1.204,-2.6875 2.6875,-2.6875h37.625c1.4835,0 2.6875,1.204 2.6875,2.6875v0c0,1.4835 -1.204,2.6875 -2.6875,2.6875z" fill="#d2d2d2"></path><path d="M99.4375,99.4375h-37.625c-1.4835,0 -2.6875,-1.204 -2.6875,-2.6875v0c0,-1.4835 1.204,-2.6875 2.6875,-2.6875h37.625c1.4835,0 2.6875,1.204 2.6875,2.6875v0c0,1.4835 -1.204,2.6875 -2.6875,2.6875z" fill="#d2d2d2"></path><path d="M99.4375,137.0625h-37.625c-1.4835,0 -2.6875,-1.204 -2.6875,-2.6875v0c0,-1.4835 1.204,-2.6875 2.6875,-2.6875h37.625c1.4835,0 2.6875,1.204 2.6875,2.6875v0c0,1.4835 -1.204,2.6875 -2.6875,2.6875z" fill="#d2d2d2"></path><path d="M54.53744,135.16244l-11.53744,-11.53744l-11.53744,11.53744c-1.69313,1.69313 -4.58756,0.4945 -4.58756,-1.90006v-36.51237h32.25v36.51237c0,2.39456 -2.89444,3.59319 -4.58756,1.90006z" fill="#c80a50"></path><path d="M26.875,110.1875c4.49081,3.37281 10.07544,5.375 16.125,5.375c6.04956,0 11.63419,-1.9995 16.125,-5.375v-13.4375h-32.25z" fill="#a00028"></path><g fill="#dc9600"><circle cx="16" cy="32" transform="scale(2.6875,2.6875)" r="10"></circle></g><g fill="#fab400"><circle cx="16" cy="32" transform="scale(2.6875,2.6875)" r="8"></circle></g><g fill="#be7800"><path d="M37.625,96.75c-0.688,0 -1.376,-0.26337 -1.90006,-0.78744l-5.375,-5.375c-1.05081,-1.05081 -1.05081,-2.74931 0,-3.80013c1.05081,-1.05081 2.74931,-1.05081 3.80012,0l3.47494,3.47494l14.22494,-14.22494c1.05081,-1.05081 2.74931,-1.05081 3.80013,0c1.05081,1.05081 1.05081,2.74931 0,3.80013l-16.125,16.125c-0.52406,0.52406 -1.21206,0.78744 -1.90006,0.78744z"></path></g></g></g></svg>