<svg version="1.1" xmlns="http://www.w3.org/2000/svg" xmlns:xlink="http://www.w3.org/1999/xlink" viewBox="0 0 172 172"><g fill="none" fill-rule="nonzero" stroke="none" stroke-width="1" stroke-linecap="butt" stroke-linejoin="miter" stroke-miterlimit="10" stroke-dasharray="" stroke-dashoffset="0" font-family="none" font-weight="none" font-size="none" text-anchor="none" style="mix-blend-mode: normal"><path d="M0,172v-172h172v172z" fill="none"></path><g id="Layer_1"><path d="M10.52358,85.84816c0.63022,5.45562 2.95894,24.08538 6.49703,34.90995c4.17705,12.78981 16.66116,16.66116 24.1183,22.49169c4.54389,3.35736 6.09592,9.78787 5.86413,14.3143l0.03897,0.05711l0.77736,1.02931l16.46295,-16.46295c1.95247,-9.91688 -4.86102,-15.14809 -10.71977,-22.26056c-3.98153,-5.15059 -7.06544,-10.95291 -8.93661,-17.1953c-0.2103,-1.4022 -1.54263,-1.80466 -2.64383,-1.04141c-3.89016,2.69892 -5.51677,8.28959 -3.07584,12.06083l1.26313,2.00756c0.43403,0.70681 -0.42933,1.45125 -1.09516,0.98094c-7.67012,-3.73294 -12.169,-10.83063 -15.308,-18.8125c-2.07677,-5.27556 -3.88008,-15.23544 -11.61941,-14.12819c-0.98094,0.14042 -1.73411,1.0918 -1.62325,2.04922z" fill="#fcc4ae"></path><path d="M53.56255,119.927c-3.98153,-5.15059 -7.06544,-10.95291 -8.93661,-17.1953c-0.20828,-1.38742 -1.51441,-1.79189 -2.60822,-1.06089c1.89805,5.37097 4.69708,10.3845 8.18545,14.89681c5.85875,7.11314 12.67223,12.34436 10.71977,22.26056l-14.23703,14.23703c0.29025,1.58227 0.387,3.12825 0.31645,4.49955l0.03897,0.05711l0.77736,1.02931l16.46295,-16.46295c1.95314,-9.91755 -4.86034,-15.14877 -10.71909,-22.26123z" fill="#f2ad97"></path><path d="M44.04813,153.65109l4.76695,6.31898c0.64164,0.85194 1.85303,1.01856 2.7043,0.37692l21.10023,-15.92344c0.85194,-0.64164 1.01991,-1.85102 0.37827,-2.70295l-4.76695,-6.31898c-0.64231,-0.84656 -1.84766,-1.01991 -2.7043,-0.37692l-21.10158,15.92478c-0.85059,0.6403 -1.01789,1.85102 -0.37692,2.70161z" fill="#f1f2f2"></path><path d="M72.99855,141.71994l-4.76695,-6.31898c-0.34736,-0.45755 -0.86,-0.71084 -1.3928,-0.7525c1.35719,1.79928 2.80038,3.71144 2.80038,3.71144c0.64231,0.85194 0.47367,2.06131 -0.37827,2.70295l-21.10023,15.92344c-0.39103,0.29495 -0.85798,0.41119 -1.31083,0.37692c0.95272,1.26245 1.96591,2.60553 1.96591,2.60553c0.64164,0.85194 1.85303,1.01856 2.7043,0.37692l21.10023,-15.92344c0.85127,-0.64097 1.01991,-1.85034 0.37827,-2.70228z" fill="#e6e7e8"></path><path d="M55.20192,168.7965l-6.14698,-6.14698c-1.02327,-1.02327 -1.02327,-2.68212 0,-3.70606l21.64311,-21.64311c1.02327,-1.02327 2.68212,-1.02327 3.70606,0l6.14698,6.14698c1.02327,1.02327 1.02327,2.68212 0,3.70539l-21.64311,21.64311c-1.02327,1.02394 -2.6828,1.02394 -3.70606,0.00067z" fill="#58595b"></path><path d="M80.55109,143.448l-3.35937,-3.35937c1.02327,1.02327 1.02327,2.68212 0,3.70606l-21.64311,21.64311c-1.02327,1.02327 -2.68213,1.02327 -3.70539,0l3.35938,3.35938c1.02327,1.02327 2.68213,1.02327 3.70539,0l21.64311,-21.64311c1.02327,-1.02394 1.02327,-2.6828 0,-3.70606z" fill="#414042"></path><g fill="#ffffff"><circle cx="31.46913" cy="250.07623" transform="rotate(-13.286) scale(0.67188,0.67187)" r="4.164"></circle></g><g fill="#e6e7e8"><path d="M60.36663,156.14173c0.16931,0.36012 0.27077,0.75855 0.27077,1.18317c0,1.54531 -1.25238,2.79769 -2.79769,2.79769c-0.42462,0 -0.82238,-0.10145 -1.18317,-0.27077c0.4468,0.95137 1.40623,1.61452 2.52692,1.61452c1.54531,0 2.79769,-1.25238 2.79769,-2.79769c0,-1.12069 -0.66314,-2.08012 -1.61452,-2.52692z"></path></g><g><path d="M161.47642,85.84816c-0.63022,5.45562 -2.95894,24.08538 -6.49703,34.90995c-4.17705,12.78981 -16.66116,16.66116 -24.1183,22.49169c-4.54389,3.35736 -6.09592,9.78787 -5.86413,14.3143l-0.03897,0.05711l-0.77736,1.02931l-16.46295,-16.46295c-1.95247,-9.91688 4.86034,-15.14809 10.71977,-22.26056c3.98153,-5.15059 7.06544,-10.95291 8.93661,-17.1953c0.2103,-1.4022 1.54262,-1.80466 2.64383,-1.04141c3.89016,2.69892 5.51677,8.28959 3.07584,12.06083l-1.26313,2.00756c-0.43403,0.70681 0.42933,1.45125 1.09516,0.98094c7.67012,-3.73294 12.169,-10.83063 15.308,-18.8125c2.07677,-5.27556 3.88008,-15.23544 11.61941,-14.12819c0.98094,0.14042 1.73411,1.0918 1.62325,2.04922z" fill="#fcc4ae"></path><path d="M159.85317,83.79827c-0.67255,-0.09608 -1.29806,-0.10414 -1.88528,-0.043c-0.79752,6.64552 -3.04561,23.54183 -6.34788,33.64347c-4.17705,12.78981 -16.66116,16.66116 -24.1183,22.49169c-4.54389,3.35736 -6.09592,9.78787 -5.86413,14.3143l-0.03897,0.05711l-0.77736,1.02931l-13.10358,-13.10358v0l16.46295,16.46295l0.77736,-1.02931l0.03897,-0.05711c-0.23247,-4.52642 1.31956,-10.95694 5.86413,-14.3143c7.45714,-5.83053 19.94125,-9.70188 24.1183,-22.49169c3.53809,-10.82458 5.86681,-29.45433 6.49703,-34.90995c0.11086,-0.95742 -0.64231,-1.9088 -1.62325,-2.04989z" fill="#f2ad97"></path><path d="M127.95188,153.65109l-4.76695,6.31898c-0.64164,0.85194 -1.85303,1.01856 -2.7043,0.37692l-21.10023,-15.92344c-0.85194,-0.64164 -1.01991,-1.85102 -0.37827,-2.70295l4.76695,-6.31898c0.64231,-0.84656 1.84766,-1.01991 2.7043,-0.37692l21.10158,15.92478c0.85059,0.6403 1.01789,1.85102 0.37692,2.70161z" fill="#f1f2f2"></path><path d="M127.57495,150.94881c0,0 -2.0425,-1.54128 -2.60688,-1.96725c0.03494,0.45284 -0.0813,0.91913 -0.37558,1.30948l-4.76695,6.31898c-0.64164,0.85194 -1.85303,1.01856 -2.7043,0.37692l-18.49537,-13.95753c0.04098,0.5328 0.29361,1.04611 0.75452,1.39347l21.10023,15.92344c0.85194,0.64231 2.06266,0.47502 2.7043,-0.37692l4.76695,-6.31898c0.64097,-0.84992 0.47367,-2.06064 -0.37692,-2.70161z" fill="#e6e7e8"></path><path d="M116.79808,168.7965l6.14698,-6.14698c1.02327,-1.02327 1.02327,-2.68212 0,-3.70606l-21.64311,-21.64311c-1.02327,-1.02327 -2.68212,-1.02327 -3.70606,0l-6.14698,6.14698c-1.02327,1.02327 -1.02327,2.68212 0,3.70539l21.64311,21.64311c1.02327,1.02394 2.6828,1.02394 3.70606,0.00067z" fill="#58595b"></path><path d="M122.94439,158.94413l-3.35937,-3.35937c1.02327,1.02327 1.02327,2.6828 0,3.70606l-6.14698,6.14698c-1.02327,1.02327 -2.68212,1.02327 -3.70539,0l3.35938,3.35938c1.02327,1.02327 2.68212,1.02327 3.70539,0l6.14698,-6.14698c1.02394,-1.02327 1.02394,-2.6828 0,-3.70606z" fill="#414042"></path><g fill="#ffffff"><circle cx="-191.27514" cy="217.69999" transform="rotate(-76.714) scale(0.67188,0.67187)" r="4.164"></circle></g><g fill="#e6e7e8"><path d="M113.99972,156.14173c0.16931,0.36012 0.27077,0.75855 0.27077,1.18317c0,1.54531 -1.25238,2.79769 -2.79769,2.79769c-0.42462,0 -0.82237,-0.10145 -1.18317,-0.27077c0.4468,0.95137 1.40623,1.61452 2.52692,1.61452c1.54531,0 2.79769,-1.25238 2.79769,-2.79769c0,-1.12069 -0.66314,-2.08012 -1.61452,-2.52692z"></path></g></g><g><path d="M86,9.19528c-28.22883,0 -51.11222,22.88406 -51.11222,51.11222c0,28.22816 22.88406,51.11222 51.11222,51.11222c28.22816,0 51.11222,-22.88406 51.11222,-51.11222c0,-28.22816 -22.88339,-51.11222 -51.11222,-51.11222z" fill="#8c3f0a"></path><path d="M50.43766,92.47016c-0.38969,0 -0.75922,-0.16797 -1.01453,-0.46359c-0.00672,0 -0.00672,0 -0.00672,-0.00672c-0.22844,-0.26875 -0.34266,-0.61141 -0.3225,-0.9675c0.02688,-0.35609 0.18812,-0.68531 0.46359,-0.92047c0.5375,-0.46359 1.42438,-0.40312 1.89469,0.13437c0,0.00672 0,0.00672 0.00672,0.00672c0.22844,0.26875 0.34266,0.61812 0.31578,0.97422c-0.02016,0.35609 -0.18812,0.67859 -0.45688,0.91375c-0.24187,0.215 -0.55766,0.32922 -0.88016,0.32922zM47.15219,88.22391c-0.44344,0 -0.86,-0.22172 -1.10859,-0.58453c-5.54297,-8.07594 -8.46563,-17.5225 -8.46563,-27.33188c0,-5.93937 1.06828,-11.74437 3.17125,-17.25375c2.03578,-5.31453 4.97188,-10.20578 8.73438,-14.51922c0.47031,-0.5375 1.35719,-0.59797 1.89469,-0.12766c0.55766,0.48375 0.61812,1.33703 0.13437,1.89469c-7.25625,8.32453 -11.24719,18.98047 -11.24719,30.00594c0,9.25844 2.76141,18.18766 7.99531,25.81344c0.20156,0.29562 0.27547,0.65172 0.215,1.00109c-0.06719,0.35609 -0.26875,0.66516 -0.56438,0.86672c-0.22172,0.15453 -0.49047,0.23516 -0.75922,0.23516z" fill="#995222"></path><path d="M118.62491,20.96384c7.3483,8.85195 11.76923,20.22142 11.76923,32.62491c0,28.22883 -22.88406,51.11222 -51.11222,51.11222c-12.40348,0 -23.77295,-4.42094 -32.62491,-11.76923c9.37534,11.29355 23.51831,18.48798 39.34366,18.48798c28.22883,0 51.11222,-22.88406 51.11222,-51.11222c-0.00067,-15.82534 -7.19444,-29.96764 -18.48798,-39.34366z" fill="#7c3108"></path><path d="M120.42217,22.52595c8.28019,9.08308 13.33067,21.16272 13.33067,34.42217c0,28.22883 -22.88406,51.11222 -51.11222,51.11222c-13.25945,0 -25.33909,-5.05048 -34.42217,-13.33067c9.3478,10.25416 22.81284,16.69005 37.78155,16.69005c28.22883,0 51.11222,-22.88406 51.11222,-51.11222c0,-14.9687 -6.43589,-28.43375 -16.69005,-37.78155z" fill="#6d2e03"></path><g fill="#e6e7e8"><circle cx="128" cy="165.748" transform="scale(0.67188,0.67188)" r="30.114"></circle></g><g fill="#d1d3d4"><path d="M98.52913,95.47411c2.72109,3.44537 4.34502,7.79778 4.34502,12.52845c0,11.17463 -9.05889,20.23352 -20.23352,20.23352c-4.73134,0 -9.08308,-1.62392 -12.52913,-4.34502c3.70539,4.69238 9.44522,7.70439 15.8885,7.70439c11.17463,0 20.23352,-9.05889 20.23352,-20.23352c0,-6.44328 -3.01202,-12.18244 -7.70439,-15.88783z"></path></g></g><g><path d="M83.08675,29.88433c-4.06686,0 -7.6802,1.9397 -9.96659,4.94433c-2.28639,-3.00463 -5.89973,-4.94433 -9.96659,-4.94433c-6.91225,0 -12.51636,5.60344 -12.51636,12.51636c0,10.30858 15.83139,25.18658 20.92488,29.70628c0.88956,0.78945 2.22659,0.78945 3.11616,0c5.09348,-4.5197 20.92488,-19.3977 20.92488,-29.70628c0,-6.91225 -5.60411,-12.51636 -12.51636,-12.51636z" fill="#e63950"></path><path d="M88.21517,30.98016c0.70413,1.5648 1.09583,3.30092 1.09583,5.12842c0,10.30858 -15.83139,25.18658 -20.92487,29.70628c-0.88956,0.78945 -2.22659,0.78945 -3.11616,0c-0.63291,-0.56169 -1.43177,-1.28328 -2.34552,-2.13656c3.45008,3.71345 6.76713,6.76914 8.63695,8.428c0.88956,0.78945 2.22659,0.78945 3.11616,0c5.09348,-4.5197 20.92488,-19.3977 20.92488,-29.70628c0.00067,-5.08408 -3.03217,-9.46067 -7.38727,-11.41986z" fill="#d10028"></path><path d="M108.84644,47.84758c-4.06686,0 -7.6802,1.9397 -9.96659,4.94433c-2.28639,-3.00462 -5.89973,-4.94433 -9.96659,-4.94433c-6.91225,0 -12.51636,5.60344 -12.51636,12.51636c0,10.30858 15.83139,25.18658 20.92488,29.70628c0.88956,0.78945 2.22659,0.78945 3.11616,0c5.09348,-4.5197 20.92488,-19.3977 20.92488,-29.70628c-0.00067,-6.91292 -5.60411,-12.51636 -12.51636,-12.51636z" fill="#ffa91a"></path><path d="M113.97486,48.94341c0.70413,1.56547 1.09583,3.30092 1.09583,5.12842c0,10.30858 -15.83139,25.18658 -20.92488,29.70628c-0.88956,0.78945 -2.22659,0.78945 -3.11616,0c-0.63291,-0.56169 -1.43177,-1.28328 -2.34552,-2.13656c3.45008,3.71345 6.76713,6.76914 8.63695,8.428c0.88956,0.78945 2.22659,0.78945 3.11616,0c5.09348,-4.5197 20.92488,-19.3977 20.92488,-29.70628c0,-5.08475 -3.03217,-9.46134 -7.38727,-11.41986z" fill="#f79219"></path></g><g fill="#58595b"><path d="M83.80834,120.60291c-0.9077,0 -1.81473,-0.34602 -2.50744,-1.03872l-6.98347,-6.98347c-1.38473,-1.38541 -1.38473,-3.63014 0,-5.01487c1.38541,-1.38406 3.63014,-1.38406 5.01488,0l4.47536,4.47603l8.88219,-8.88219c1.38541,-1.38406 3.63014,-1.38406 5.01488,0c1.38473,1.38541 1.38473,3.63014 0,5.01487l-11.38963,11.38963c-0.69136,0.69203 -1.59906,1.03872 -2.50677,1.03872z"></path></g></g></g></svg>