<svg version="1.1" xmlns="http://www.w3.org/2000/svg" xmlns:xlink="http://www.w3.org/1999/xlink" viewBox="0 0 172 172"><g fill="none" fill-rule="nonzero" stroke="none" stroke-width="1" stroke-linecap="butt" stroke-linejoin="miter" stroke-miterlimit="10" stroke-dasharray="" stroke-dashoffset="0" font-family="none" font-weight="none" font-size="none" text-anchor="none" style="mix-blend-mode: normal"><path d="M0,172v-172h172v172z" fill="none"></path><g><path d="M98.03866,46.354v-5.09483h-24.07731v5.09483c0,5.09012 -1.92895,9.98339 -5.38844,13.717c-13.99247,15.09838 -31.31744,30.75239 -31.31744,53.0835c0,26.92136 21.82384,48.7452 48.7452,48.7452c26.92136,0 48.7452,-21.82384 48.7452,-48.7452c0,-22.33111 -17.32497,-37.98445 -31.31744,-53.0835c-3.46083,-3.73361 -5.38978,-8.62687 -5.38978,-13.717z" fill="#8c3f0a"></path><path d="M103.42777,60.071c-3.46016,-3.73361 -5.38911,-8.62687 -5.38911,-13.717v-5.09483h-6.65291c0.36416,4.49887 2.23264,8.75856 5.32327,12.09308c13.99247,15.09838 31.31744,30.75239 31.31744,53.0835c0,26.92136 -21.82384,48.7452 -48.7452,48.7452c-11.74975,0 -22.52797,-4.15756 -30.94522,-11.08056c8.93997,10.86825 22.49236,17.79931 37.66397,17.79931c26.92136,0 48.7452,-21.82384 48.7452,-48.7452c0,-22.33111 -17.32497,-37.98512 -31.31744,-53.0835z" fill="#7c3108"></path><path d="M103.42777,60.071c-3.46016,-3.73361 -5.38911,-8.62687 -5.38911,-13.717v-5.09483h-3.35937v1.73545c0,5.09012 1.92895,9.98339 5.38911,13.717c13.99247,15.09838 31.31744,30.75239 31.31744,53.0835c0,26.92136 -21.82384,48.7452 -48.7452,48.7452c-12.60572,0 -24.09411,-4.78509 -32.74719,-12.63797c8.9178,9.82684 21.79159,15.99734 36.10656,15.99734c26.92136,0 48.7452,-21.82384 48.7452,-48.7452c0,-22.33111 -17.32497,-37.98512 -31.31744,-53.0835z" fill="#6d2e03"></path><path d="M98.30875,55.728h-26.24545c-2.56455,0 -4.64333,-2.07878 -4.64333,-4.64333v0c0,-2.56455 2.07878,-4.64333 4.64333,-4.64333h26.24545c2.56455,0 4.64333,2.07878 4.64333,4.64333v0c0.00067,2.56455 -2.07878,4.64333 -4.64333,4.64333z" fill="#ffa91a"></path><path d="M99.45161,46.58311c0.09272,0.3655 0.14177,0.74847 0.14177,1.14219c0,2.56455 -2.07878,4.64333 -4.64333,4.64333h-26.24545c-0.39439,0 -0.77669,-0.04905 -1.14219,-0.14177c0.50928,2.01227 2.33141,3.50114 4.50156,3.50114h26.24545c2.56455,0 4.64333,-2.07878 4.64333,-4.64333c0,-2.17016 -1.48955,-3.99228 -3.50114,-4.50156z" fill="#f79219"></path><path d="M98.30875,46.44134h-26.24545c-2.56455,0 -4.64333,-2.07878 -4.64333,-4.64333v0c0,-2.56455 2.07878,-4.64333 4.64333,-4.64333h26.24545c2.56455,0 4.64333,2.07878 4.64333,4.64333v0c0.00067,2.56455 -2.07878,4.64333 -4.64333,4.64333z" fill="#ffa91a"></path><path d="M99.45161,37.29645c0.09272,0.3655 0.14177,0.7478 0.14177,1.14219c0,2.56455 -2.07878,4.64333 -4.64333,4.64333h-26.24545c-0.39439,0 -0.77669,-0.04905 -1.14219,-0.14177c0.50928,2.01227 2.33141,3.50114 4.50156,3.50114h26.24545c2.56455,0 4.64333,-2.07878 4.64333,-4.64333c0,-2.17083 -1.48955,-3.99295 -3.50114,-4.50156z" fill="#f79219"></path><path d="M95.6797,37.15469h-20.98736l-6.70397,-19.82838c-1.80063,-5.32662 4.6655,-9.56011 8.82709,-5.7788l4.70581,4.27581c2.07811,1.88797 5.25137,1.88797 7.32948,0l4.70581,-4.27581c4.16159,-3.78131 10.62839,0.45217 8.82709,5.7788z" fill="#8c3f0a"></path><path d="M95.51106,10.37644c2.64383,0.87209 4.60906,3.70875 3.51323,6.94988l-6.70397,19.82838h3.35938l6.70397,-19.82838c1.53591,-4.54255 -2.9408,-8.28959 -6.87261,-6.94987z" fill="#7c3108"></path><path d="M73.45609,11.54752l4.70581,4.27581c1.4882,1.35248 3.53742,1.73612 5.34409,1.15159c-0.71622,-0.2318 -1.39481,-0.61544 -1.98472,-1.15159l-4.70581,-4.27581c-1.6293,-1.48081 -3.612,-1.73209 -5.31386,-1.17108c0.67927,0.23113 1.34173,0.61409 1.95448,1.17108z" fill="#7c3108"></path><g fill="#995222"><path d="M41.28672,114.50094c-0.73906,0 -1.34375,-0.60469 -1.34375,-1.34375c0,-0.74578 0.60469,-1.34375 1.34375,-1.34375c0.73906,0 1.34375,0.59797 1.34375,1.34375c0,0.73906 -0.60469,1.34375 -1.34375,1.34375zM41.66297,109.14609c-0.06047,0 -0.12766,-0.00672 -0.18812,-0.01344c-0.73234,-0.1075 -1.24969,-0.78609 -1.14219,-1.51844c2.30453,-16.14516 13.98172,-28.51437 25.28266,-40.47375l0.36953,-0.38969c0.49047,-0.52406 1.37734,-0.54422 1.89469,-0.05375c0.26203,0.24859 0.40984,0.57781 0.42328,0.94063c0.00672,0.35609 -0.12094,0.69875 -0.36953,0.96078c-11.21359,11.81828 -22.80344,24.04641 -24.94,39.39203c-0.09406,0.65844 -0.66516,1.15563 -1.33031,1.15563z"></path></g><g><circle cx="128" cy="161" transform="scale(0.67188,0.67188)" r="42.395" fill="#ffffff"></circle><path d="M104.38788,86.42463c4.19989,4.96247 6.73756,11.37753 6.73756,18.38787c0,15.73128 -12.75286,28.48414 -28.48414,28.48414c-7.01034,0 -13.42541,-2.53767 -18.38787,-6.73756c5.22517,6.17319 13.02564,10.09694 21.74725,10.09694c15.73128,0 28.48414,-12.75286 28.48414,-28.48414c-0.00067,-8.72094 -3.92375,-16.52208 -10.09694,-21.74725z" fill="#e6e7e8"></path><path d="M88.81919,125.01981h-5.63837c-4.62653,0 -8.39105,-3.76452 -8.39105,-8.39105c0,-0.74175 0.602,-1.34375 1.34375,-1.34375c0.74175,0 1.34375,0.602 1.34375,1.34375c0,3.14505 2.5585,5.70355 5.70355,5.70355h5.63837c3.14505,0 5.70355,-2.5585 5.70355,-5.70355v-2.81919c0,-3.14505 -2.5585,-5.70355 -5.70355,-5.70355h-5.63837c-4.62653,0 -8.39105,-3.76452 -8.39105,-8.39105c0,-4.62653 3.76452,-8.39105 8.39105,-8.39105h5.63837c4.62653,0 8.39105,3.76452 8.39105,8.39105c0,0.74175 -0.602,1.34375 -1.34375,1.34375c-0.74175,0 -1.34375,-0.602 -1.34375,-1.34375c0,-3.14505 -2.5585,-5.70355 -5.70355,-5.70355h-5.63837c-3.14505,0 -5.70355,2.5585 -5.70355,5.70355c0,3.14505 2.5585,5.70355 5.70355,5.70355h5.63837c4.62653,0 8.39105,3.76452 8.39105,8.39105v2.81919c0,4.62653 -3.76452,8.39105 -8.39105,8.39105z" fill="#ffa91a"></path><path d="M86,127.83833c-0.74175,0 -1.34375,-0.602 -1.34375,-1.34375v-36.64541c0,-0.74175 0.602,-1.34375 1.34375,-1.34375c0.74175,0 1.34375,0.602 1.34375,1.34375v36.64541c0,0.74175 -0.602,1.34375 -1.34375,1.34375z" fill="#ffa91a"></path></g></g></g></svg>