<svg version="1.1" xmlns="http://www.w3.org/2000/svg" xmlns:xlink="http://www.w3.org/1999/xlink" viewBox="0 0 172 172"><g fill="none" fill-rule="nonzero" stroke="none" stroke-width="1" stroke-linecap="butt" stroke-linejoin="miter" stroke-miterlimit="10" stroke-dasharray="" stroke-dashoffset="0" font-family="none" font-weight="none" font-size="none" text-anchor="none" style="mix-blend-mode: normal"><path d="M0,172v-172h172v172z" fill="none"></path><g><path d="M150.5,71.66667l-64.5,-32.422l-64.5,32.422v-18.08867l64.5,-32.25v0l64.5,32.25z" fill="#e53935"></path><path d="M32.25,75.25h107.5v68.08333h-107.5z" fill="#d32f2f"></path><path d="M71.66667,136.16308c0,-7.90483 6.39983,-14.32975 14.33333,-14.32975c7.9335,0 14.33333,6.42492 14.33333,14.32975c0,7.912 -6.39983,14.33692 -14.33333,14.33692c-7.9335,0 -14.33333,-6.42492 -14.33333,-14.33692z" fill="#d32f2f"></path><path d="M78.83333,136.17383c0,-3.94883 3.2035,-7.17383 7.16667,-7.17383c3.96317,0 7.16667,3.225 7.16667,7.17383c0,3.95958 -3.2035,7.1595 -7.16667,7.1595c-3.96317,0 -7.16667,-3.19992 -7.16667,-7.1595z" fill="#4c0808"></path><path d="M129,68.08333l-39.41667,7.16667h-7.16667l-39.41667,-7.16667l-3.58333,12.80683v55.2765h93.16667v-55.2765z" fill="#bcaaa4"></path><g fill="#e5e2e1"><path d="M132.58333,68.08333c0,0 -43,-0.52317 -43,7.16667c0,7.67908 0,60.91667 0,60.91667c0,-7.68625 43,-7.16667 43,-7.16667zM39.41667,68.08333c0,0 43,-0.52317 43,7.16667c0,7.67908 0,60.91667 0,60.91667c0,-7.68625 -43,-7.16667 -43,-7.16667z"></path></g></g></g></svg>