<svg version="1.1" xmlns="http://www.w3.org/2000/svg" xmlns:xlink="http://www.w3.org/1999/xlink" viewBox="0 0 172 172"><defs><radialGradient cx="53.61025" cy="10.71417" r="201.61983" gradientUnits="userSpaceOnUse" id="color-1"><stop offset="0" stopColor="#ffcf54"></stop><stop offset="0.261" stopColor="#fdcb4d"></stop><stop offset="0.639" stopColor="#f7c13a"></stop><stop offset="1" stopColor="#f0b421"></stop></radialGradient><linearGradient x1="40.11542" y1="30.46908" x2="58.89567" y2="103.27525" gradientUnits="userSpaceOnUse" id="color-2"><stop offset="0" stopColor="#33bef0"></stop><stop offset="1" stopColor="#0a85d9"></stop></linearGradient><radialGradient cx="46.58333" cy="57.33333" r="5.375" gradientUnits="userSpaceOnUse" id="color-3"><stop offset="0" stopColor="#000000"></stop><stop offset="1" stopColor="#000000" stopOpacity="0"></stop></radialGradient><radialGradient cx="32.25" cy="57.33333" r="5.375" gradientUnits="userSpaceOnUse" id="color-4"><stop offset="0" stopColor="#000000"></stop><stop offset="1" stopColor="#000000" stopOpacity="0"></stop></radialGradient><radialGradient cx="60.91667" cy="57.33333" r="5.375" gradientUnits="userSpaceOnUse" id="color-5"><stop offset="0" stopColor="#000000"></stop><stop offset="1" stopColor="#000000" stopOpacity="0"></stop></radialGradient></defs><g fill="none" fill-rule="nonzero" stroke="none" stroke-width="1" stroke-linecap="butt" stroke-linejoin="miter" stroke-miterlimit="10" stroke-dasharray="" stroke-dashoffset="0" font-family="none" font-weight="none" font-size="none" text-anchor="none" style="mix-blend-mode: normal"><path d="M0,172v-172h172v172z" fill="none"></path><g><path d="M111.08333,141.18333l9.31667,1.79167c10.39167,2.15 20.06667,-5.375 20.78333,-15.76667l2.15,-23.29167l10.39167,-4.3c3.58333,-1.43333 5.01667,-5.73333 2.86667,-9.31667l-13.25833,-22.21667c-2.15,-27.23333 -17.55833,-53.75 -57.33333,-53.75c-39.41667,0 -60.91667,26.51667 -60.91667,57.33333c0,13.25833 4.65833,28.30833 11.825,37.98333c6.45,8.95833 9.675,19.70833 9.675,30.45833v10.03333c0,3.95958 3.20708,7.16667 7.16667,7.16667h50.16667c3.95958,0 7.16667,-3.20708 7.16667,-7.16667z" fill="url(#color-1)"></path><path d="M17.91667,28.66667h57.33333c3.95958,0 7.16667,3.20708 7.16667,7.16667v39.41667c0,3.95958 -3.20708,7.16667 -7.16667,7.16667h-10.75v14.32975c0,1.59458 -1.93142,2.39725 -3.06017,1.2685l-15.59467,-15.59825h-27.9285c-3.95958,0 -7.16667,-3.20708 -7.16667,-7.16667v-39.41667c0,-3.95958 3.20708,-7.16667 7.16667,-7.16667z" fill="url(#color-2)"></path><circle cx="13" cy="16" transform="scale(3.58333,3.58333)" r="1.5" fill="url(#color-3)" opacity="0.3"></circle><circle cx="13" cy="16" transform="scale(3.58333,3.58333)" r="1" fill="#ffffff"></circle><circle cx="9" cy="16" transform="scale(3.58333,3.58333)" r="1.5" fill="url(#color-4)" opacity="0.3"></circle><circle cx="9" cy="16" transform="scale(3.58333,3.58333)" r="1" fill="#ffffff"></circle><circle cx="17" cy="16" transform="scale(3.58333,3.58333)" r="1.5" fill="url(#color-5)" opacity="0.3"></circle><circle cx="17" cy="16" transform="scale(3.58333,3.58333)" r="1" fill="#ffffff"></circle></g></g></svg>