<svg xmlns="http://www.w3.org/2000/svg" width="55" height="30" viewBox="0 0 173.5 97.439">
    <g transform="translate(622.367 -1623)">
        <path id="Union_1" data-name="Union 1"
            d="M48.72,97.439V42.55l-11.2,34.5H36l.01.036h-10.5L14.054,40.441v57H0V0H14.054V.551h.025L31.538,61.487,48.72.8V0H62.773V97.439Z"
            transform="translate(-511.639 1623)" fill="#13263C" />
        <rect id="Rectangle_53" data-name="Rectangle 53" width="14" height="97" transform="translate(-536.867 1623)"
            fill="#13263C" opacity="0.996" />
        <path id="Union_2" data-name="Union 2"
            d="M71.377,97.438H44.206V92.917a10,10,0,0,1,10-10h6.366L39.726,21.727,18.879,82.916h6.427a10,10,0,0,1,10,10v4.522H0L32.086,0H47.365L79.451,97.438Z"
            transform="translate(-622.367 1623)" fill="#13263C" />
    </g>
</svg>