<svg xmlns="http://www.w3.org/2000/svg" xmlns:xlink="http://www.w3.org/1999/xlink" viewBox="0 0 648.1 374.95"><defs><clipPath id="clip-path" transform="translate(-6.87 -3.19)"><rect x="-390.4" y="-106.15" width="900" height="500" style="fill:none"/></clipPath></defs><g id="OBJECTS"><g style="clip-path:url(#clip-path)"><path d="M331.53,105.71c-32.4-30.37-70.36-38.21-80.39-39.81,6.75-18.23,17.2-45.33,19.8-49.34a39,39,0,0,1,5.07-.29c7.37,0,23.14,1.53,46,11.8,33,14.83,41.78,31.52,43.51,35.6Z" transform="translate(-6.87 -3.19)" style="fill:#fff"/><path d="M276,18.27c7.21,0,22.66,1.51,45.14,11.63,29.82,13.41,39.45,28.41,42,33.48l-31.83,39.41a161,161,0,0,0-54.07-32.14,150.07,150.07,0,0,0-23.38-6.33c7.46-20.07,15.59-40.72,18.32-45.89.88-.08,2.16-.16,3.83-.16m0-4a33.83,33.83,0,0,0-6.07.42c-2.35.78-21.54,52.85-21.54,52.85s45.56,4.64,83.32,41.11l36-44.62s-6-20.25-45-37.78C300,16,284.06,14.27,276,14.27Z" transform="translate(-6.87 -3.19)" style="fill:#a0c6f4"/><path d="M255.09,71.58s44.8,4.52,72.41,29.87" transform="translate(-6.87 -3.19)" style="fill:none;stroke:#2a1e17;stroke-linecap:round;stroke-linejoin:round"/><polygon points="286.9 66.2 303.62 33.7 320.8 67.59 286.9 66.2" style="fill:#a0c6f4"/><polygon points="290.15 65.74 306.87 33.24 324.05 67.13 290.15 65.74" style="fill:none;stroke:#2a1e17;stroke-linecap:round;stroke-linejoin:round"/><path d="M281.34,12.3s50.23,4.52,81.46,41.63" transform="translate(-6.87 -3.19)" style="fill:none;stroke:#2a1e17;stroke-linecap:round;stroke-linejoin:round"/><path d="M307,156.31c-2.76-2-4.57-3.39-4.57-3.39.77-1,12.86-13.89,19.86-24.27C322.29,128.65,308.13,157.14,307,156.31Z" transform="translate(-6.87 -3.19)" style="fill:#2a1e17"/><path d="M135.72,62.44c1.34,2.25,1.94,1.35,5.83,1.05S151,66,152.92,70.82s1.34,5.53.3,6.13-8.53,1.5-8.83,3" transform="translate(-6.87 -3.19)" style="fill:none;stroke:#2a1e17;stroke-linecap:round;stroke-linejoin:round"/><path d="M167.12,315.86" transform="translate(-6.87 -3.19)" style="fill:#eaecec"/><polygon points="229.62 302.71 226.13 296.82 213.77 317.43 217.01 319.93 229.62 302.71" style="fill:#f9865f"/><path d="M154.39,254.8s-6.4-10.41-3.65-15.52l20.43,2.19Z" transform="translate(-6.87 -3.19)" style="fill:#f9865f"/><path d="M154.39,254.8l1.23,2.82-3.78,14.72a5,5,0,0,0,1.59,5.07h0l18.69-27.63a6.41,6.41,0,0,0-1-8.31L167,237.59Z" transform="translate(-6.87 -3.19)"/><path d="M144.39,79.94c5.86-.13,13.27-.51,11.79-5s-7.05-15.57-19.66-12.23c0,0-4.45,3.7,1.12,10.38S144.39,79.94,144.39,79.94Z" transform="translate(-6.87 -3.19)" style="fill:#2a1e33"/><path d="M174,241.72s-10-29.5-1.54-42.45c7-10.69,29.77,6.69,32.9,9l16.31-29.46s-3.77-5.28-13-10.45-47.44-20.64-65.38,7.67c-6.64,10.47-6.74,55.37,6,72.58Z" transform="translate(-6.87 -3.19)" style="fill:#7595ec"/><path d="M174,241.72s-10-29.5-1.54-42.45c7-10.69,29.77,6.69,32.9,9" transform="translate(-6.87 -3.19)" style="fill:none;stroke:#2a1e17;stroke-linecap:round;stroke-linejoin:round"/><path d="M221.69,178.85c-7.42,7.81-29.41,45.85-34.36,64-6.62,24.32-4.13,44.49,32.23,84l17.58-25.6s-12.36-18.76-10-36.45c3.33-25.59,21.54-50.4,30.76-66.14Z" transform="translate(-6.87 -3.19)" style="fill:#7595ec"/><polygon points="217.61 178.96 246.84 201.91 255.58 188.63 217.61 178.96" style="fill:#2a1e17"/><path d="M392.4,158q6.84,1.47,10.42,5.21c2.39,2.5,1.3,3.8.43,4.56s-4.23-.11-7.16-2.71S392.4,158,392.4,158Z" transform="translate(-6.87 -3.19)" style="fill:#ff8a66"/><path d="M302.43,152.92c.77-1,12.86-13.89,19.86-24.27,0,0,21.15,23.7,23.44,24.47.86.28,6,.21,12.48.15,10.89-.12,25.36-.22,28.56,1.38,5.1,2.54,8.15,3.82,9.43,7.39s1.77,5.9-1.28,6.11c-3.56.26-5.86-4.33-5.86-4.33a71.09,71.09,0,0,1-10.45,4.59s-27.11,10.52-45.23,5.43C328.44,172.45,302.43,152.92,302.43,152.92Z" transform="translate(-6.87 -3.19)" style="fill:#f9865f"/><path d="M138.11,58.25c-2.33.89-3.74,2-2.39,4.19s1.94,1.35,5.83,1.05S151,66,152.92,70.82s1.34,5.53.3,6.13-8.53,1.5-8.83,3,3,5.92,9.91,5.62l1.65-.3s14.47,14.13,16.56,16.22,17.49,12.53,26,14.64c6.44,1.62,19.49-.46,27.34-2,3.81-.75,6.39-1.36,6.39-1.36s-5.89-10.61-7.08-26.91c0,0-14.09,2.26-23.45,4.32,0,0-21.84-12.18-32.46-17.57,0,0-9.27-11.36-13.61-12.86S141.25,57.06,138.11,58.25Z" transform="translate(-6.87 -3.19)" style="fill:#f9865f"/><path d="M225.82,114.13c3.81-.75,6.39-1.36,6.39-1.36s-7.12-9-8.32-25.28c0,0-3.22,3.47-2.21,12.7C222.93,111.8,225.82,114.13,225.82,114.13Z" transform="translate(-6.87 -3.19)" style="fill:#2a1e17"/><path d="M223.55,85.66s.2,19.93,5.53,28.24l1.92-.77s-25.16,29.43-33.29,48.66c-1.33,3.15,52.23,37.36,60.14,36.88,0,0,26.09-39.83,35-51.64l9.59,7.44s18.81-19.05,19.83-25.82c0,0-18.18-22.11-33-28.59S261.09,82.5,245.13,82.8C231.3,83.06,223.55,85.66,223.55,85.66Z" transform="translate(-6.87 -3.19)" style="fill:#fff7c9"/><polygon points="295.59 151.28 286 143.84 287.53 139.68 295.59 151.28" style="fill:#2a1e17"/><path d="M317.05,75.68c-1.68,5.23-6.53,20.34-11.94,22.2s-11-.47-11-.47l-5.76,3c-.65,1.92-5.19,3.59-11.07,3.81-4.35.17-7-5.42-5.71-9.46.59-1.85,2.8-11,2.8-11s4.67-17.17,9-20.71,8.32-7.06,19.77-2.43C320.6,67.66,317.05,75.68,317.05,75.68Z" transform="translate(-6.87 -3.19)" style="fill:#f9865f"/><path d="M282.29,76.43c-.77,3.2-4.11,9.62-6.29,8.47s-2.95-4.11-1.41-9.76,2.82-18.47,7.18-20.78,6.29.38,6.29.38-1.92-9.36,3.72-10.64c0,0,1.93-.9,1.16,5.51a8.58,8.58,0,0,1,9.23-5.13c7.06.77,9.5,10.65,9.5,10.65a3.55,3.55,0,0,1,3.72-2.69c3.21,0,8.08,4.74,6.93,10,0,0,8.21-2.57,12.57,4s3.85,13.73-6.67,16.55c-11,3-10.91-9.88-12.57-11.55s-3.47-3.59-9.63-1.28-12.57-4.49-12.57-4.49-1,8.21-2.05,9-3.08,1.8-2.57-2,1.16-3.47.77-4.49-2.12-4.27-5.77-1.41C279.72,69.88,282.29,76.43,282.29,76.43Z" transform="translate(-6.87 -3.19)" style="fill:#2a1e33"/><path d="M284,77.86c-2.44-2-4.14-5.67-2-9.3s5.68-4.11,6.76-2.74,1.49,3.68.48,6.42" transform="translate(-6.87 -3.19)" style="fill:none;stroke:#2a1e33;stroke-linecap:round;stroke-linejoin:round"/><path d="M223.88,323.12l1.23,2.81-3.78,14.72a5,5,0,0,0,1.59,5.07h0l18.69-27.63a6.41,6.41,0,0,0-1-8.31l-4.17-3.88Z" transform="translate(-6.87 -3.19)"/><path d="M288.06,54.74s-1.43-4.65-5.72-5.88" transform="translate(-6.87 -3.19)" style="fill:none;stroke:#2a1e33;stroke-linecap:round;stroke-linejoin:round"/><line x1="190.25" y1="157.19" x2="242.03" y2="84.86" style="fill:none;stroke:#2a1e17;stroke-linecap:round;stroke-linejoin:round"/><path d="M270.25,93.11c-1.87,2.43-2.72,12.87,5.86,13.54a23.19,23.19,0,0,0,14.07-3.09" transform="translate(-6.87 -3.19)" style="fill:none;stroke:#2a1e17;stroke-linecap:round;stroke-linejoin:round"/><path d="M155.61,59.75s5.92,7.83,6.85,10.63" transform="translate(-6.87 -3.19)" style="fill:none;stroke:#2a1e17;stroke-linecap:round;stroke-linejoin:round"/><path d="M377.23,164.78s4,3.25,11.83-1c2.86-1.53.82-5.14-2.79-4.24a16.91,16.91,0,0,1-7.91-.45" transform="translate(-6.87 -3.19)" style="fill:none;stroke:#2a1e17;stroke-linecap:round;stroke-linejoin:round"/><path d="M393.75,158.48s3.8,4.43,3.69,7.06" transform="translate(-6.87 -3.19)" style="fill:none;stroke:#2a1e17;stroke-linecap:round;stroke-linejoin:round"/><path d="M337.92,158s3.43-4.57,7.81-4.88" transform="translate(-6.87 -3.19)" style="fill:none;stroke:#2a1e17;stroke-linecap:round;stroke-linejoin:round"/><path d="M193.26,97.56s2-6.24,8.42-7.38" transform="translate(-6.87 -3.19)" style="fill:none;stroke:#2a1e17;stroke-linecap:round;stroke-linejoin:round"/><path d="M210.65,192.24,203,206.88s-25.24,42.72-16.68,70.31" transform="translate(-6.87 -3.19)" style="fill:none;stroke:#2a1e17;stroke-linecap:round;stroke-linejoin:round"/><path d="M233,241.24l24.84-42.57s32.55-47.21,35.88-53.87l11.49-21.25" transform="translate(-6.87 -3.19)" style="fill:none;stroke:#2a1e17;stroke-linecap:round;stroke-linejoin:round"/><path d="M200.59,164.92s44.16,32.2,57.26,33.75" transform="translate(-6.87 -3.19)" style="fill:none;stroke:#2a1e17;stroke-linecap:round;stroke-linejoin:round"/><path d="M223.55,85.66s0,20.21,5.41,28.49" transform="translate(-6.87 -3.19)" style="fill:none;stroke:#2a1e17;stroke-linecap:round;stroke-linejoin:round"/><path d="M320.87,125.45c-1.39,8.33-19.83,25.82-19.83,25.82" transform="translate(-6.87 -3.19)" style="fill:none;stroke:#2a1e17;stroke-linecap:round;stroke-linejoin:round"/><path d="M316.51,150" transform="translate(-6.87 -3.19)" style="fill:#2a1e17"/><path d="M399.21,209.74" transform="translate(-6.87 -3.19)" style="fill:#f9865f"/><circle cx="176.44" cy="223.36" r="2.62" style="fill:#2a1e17"/><polygon points="422.48 279.71 421.03 269.68 429.58 275.37 425.11 276.34 422.48 279.71" style="fill:none;stroke:#2a1e17;stroke-linecap:round;stroke-linejoin:round"/><path d="M145.61,111.67c-16.21-14.31-43,21.36,55,134.9,56.55,65.5,101,71.37,107,48.58,10.8-40.88-28.2-51.21-13.69-35.2,21.1,23.29,81.12,28.2,125.84,6.48,44.13-21.44,17-54.73,14.27-56.68" transform="translate(-6.87 -3.19)" style="fill:none;stroke:#2a1e17;stroke-linecap:round;stroke-linejoin:round"/><circle cx="413.63" cy="263.03" r="2.62" style="fill:#2a1e17"/><line x1="375.47" y1="284.44" x2="453.2" y2="240.62" style="fill:none;stroke:#2a1e17;stroke-linecap:round;stroke-linejoin:round"/><circle cx="140.35" cy="110.6" r="2.62" style="fill:#2a1e17"/><circle cx="207.22" cy="56.45" r="5.63" style="fill:#ff6d66"/><path d="M112,16.73a2.48,2.48,0,1,0,2.47,2.48A2.48,2.48,0,0,0,112,16.73Z" transform="translate(-6.87 -3.19)" style="fill:#a0c6f4"/><circle cx="436.53" cy="318.25" r="2.47" style="fill:#fad8b0"/><path d="M399.21,209.74l-26.59-12.47a2.77,2.77,0,0,1,.06-5l49.47-21.76a2.72,2.72,0,0,1,2.2,0l34,14.58Z" transform="translate(-6.87 -3.19)" style="fill:#2a1e33"/><path d="M397.56,168.74c.07,11,1.65,41,1.65,41l59.11-24.69L457,143.3a3.6,3.6,0,0,0-5.08-3.16L401,163.34A5.91,5.91,0,0,0,397.56,168.74Z" transform="translate(-6.87 -3.19)" style="fill:#c6cbcb"/><path d="M399.21,209.74l59.11-24.69L457,143.3s-.4-4.56-5.08-3.16" transform="translate(-6.87 -3.19)" style="fill:none;stroke:#2a1e17;stroke-linecap:round;stroke-linejoin:round"/><line x1="420.95" y1="176.54" x2="424.94" y2="167.11" style="fill:none;stroke:#2a1e17;stroke-linecap:round;stroke-linejoin:round"/><line x1="424.94" y1="176.54" x2="428.93" y2="167.11" style="fill:none;stroke:#2a1e17;stroke-linecap:round;stroke-linejoin:round"/><circle cx="115.79" cy="276.97" r="2.47" style="fill:#ff6d66"/><circle cx="324.32" cy="289.23" r="3.44" style="fill:#ff6d66"/><path d="M148.29,316.84a73.5,73.5,0,0,0,31.23,6.69,1.41,1.41,0,0,1,1.4,1.59l-2.16,17.12a1.39,1.39,0,0,1-1.14,1.21c-4.37.83-22,3.25-35.21-7.94a1.4,1.4,0,0,1-.44-1.44l4.36-16.32A1.39,1.39,0,0,1,148.29,316.84Z" transform="translate(-6.87 -3.19)" style="fill:#fff7dc"/><path d="M149.85,321.87s7.62,10.71,10.34,12.25,17.39-7.22,17.39-7.22" transform="translate(-6.87 -3.19)" style="fill:none;stroke:#2a1e17;stroke-linecap:round;stroke-linejoin:round"/><line x1="160.51" y1="329.43" x2="168.52" y2="337.66" style="fill:none;stroke:#2a1e17;stroke-linecap:round;stroke-linejoin:round"/><line x1="149.38" y1="327.84" x2="140.01" y2="330.39" style="fill:none;stroke:#2a1e17;stroke-linecap:round;stroke-linejoin:round"/><rect x="377.72" y="111.05" width="8.95" height="8.95" style="fill:#ffe1c0"/><polygon points="378.93 231.74 381.59 236.35 384.25 240.96 378.93 240.96 373.62 240.96 376.27 236.35 378.93 231.74" style="fill:#a0c6f4"/><path d="M170.75,30.86,171.44,10c-.07-2,.72-2.58,1.93-2.84,5.68-1.26,22.95-5.11,41.73.44,2.43.72,2.35,2,2.31,3.16l-.67,19.94a2.7,2.7,0,0,1-3.29,2.27,145.8,145.8,0,0,0-20.51-1,116.44,116.44,0,0,0-19.68,1.59C171.39,33.88,170.69,32.49,170.75,30.86Z" transform="translate(-6.87 -3.19)" style="fill:none;stroke:#2a1e17;stroke-linecap:round;stroke-linejoin:round"/><path d="M177.07,27.8,188,15l12.1,12C195.93,25.59,177.07,27.8,177.07,27.8Z" transform="translate(-6.87 -3.19)" style="fill:none;stroke:#2a1e17;stroke-linecap:round;stroke-linejoin:round"/><polyline points="187.83 17.74 196.67 10.66 204.12 15.98 204.4 24.29 193.23 23.75" style="fill:none;stroke:#2a1e17;stroke-linecap:round;stroke-linejoin:round"/><ellipse cx="179.69" cy="13.85" rx="1.83" ry="2.15" transform="translate(140.97 188.04) rotate(-84.23)" style="fill:none;stroke:#2a1e17;stroke-linecap:round;stroke-linejoin:round"/><path d="M382.14,302.56l7.34,13.54c.77,1.21.5,1.9-.17,2.52-3.14,2.91-12.68,11.78-26.68,15.23-1.8.45-2.23-.4-2.64-1.15l-7-12.91a2,2,0,0,1,1.24-2.67,106.66,106.66,0,0,0,13.4-7,85.23,85.23,0,0,0,11.91-8.32C380.61,300.88,381.57,301.5,382.14,302.56Z" transform="translate(-6.87 -3.19)" style="fill:none;stroke:#2a1e17;stroke-linecap:round;stroke-linejoin:round"/><path d="M379.26,306.85,377.08,319,365,316C368.11,315.27,379.26,306.85,379.26,306.85Z" transform="translate(-6.87 -3.19)" style="fill:none;stroke:#2a1e17;stroke-linecap:round;stroke-linejoin:round"/><polyline points="363.75 314.58 360.76 322.36 354.06 321.75 350.79 316.57 358.08 312.76" style="fill:none;stroke:#2a1e17;stroke-linecap:round;stroke-linejoin:round"/><ellipse cx="382.79" cy="316.69" rx="1.58" ry="1.34" transform="translate(-103.88 184.6) rotate(-24.56)" style="fill:none;stroke:#2a1e17;stroke-linecap:round;stroke-linejoin:round"/><path d="M346.44,71.38l29.8,22.8a1.48,1.48,0,0,0,2.08-.29l4.5-6.1a1.48,1.48,0,0,0-.27-2l-29.37-23.5a1.48,1.48,0,0,0-2.12.28l-4.91,6.8A1.47,1.47,0,0,0,346.44,71.38Z" transform="translate(-6.87 -3.19)" style="fill:#fff;stroke:#2a1e17;stroke-linecap:round;stroke-linejoin:round"/><polygon points="341.78 67.17 349 72.24 353.27 67.15 346.04 61.12 341.78 67.17" style="fill:#ff6d66"/><polygon points="351.72 74.22 358.96 79.96 362.84 75.19 355.55 69.28 351.72 74.22" style="fill:#fad8b0"/><polygon points="361.39 82.16 368.62 87.23 372.06 82.81 365.22 77.08 361.39 82.16" style="fill:#a0c6f4"/><path d="M405.89,39.5l6.79,57.05a2.26,2.26,0,0,0,2.55,2L426.72,97a2.26,2.26,0,0,0,1.94-2.45l-5.57-57.35a2.26,2.26,0,0,0-2.57-2L407.81,37A2.26,2.26,0,0,0,405.89,39.5Z" transform="translate(-6.87 -3.19)" style="fill:#fff;stroke:#2a1e17;stroke-linecap:round;stroke-linejoin:round"/><polygon points="402.5 37.64 404.65 50.98 414.79 50.23 413.68 35.86 402.5 37.64" style="fill:#ff6d66"/><polygon points="405.38 56.08 406.81 70.15 416.19 69.31 414.89 55.01 405.38 56.08" style="fill:#91ba83"/><polygon points="406.99 75.18 409.14 88.52 417.67 87.58 416.64 73.95 406.99 75.18" style="fill:#fad8b0"/><path d="M391.07,51.64l18.8,55.27a1.8,1.8,0,0,0,2.31,1.11L424,103.78a1.8,1.8,0,0,0,1.11-2.23L407.4,45.74a1.79,1.79,0,0,0-2.33-1.14l-12.92,4.79A1.79,1.79,0,0,0,391.07,51.64Z" transform="translate(-6.87 -3.19)" style="fill:#fff;stroke:#2a1e17;stroke-linecap:round;stroke-linejoin:round"/><polygon points="388.02 49.46 392.9 62.07 402.66 59.22 398.59 45.39 388.02 49.46" style="fill:#a0c6f4"/><polygon points="394.68 66.9 399 80.37 408 77.59 403.76 63.87 394.68 66.9" style="fill:#f9865f"/><polygon points="400.22 85.25 405.1 97.85 413.25 95.15 409.41 82.03 400.22 85.25" style="fill:#fad8b0"/><rect x="142.08" y="118.26" width="105.91" height="23.81" rx="5.48" style="fill:#7595ec"/><rect x="153.36" y="125.27" width="55.38" height="3.62" rx="1.81" style="fill:#fff"/><line x1="153.88" y1="133.59" x2="241.87" y2="133.59" style="fill:none;stroke:#2a1e17;stroke-linecap:round;stroke-linejoin:round"/><path d="M112.61,77h2.22a1.7,1.7,0,0,1,1.7,1.7V82a1.7,1.7,0,0,1-1.7,1.7h-2.22a0,0,0,0,1,0,0V77A0,0,0,0,1,112.61,77Z" transform="translate(89.78 -61.62) rotate(47.59)" style="fill:#91ba83"/><rect x="102.73" y="70.16" width="12.43" height="8.57" rx="0.98" transform="translate(120.59 201.9) rotate(-132.41)" style="fill:none;stroke:#2a1e17;stroke-linecap:round;stroke-linejoin:round"/><rect x="79.13" y="105.4" width="8.87" height="8.1" style="fill:#ff6d66"/><polyline points="79.13 100.19 79.13 105.4 73.83 105.4" style="fill:none;stroke:#2a1e17;stroke-linecap:round;stroke-linejoin:round"/><rect x="371.38" y="13.93" width="8.87" height="8.1" style="fill:#fad8b0"/><polyline points="371.38 8.72 371.38 13.93 366.08 13.93" style="fill:none;stroke:#2a1e17;stroke-linecap:round;stroke-linejoin:round"/><path d="M138.17,67.19c-92-38.12-162.77,35.3,10.59,147.73,13.65,8.85,34.58,12,34.58,12" transform="translate(-6.87 -3.19)" style="fill:none;stroke:#2a1e17;stroke-linecap:round;stroke-linejoin:round"/><circle cx="46.71" cy="66.56" r="2.62" style="fill:#2a1e17"/><polygon points="30.03 52.17 32.9 49.41 39.49 53.19 42.81 63.42 32.68 59.18 30.03 52.17" style="fill:none;stroke:#2a1e17;stroke-linecap:round;stroke-linejoin:round"/><polygon points="32.9 49.41 30.03 52.17 28.42 50.22 31.17 47.58 32.9 49.41" style="fill:none;stroke:#2a1e17;stroke-linecap:round;stroke-linejoin:round"/><line x1="42.81" y1="63.42" x2="36.22" y2="56.19" style="fill:none;stroke:#2a1e17;stroke-linecap:round;stroke-linejoin:round"/><path d="M65.62,250.19,72.77,287a1.48,1.48,0,0,0,1.75,1.16l7.41-1.58a1.48,1.48,0,0,0,1.15-1.69l-6.37-37.07a1.48,1.48,0,0,0-1.77-1.19l-8.19,1.82A1.47,1.47,0,0,0,65.62,250.19Z" transform="translate(-6.87 -3.19)" style="fill:#fff;stroke:#2a1e17;stroke-linecap:round;stroke-linejoin:round"/><polygon points="61.08 247.7 63.12 256.29 69.68 255.32 68.28 246.01 61.08 247.7" style="fill:#ff6d66"/><polygon points="63.84 259.58 65.44 268.67 71.51 267.68 69.98 258.42 63.84 259.58" style="fill:#fad8b0"/><polygon points="65.8 271.94 67.83 280.53 73.34 279.5 72.03 270.68 65.8 271.94" style="fill:#a0c6f4"/><polygon points="263.44 339.31 293.64 331.23 294.8 334.5 264.25 342.43 263.44 339.31" style="fill:none;stroke:#2a1e17;stroke-linecap:round;stroke-linejoin:round"/><line x1="259.24" y1="335.09" x2="260.12" y2="337.83" style="fill:none;stroke:#2a1e17;stroke-linecap:round;stroke-linejoin:round"/><line x1="258.39" y1="336.88" x2="260.94" y2="336" style="fill:none;stroke:#2a1e17;stroke-linecap:round;stroke-linejoin:round"/><line x1="257.78" y1="345.56" x2="259.42" y2="350.74" style="fill:none;stroke:#2a1e17;stroke-linecap:round;stroke-linejoin:round"/><line x1="256.38" y1="348.84" x2="260.92" y2="347.4" style="fill:none;stroke:#2a1e17;stroke-linecap:round;stroke-linejoin:round"/><line x1="250.87" y1="337.02" x2="253.02" y2="343.88" style="fill:none;stroke:#2a1e17;stroke-linecap:round;stroke-linejoin:round"/><line x1="248.74" y1="341.29" x2="255.1" y2="339.26" style="fill:none;stroke:#2a1e17;stroke-linecap:round;stroke-linejoin:round"/><polygon points="43.17 11.15 24.06 2.52 24.85 0.34 44.08 9.19 43.17 11.15" style="fill:none;stroke:#2a1e17;stroke-linecap:round;stroke-linejoin:round;stroke-width:0.6706902384758px"/><line x1="43.56" y1="15.13" x2="44.27" y2="13.33" style="fill:none;stroke:#2a1e17;stroke-linecap:round;stroke-linejoin:round;stroke-width:0.6706902384758px"/><line x1="44.76" y1="14.56" x2="43.06" y2="13.93" style="fill:none;stroke:#2a1e17;stroke-linecap:round;stroke-linejoin:round;stroke-width:0.6706902384758px"/><line x1="48.76" y1="10.31" x2="50.11" y2="6.93" style="fill:none;stroke:#2a1e17;stroke-linecap:round;stroke-linejoin:round;stroke-width:0.6706902384758px"/><line x1="50.88" y1="9.2" x2="47.92" y2="8.02" style="fill:none;stroke:#2a1e17;stroke-linecap:round;stroke-linejoin:round;stroke-width:0.6706902384758px"/><line x1="48.72" y1="17.68" x2="50.52" y2="13.21" style="fill:none;stroke:#2a1e17;stroke-linecap:round;stroke-linejoin:round;stroke-width:0.6706902384758px"/><line x1="51.64" y1="16.37" x2="47.48" y2="14.72" style="fill:none;stroke:#2a1e17;stroke-linecap:round;stroke-linejoin:round;stroke-width:0.6706902384758px"/><path d="M121.48,175.79c-13.47-9.7-26.71-24.78-20.9-40.27,0,0,9.29-6.19,24,1.55l14.71,7.75Z" transform="translate(-6.87 -3.19)" style="fill:#fad8b0"/><path d="M115.37,240.42c-6.06-2.87-31.95-16.35-36.55-39.37-4-19.89,11.23-46.72,18.86-58.57-.49,15.73,15.3,29,22.93,34.53a81.62,81.62,0,0,0,21.23,11.21Z" transform="translate(-6.87 -3.19)" style="fill:#fff"/><path d="M96.52,147.15c1.65,10.46,9.63,21.29,23.21,31.07a81.16,81.16,0,0,0,20,10.81l-25,49.4c-7.63-3.8-30.21-16.66-34.41-37.68-3.49-17.47,8.35-40.64,16.23-53.6m4.06-11.63s-28.65,38.72-23.23,65.82,38.71,41,38.71,41l27.88-55c-8.71-3.19-14.37-5.79-22.46-11.61-13.47-9.7-26.71-24.78-20.9-40.27Z" transform="translate(-6.87 -3.19)" style="fill:#fad8b0"/><path d="M93,158a33.25,33.25,0,0,0,17.22,23.89" transform="translate(-6.87 -3.19)" style="fill:none;stroke:#2a1e17;stroke-linecap:round;stroke-linejoin:round"/><line x1="111.72" y1="184.27" x2="127.27" y2="192.6" style="fill:none;stroke:#2a1e17;stroke-linecap:round;stroke-linejoin:round"/><path d="M95.26,180.24s5,11.11,21.11,18.33" transform="translate(-6.87 -3.19)" style="fill:none;stroke:#2a1e17;stroke-linecap:round;stroke-linejoin:round"/><path d="M82.49,181.91s.55,11.66,8.33,15.55" transform="translate(-6.87 -3.19)" style="fill:none;stroke:#2a1e17;stroke-linecap:round;stroke-linejoin:round"/><path d="M100.26,141.36s-1.44,15,21.22,34.43" transform="translate(-6.87 -3.19)" style="fill:none;stroke:#2a1e17;stroke-linecap:round;stroke-linejoin:round"/><path d="M108.59,144.14s7.23-.56,17.78,7.22" transform="translate(-6.87 -3.19)" style="fill:none;stroke:#2a1e17;stroke-linecap:round;stroke-linejoin:round"/><path d="M74.64,192c-.47,7.43.46,34.36,39.46,51.54" transform="translate(-6.87 -3.19)" style="fill:none;stroke:#2a1e17;stroke-linecap:round;stroke-linejoin:round"/><path d="M323.67,177l-16.54,33.15s11.22,4.13,2.45,17c0,0,20.73,8.6,34.3-13.73S323.67,177,323.67,177Z" transform="translate(-6.87 -3.19)" style="fill:#91ba83"/><path d="M285.81,278.3c-8.37,0-17.21-3.42-26.28-10.17l31-51.26,18.4,11.59.12,0a28.5,28.5,0,0,0,10.05,1.74h0a27.73,27.73,0,0,0,16.24-5.13l-22.62,38.7c-.06.08-9.79,14.48-26.86,14.48Z" transform="translate(-6.87 -3.19)" style="fill:#fff"/><path d="M291,219l17,10.7.21.14.24.1a30.26,30.26,0,0,0,10.62,1.85,29.57,29.57,0,0,0,12.11-2.54L311.42,263c-.65.94-9.81,13.82-25.61,13.82-7.71,0-15.87-3.05-24.28-9.07L291,219m52.91-5.57c-7.66,12.62-17.62,15.36-24.83,15.36a27,27,0,0,1-9.47-1.63L290,214.79l-32.43,53.72c10.86,8.38,20.33,11.29,28.26,11.29,18.12,0,28.15-15.22,28.15-15.22l29.92-51.19Z" transform="translate(-6.87 -3.19)" style="fill:#96bd89"/><path d="M307.13,210.13s12.33,4.36,2.45,17" transform="translate(-6.87 -3.19)" style="fill:none;stroke:#2a1e17;stroke-linecap:round;stroke-linejoin:round"/><path d="M289.6,213.64s16.81,15.39,26.11,15.29,20.21-2.32,26.65-13.42" transform="translate(-6.87 -3.19)" style="fill:none;stroke:#2a1e17;stroke-linecap:round;stroke-linejoin:round"/><path d="M291.66,233.55s11.54,10.24,24.44,6.95" transform="translate(-6.87 -3.19)" style="fill:none;stroke:#2a1e17;stroke-linecap:round;stroke-linejoin:round"/><path d="M303.78,248.86s6.05,4.53,14.51.24" transform="translate(-6.87 -3.19)" style="fill:none;stroke:#2a1e17;stroke-linecap:round;stroke-linejoin:round"/><path d="M275.94,255.17s14,13.89,35.94,4.73" transform="translate(-6.87 -3.19)" style="fill:none;stroke:#2a1e17;stroke-linecap:round;stroke-linejoin:round"/><path d="M283.54,241.62s5.69,4.08,9.26,5.38" transform="translate(-6.87 -3.19)" style="fill:none;stroke:#2a1e17;stroke-linecap:round;stroke-linejoin:round"/><path d="M326.51,186.6s12.75,4.17,14.28,21" transform="translate(-6.87 -3.19)" style="fill:none;stroke:#2a1e17;stroke-linecap:round;stroke-linejoin:round"/><path d="M332.92,207.39s5.87,9.09-4.05,18.17" transform="translate(-6.87 -3.19)" style="fill:none;stroke:#2a1e17;stroke-linecap:round;stroke-linejoin:round"/><path d="M258.73,271.05s32,27.42,55.25-4.64" transform="translate(-6.87 -3.19)" style="fill:none;stroke:#2a1e17;stroke-linecap:round;stroke-linejoin:round"/><line x1="20.78" y1="163.44" x2="28.24" y2="163.44" style="fill:none;stroke:#ff6d66;stroke-linecap:round;stroke-linejoin:round"/><line x1="436.53" y1="73.67" x2="443.99" y2="73.67" style="fill:none;stroke:#ff6d66;stroke-linecap:round;stroke-linejoin:round"/><line x1="236.38" y1="22.47" x2="243.85" y2="22.47" style="fill:none;stroke:#fad8b0;stroke-miterlimit:10"/><line x1="450.78" y1="112.38" x2="458.12" y2="113.7" style="fill:none;stroke:#fad8b0;stroke-miterlimit:10"/><line x1="157.6" y1="298.61" x2="165.07" y2="298.61" style="fill:none;stroke:#a0c6f4;stroke-linecap:round;stroke-linejoin:round"/><circle cx="466.86" cy="205.57" r="2.47" style="fill:#91ba83"/><circle cx="2.47" cy="86.95" r="2.47" style="fill:#91ba83"/><circle cx="495.62" cy="364.81" r="2.62" style="fill:#2a1e17"/><circle cx="645.04" cy="276.27" r="2.62" style="fill:#2a1e17"/><path d="M652.5,278.51S673.1,217.2,581,253.37C485.33,291,447.11,369.83,462.79,376.05s39-7.82,39-7.82" transform="translate(-6.87 -3.19)" style="fill:none;stroke:#2a1e17;stroke-linecap:round;stroke-linejoin:round"/></g></g></svg>