<svg xmlns="http://www.w3.org/2000/svg" xmlns:xlink="http://www.w3.org/1999/xlink" viewBox="0 0 500 271.67"><defs><linearGradient id="Degradado_sin_nombre_19" x1="250" y1="276.5" x2="250" y2="4.83" gradientUnits="userSpaceOnUse"><stop offset="0"/><stop offset="0.05" stop-color="#00020a"/><stop offset="0.51" stop-color="#02165f"/><stop offset="0.84" stop-color="#032295"/><stop offset="1" stop-color="#0327aa"/></linearGradient><linearGradient id="Degradado_sin_nombre_85" x1="910.73" y1="-3986.74" x2="910.73" y2="-4005.05" gradientTransform="matrix(0.64, 0, 0, 0.06, -481.63, 316.25)" gradientUnits="userSpaceOnUse"><stop offset="0" stop-color="#66605d"/><stop offset="0.05" stop-color="#746f6c"/><stop offset="0.21" stop-color="#9e9a99"/><stop offset="0.37" stop-color="#c1bfbd"/><stop offset="0.53" stop-color="#dcdbda"/><stop offset="0.69" stop-color="#f0efef"/><stop offset="0.85" stop-color="#fbfbfb"/><stop offset="1" stop-color="#fff"/></linearGradient><linearGradient id="Degradado_sin_nombre_62" x1="89.64" y1="86.38" x2="89.64" y2="68.05" gradientUnits="userSpaceOnUse"><stop offset="0" stop-color="#00b9ff"/><stop offset="0.23" stop-color="#02baff"/><stop offset="0.35" stop-color="#0abcff"/><stop offset="0.44" stop-color="#17bfff"/><stop offset="0.52" stop-color="#2ac5ff"/><stop offset="0.59" stop-color="#43cbff"/><stop offset="0.66" stop-color="#61d4ff"/><stop offset="0.72" stop-color="#84ddff"/><stop offset="0.76" stop-color="#a0e5ff"/><stop offset="1" stop-color="#fff"/></linearGradient><linearGradient id="Degradado_sin_nombre_64" x1="89.64" y1="77.65" x2="89.64" y2="71.22" gradientUnits="userSpaceOnUse"><stop offset="0" stop-color="#fff"/><stop offset="0.24" stop-color="#a0e5ff"/><stop offset="0.28" stop-color="#84ddff"/><stop offset="0.34" stop-color="#61d4ff"/><stop offset="0.41" stop-color="#43cbff"/><stop offset="0.48" stop-color="#2ac5ff"/><stop offset="0.56" stop-color="#17bfff"/><stop offset="0.65" stop-color="#0abcff"/><stop offset="0.77" stop-color="#02baff"/><stop offset="1" stop-color="#00b9ff"/></linearGradient><linearGradient id="Degradado_sin_nombre_85-2" x1="1010.99" y1="-1932" x2="1010.99" y2="-1950.32" xlink:href="#Degradado_sin_nombre_85"/><linearGradient id="Degradado_sin_nombre_62-2" x1="159.52" y1="206.45" x2="159.52" y2="188.12" xlink:href="#Degradado_sin_nombre_62"/><linearGradient id="Degradado_sin_nombre_64-2" x1="159.52" y1="197.72" x2="159.52" y2="191.29" xlink:href="#Degradado_sin_nombre_64"/><linearGradient id="Degradado_sin_nombre_85-3" x1="1163.62" y1="-3704.95" x2="1163.62" y2="-3723.27" xlink:href="#Degradado_sin_nombre_85"/><linearGradient id="Degradado_sin_nombre_62-3" x1="252.16" y1="103.51" x2="252.16" y2="85.19" xlink:href="#Degradado_sin_nombre_62"/><linearGradient id="Degradado_sin_nombre_64-3" x1="252.16" y1="94.79" x2="252.16" y2="88.35" xlink:href="#Degradado_sin_nombre_64"/><linearGradient id="Degradado_sin_nombre_85-4" x1="1191.52" y1="-2136.65" x2="1191.52" y2="-2154.97" xlink:href="#Degradado_sin_nombre_85"/><linearGradient id="Degradado_sin_nombre_62-4" x1="274.39" y1="195.02" x2="274.39" y2="176.7" xlink:href="#Degradado_sin_nombre_62"/><linearGradient id="Degradado_sin_nombre_64-4" x1="274.39" y1="186.3" x2="274.39" y2="179.86" xlink:href="#Degradado_sin_nombre_64"/><linearGradient id="Degradado_sin_nombre_85-5" x1="1374.57" y1="-3510.64" x2="1374.57" y2="-3528.96" xlink:href="#Degradado_sin_nombre_85"/><linearGradient id="Degradado_sin_nombre_62-5" x1="387.6" y1="115.43" x2="387.6" y2="97.11" xlink:href="#Degradado_sin_nombre_62"/><linearGradient id="Degradado_sin_nombre_64-5" x1="387.6" y1="106.71" x2="387.6" y2="100.27" xlink:href="#Degradado_sin_nombre_64"/></defs><g style="isolation:isolate"><g id="OBJECTS"><path d="M497.36,58.06c-1.31-.73-2.36-.29-3,1.24-.85,0-1-.61-1-1.38s.1-1.42-.63-1.82c-2.57-1.41-4.92-3.33-7.64-4.4a9.85,9.85,0,0,0-4.76-1.06,5.76,5.76,0,0,1-3.09-.31,6.09,6.09,0,0,0-2.14-.29c-.75,0-1,.45-.64,1.22l.69,1.5c-1.71.84-1.7.83-3-.23-.62-.49-1.26-.94-2-1.46a4.06,4.06,0,0,1-4,.33,3.66,3.66,0,0,0-1.75-.24,3.91,3.91,0,0,0-3.09,1.25c-.49-1.18-.49-1.18-1.8-1.7-.24-2.36-.86-3-3.09-3.28a9.94,9.94,0,0,0-4.84.35,8.08,8.08,0,0,1-1.56.27,1.49,1.49,0,0,1-1.73-.81,2.18,2.18,0,0,0-1.67-1.11c-.59-.12-1.17-.34-1.88-.55l.77-1.09a3.73,3.73,0,0,0-4.58.11,6.86,6.86,0,0,1-1.53.77s-.1-.14-.15-.23l.94-.86c-.37-.5-.6-1.08-1-1.29a5.19,5.19,0,0,0-1.69-.35c-.47-.08-.95-.15-1.42-.24-1.08-.21-2.16-.53-3.14.43-.22.22-.64.16-1,.24s-.6.19-1.14.36l1,.63-.1,2.06-1.74-.65-1,1.47c-.3-.17-.47-.26-.63-.37a2.76,2.76,0,0,0-3.36-.38c-.9.54-1.78.09-2.57-.49-.25-.19-.47-.44-.77-.72-.28.46-.52.79-.71,1.15-1.32,2.38-1.76,2.43-3.62.45a2.2,2.2,0,0,1-.2-.23c-1.11-1.33-2.21-2.65-4-2.81,0-.11,0-.21,0-.32l3.11-1.77a1.78,1.78,0,0,0-1.95-1.27,4.81,4.81,0,0,1-3.18-.68c-.77-.5-1.57,0-1.88,1a13,13,0,0,1-.62,1.43l-2.17-.15a27.06,27.06,0,0,1-2.7-.23c-1.34-.25-1.33-.3-1.75-1.83l-4.38-.09a2.6,2.6,0,0,0-2,.8c0,.05-.17,0-.31,0-.16-.39-.32-.81-.52-1.31-1.42.9-2.5-.1-3.7-.88-.17.89.1,1.73-.85,2-1.93.48-3.93.67-5.87,1.9a3.17,3.17,0,0,1,2.38-2.24,13.05,13.05,0,0,0,3.46-1.92c1.11-.72,2.28-1.34,3.41-2,.58-.36,1.13-.77,1.49-1,.17-1.06.29-1.83.41-2.6a8.43,8.43,0,0,1-1.45-.9c-1.73-1.59-3.75-1.4-5.77-1.26a.91.91,0,0,0-.49.3c-.63.62-1.3.39-2.14.25.34-.54.57-.9.91-1.42l-3.57-.3,1.22-1.49a6.84,6.84,0,0,0-.94-.39c-1.37-.35-2.52.4-3.72.94-.91.41-1.63,1-1.24,2.25a2.26,2.26,0,0,1-.59.31c-.69.11-1.33.21-1.48,1.21a.91.91,0,0,1-.82.38c-.85-.4-1.58.07-2.37.21-.58.1-1.38.17-1.74-.18-.9-.87-1.72-.63-2.64-.25a17.68,17.68,0,0,1-2.57.95c-2.33.57-4.71.81-6.76,2.45-1.2,1-1.39,1.29-.39,2.52.64.78.56,1.24-.32,1.71a6.21,6.21,0,0,1-.86.28c0-.37-.05-.64-.08-1.17-1.32.85-2.7.6-4,.82s-2.83,0-4.18.57a13.21,13.21,0,0,1,.46,2,1.4,1.4,0,0,0,.91,1.26,33.4,33.4,0,0,1,2.81,1.87,3,3,0,0,0,0,2.78c.22.4.22.83-.39,1-.19-.37-.39-.76-.62-1.19l-.83.68-.25-.22,1-2.74a3.91,3.91,0,0,1-3.36-1.19,2.75,2.75,0,0,0-.63-.39c-1.47-.8-2-.64-2.74.9-.62.35-1.39-.61-2,.27.3,1,1.07.79,1.68.93,1,.22,1,.27,1,1.44-1.1-.25-2.21-.47-3.3-.76-.88-.23-1.18-.94-.9-2a11.74,11.74,0,0,0,.43-1.51c.07-.57-.19-.91-.63-.76a8.33,8.33,0,0,1-.89,2.21,6.19,6.19,0,0,1-1.88,1.08,9.66,9.66,0,0,0,.47.85,2.64,2.64,0,0,1,.42,3.19,2.48,2.48,0,0,0,.27,2.5c.44.05.95.28,1.37.14a4.58,4.58,0,0,1,2.93.48c.54.18.71.6.95,1.08.4.78-.2,1.26-.37,1.84l1.35.81a1.68,1.68,0,0,1-2.12-.16c.06-.52.14-1,.16-1.46,0-.67-.27-1.27-.81-1.36a7.16,7.16,0,0,0-2.4,0c-.48.09-.62.65-.38,1.17a1.77,1.77,0,0,1-.55,2.37c-.21.17-.26.59-.47.77a9.64,9.64,0,0,1-2.74,2.13c-.87.29-2-.17-2.95-.38-.25,0-.44-.42-.73-.71.3-.13.44-.25.56-.24.75.06,1.58.41,2.2.14s1-1.21,1.57-1.73a4.73,4.73,0,0,0,1.39-2.84c-.34-.49-.87-.93-.92-1.42a15,15,0,0,1,0-3.79,2.78,2.78,0,0,0-.45-2.37c-.24-.31-.45-.65-.64-.94a18,18,0,0,0,1.13-2.16c.48-1.34.18-1.8-1.09-1.78-.81,0-1.63.18-2.44.17-1.32,0-1.39-.09-1.71,1.25a4.28,4.28,0,0,1-2.28,3.11c-.35.17-.57.69-.91,1.12.63.48,1.31.72,1.07,1.53a13.6,13.6,0,0,1-.79,1.74,5.75,5.75,0,0,1,1,.42,2.55,2.55,0,0,1,.7.69c.39.54.73,1.12,1.19,1.85-.13.23-.38.66-.66,1.17a6.59,6.59,0,0,1-.82-.52A18.63,18.63,0,0,0,324.76,51a5.55,5.55,0,0,0-1.85-.21,3.28,3.28,0,0,0-1.12.52c.23.77.61,1.39.49,1.84s-.79.57-1.2.88c-.16.11-.26.44-.39.44s-.61-.06-.69-.24c-.6-1.25-.72-1.39-1.64-.66a2.57,2.57,0,0,1-2.16.48c-.57-.06-1.41,0-1.73.37-.74,1-1.57.63-2.43.74l.48-1.75c-1.15-.4-1,1-1.7,1a3.67,3.67,0,0,0-1.59.08c-1.31.52-2.57,1.17-3.87,1.73a1.87,1.87,0,0,0-1.08,1.18,1.88,1.88,0,0,1-3.13.87c-.38-.31-.78-.59-1.39-1.07a13.24,13.24,0,0,1,1.35-.83,9.8,9.8,0,0,1,1.21-.28c-1-2.47-1.07-1.64-3.69-1.7a2.21,2.21,0,0,1-.06,2.89c1.05,1.39,1.05,1.75,0,3.24a2.3,2.3,0,0,0-3.46.17c-.61.64-1.31.39-1.87-.43l.7-.59c.52-.41,1.16-.86,1-1.61s-.25-2-1.31-2.26a8.6,8.6,0,0,1-1.36-.51,4.67,4.67,0,0,1-1.37-.79,7.46,7.46,0,0,0-5.53-2.29,3.41,3.41,0,0,1-3.16-1.64c-1.7.5-2.88.26-3.6-.75.62-.4,1.69.25,2-1L278,47.63,277,49V46.89l-1.7,1.79-.57-1-1.53,1.69-.21-.17.56-1.75a7.52,7.52,0,0,0-3.34,2.46c-1-1.15-1.64.5-2.62.51s-1.66,1-2.58,1.69c-1.51-.54-2.65.59-3.2,1.92s-1.86,1.46-2.29,2.68c-1.06.12-1.38,1.31-2.14,1.88-.39.3-1,.62-.79,1.5.06.2-.36.57-.56.87s-.61.67-.6,1a1.54,1.54,0,0,1-.64,1.28c-.58.58-1,1.39-1.84,1.62a1.62,1.62,0,0,0-.93,1c-.44,1.46-2,1.36-2.63,2.53-1.13-.28-1.62.72-2.29,1.4-.34.34-.87.46-1.16.84a3.92,3.92,0,0,0-.19,4.24,4.19,4.19,0,0,1,.11,3.73,8.33,8.33,0,0,0,1.7,1.07,2.28,2.28,0,0,0,1.78,0,44.87,44.87,0,0,0,3.57-2.83c.29.57.54,1,.78,1.52a4.05,4.05,0,0,1,.68,1.49,5.27,5.27,0,0,0,1.09,2.72c.13.22.34.54.28.7-.39,1,.27,1.69.56,2.57l1.46-.26c.09-2,1.62-1.11,2.48-1.71a10.07,10.07,0,0,0,1-5.27,5.65,5.65,0,0,0,3.24-3,8.66,8.66,0,0,0-1.7-1.51,1.66,1.66,0,0,1-.86-1.84,5.89,5.89,0,0,1,.68-2.47A6.15,6.15,0,0,1,265.48,67a4.14,4.14,0,0,0,1.73-1.58c.49-.64.08-1.2.26-1.78A8.74,8.74,0,0,1,269.3,61c.4.16.84.53,1.08.4,1.05-.51,1.71.37,2.57.69,0,.44.07.86.09,1.13-.84.88-1.48,1.57-2.15,2.25a23,23,0,0,1-2.4,2.34,1.77,1.77,0,0,0-.92,1.93c.09.66.19,1.33.3,2A21.16,21.16,0,0,0,269.79,75c.49.8,1,.61,1.64.45l5.79-1.53,1.21,1.49c-1.06,1-2,1.63-3.5,1.28a6.86,6.86,0,0,0-3.37.3c-1.22.33-1.31,1.4-.32,2.32a1.75,1.75,0,0,0,.54.28c0,.71,0,1.29,0,1.86-.08.81-.82,1.14-1.38.62-.22-.2-.34-.52-.54-.74-.59-.64-1.26-.71-1.78-.06a4.41,4.41,0,0,0-.8,3.56c.18,1.13,1,1.35,1.81,1.52a1.29,1.29,0,0,1,.45.27c.09.91-.37,1-1,1.06-1.19.08-2.37.25-3.55.34-.46,0-1,.13-1.27-.48s-.71-.52-1.13-.37a17,17,0,0,0-4.84,2.21c-1.13-1.72-2.57-1.6-4-.55l-2.49-2.28c.09-1.53,1.22-2,1.76-2.92a5.36,5.36,0,0,1-.75-1.27c-.13-.48.7-1,0-1.62l-2.6,1.54a1.31,1.31,0,0,1,0,.56,3.82,3.82,0,0,0,.3,3.23,5.76,5.76,0,0,1,.37,2.19c0,.61-.58,1.43-1,1.25-1.13-.49-2,.5-3,.58a2.9,2.9,0,0,0-1.88,1.61,5,5,0,0,1-3.32,3.1,1.34,1.34,0,0,0-.83.91c0,.85-.47,1.08-1,1.32a1.53,1.53,0,0,0-.73.46c-.59,1-1.33.56-2.05.34-.25-.08-.49-.18-.8-.3.1.65.17,1.14.27,1.83-.61.05-1.2.3-1.59.09-.91-.49-1.63,0-2.4.19-.18,1.17.43,1.61,1.2,1.69,1.74.19,2.1,2.16,3.27,3.07a.41.41,0,0,1,.07.3,14.47,14.47,0,0,1-.75,5.12,12,12,0,0,0-1.82-.33,39.17,39.17,0,0,1-5.53-.18c-1.25-.23-2,.47-3,.86.26.56.66,1,.65,1.47a40.9,40.9,0,0,1-.35,4.43,10.68,10.68,0,0,1-.68,2c1.41.59.67,2,1,3.11a6.9,6.9,0,0,0,1.58,0,1.41,1.41,0,0,1,1.79.87,7.59,7.59,0,0,0,.87,1.21,4.54,4.54,0,0,1,3.93-1.4c.36,0,1,0,1.07-.27.47-1.12,1.8-1.2,2.18-2.4.11-.36.52-.6.7-.79-.12-.62-.43-1.2-.3-1.61a4.78,4.78,0,0,1,2.26-3l2.37-1.16c.09-1-.27-1.79.41-2.48a1.94,1.94,0,0,1,2.53-.14,1.9,1.9,0,0,0,2.27-.32c.61-.5,1.24-1,1.89-1.41a1.7,1.7,0,0,1,2.82.88c.85,2.23,2.52,3.39,4.31,4.42a12.78,12.78,0,0,1,3.21,2.71,1.88,1.88,0,0,1,.28,2.35,2.92,2.92,0,0,0-.26.82l.28.2c.57-.76,1.13-1.51,1.68-2.26-.79-1.22-.79-1.22-.1-2.28l2,1c-.11-.36-.11-.68-.24-.78-.71-.53-1.47-1-2.18-1.51a17.41,17.41,0,0,1-1.37-1.27c-1.23.3-2-.9-2.51-2.06a3.73,3.73,0,0,0-1.41-1.7,1.41,1.41,0,0,1-.7-1.85,3.43,3.43,0,0,0,0-1.14l1.8-.58c.08.66.14,1.15.23,1.86l1-1c.26.55.46,1,.67,1.45.37.81.75,1.76,1.6,2,1.61.35,2.62,1.7,3.89,2.62a1.2,1.2,0,0,1,.61,1.33,4,4,0,0,0,1,3.48c.8,1,1.39,2.43,3,2.15.34-.06.72.28,1.09.37a4.53,4.53,0,0,0,.91.09l.09-.22c-.48-.4-1-.79-1.26-1-.18-1.07-.32-1.92-.47-2.88l1.13.17,1.43-1.25c.06.08.13.15.19.22l-.41,1.09c1.23,1,1.27,1.19.6,2.67.25.21.67.39.73.66a3,3,0,0,0,2.41,2.2,2.51,2.51,0,0,1,.71.49,1.18,1.18,0,0,0,2-.32.73.73,0,0,1,1-.39,2.53,2.53,0,0,1,1,.59c1,1.17,2.06.82,3.14.15a2.48,2.48,0,0,1,1-.4,11.17,11.17,0,0,1,1.52,0,11.81,11.81,0,0,0-.1,2.14,4.73,4.73,0,0,1-.41,2.45c-.72,1.89-1.36,3.81-2.06,5.8-.73-.06-1.68.18-2.19-.24-1.25-1-2.29-.45-3.33.17a1.65,1.65,0,0,1-1.48.21,13.41,13.41,0,0,0-3.19-.87c-1.46-.08-2.66-1-4.07-1.23-.23,0-.41-.41-.63-.59a2.3,2.3,0,0,0-2.83-.19,2,2,0,0,0-1.24,2.37,1.26,1.26,0,0,1-1.9,1.37,8.85,8.85,0,0,0-3.35-1.36,1.52,1.52,0,0,1-1-.77c-.74-1.66-2-1.92-3.47-1.88-1.71,0-2.76-1.34-4.27-2.18.52-.61.88-1,1.22-1.45s.55-.94.15-1.29c-.87-.75-.38-1.46,0-2.18-.41-.1-.82-.06-1-.27-.63-.83-1.21-.56-1.9-.13a2,2,0,0,1-1.35.29,5.52,5.52,0,0,0-3,.11,3.84,3.84,0,0,1-1.27,0c-.48,0-1-.22-1.43,0-1.77.69-3.9,0-5.4,1.72a2.61,2.61,0,0,0-2.13,1.1c-.77.85-1.62-.32-2.45,0a2.82,2.82,0,0,1-.71.09,2,2,0,0,1-2-.79c-.13-.18-.38-.26-.67-.44a7.33,7.33,0,0,0-.57,1.17,4.41,4.41,0,0,1-2.63,3.15c-1.54.65-1.85,2.43-2.41,3.94a.7.7,0,0,0,0,.47c.47,1.17-.12,1.8-.9,2.38a13,13,0,0,1-1.16.95c-1.89,1.07-2.87,3.19-4.35,4.72-.35,1.75-1.41,3.06-2.21,4.53-.07.14-.1.3-.17.44a4.39,4.39,0,0,1-.57,1.1,2.62,2.62,0,0,0-.6,2.18c.88.43,1.08,1.28.89,2.35a1.84,1.84,0,0,0,.17.91,3.62,3.62,0,0,1,.1,2.51c-.41,1.41-.9,2.8-1.33,4.12a6.27,6.27,0,0,1,.53,2.17,2.66,2.66,0,0,0,1,2.63,33.35,33.35,0,0,1,3,2.91,8.32,8.32,0,0,1,1,2.05c.14.32.18.74.39,1a25.37,25.37,0,0,0,1.87,1.73c1,.88,2,1.81,3.1,2.59s2.36,1.58,4,.68a5.52,5.52,0,0,1,5.65-.13.67.67,0,0,0,.55.07c1.38-.55,2.76-1.14,4.14-1.72a7.94,7.94,0,0,1,1.45-.54c.61-.13,1.24-.1,1.86-.18a2.39,2.39,0,0,1,2.74,1.88c.42,1.23.85,1.51,2,1.3l2.6-.5a2.45,2.45,0,0,1,.27.24c.09.13.13.32.24.4,1.53,1,1.22,2.54.9,4.06,0,.25-.21.52-.17.75a5.63,5.63,0,0,1-.88,3.4,24,24,0,0,0,1.65,2.72c1.36,1.7,2.9,3.22,3.4,5.61a16.85,16.85,0,0,0,1.13,2.76,1.08,1.08,0,0,1,0,.76c-.68.85-.23,1.55.13,2.32a3.65,3.65,0,0,1-.54,4.1,15.78,15.78,0,0,0-1.65,4.72,7.85,7.85,0,0,0,.05,3.94c1.08,2.92,2.21,5.82,3.24,8.76.39,1.14.52,2.39.85,3.55.38,1.31.34,2.82,1.37,3.81a8.34,8.34,0,0,1,1.92,3.53,13.47,13.47,0,0,0,.89,2,2.61,2.61,0,0,1,.16,2.9,4.17,4.17,0,0,0,2.35,3.15c.57-.2,1.1-.4,1.64-.57s1-.25,1.47-.39a3.53,3.53,0,0,1,.95-.28,10.74,10.74,0,0,0,5.12-.5,5.3,5.3,0,0,0,1.42-.67,22.1,22.1,0,0,0,5.2-6.17,6.31,6.31,0,0,1,.88-1.26,5.37,5.37,0,0,0,1.35-5.41,3.41,3.41,0,0,1,2-1.4,3.43,3.43,0,0,0,1.82-4.37c-.32-1-.68-2.07-.95-3.13a1.41,1.41,0,0,1,.57-1.52c.58-.47,1.09-1.05,1.67-1.53.76-.64,1.53-1.26,2.34-1.82.48-.34,1-.54,1.55-.85a4.74,4.74,0,0,0,2-4.37c-.12-1.63-.09-3.28-.18-4.92a1.75,1.75,0,0,0-.43-1.1,4,4,0,0,1-1.11-3c-.07-1.08.18-2.2-.56-3.17a1.71,1.71,0,0,1,0-1.22,12.22,12.22,0,0,1,1-2.25,11.79,11.79,0,0,1,1.66-2.74,26,26,0,0,0,2.33-2.77c1.17-1.49,2.28-3,4-3.84a2.25,2.25,0,0,0,.78-.7c1.62-2,3.4-3.94,4.41-6.51a10.56,10.56,0,0,1,1.15-2.39c1.23-1.68,1.43-3.64,1.63-5.95a11.31,11.31,0,0,0-1.29.4c-.44.18-.91.69-1.29.6-1.76-.4-3.26,1.18-5,.75-.12,0-.26.12-.4.18-1.43.63-1.48.62-2.45-.59l-.62-.8c.41-1.82.42-1.8,1.92-2.33.45-.16.86-.43,1.3-.63a7.93,7.93,0,0,1,1.05-.42c1.23-.38,2.62-.46,3.66-1.18a21.53,21.53,0,0,1,3.68-1.73,2.38,2.38,0,0,0,1.51-1.36,1.75,1.75,0,0,1,1-.88,10,10,0,0,1,2.22-.55c.45-.07.91,0,1-.62a1,1,0,0,1,1.13-1c.25,0,.65-.18.72-.39.31-1,1.07-1.11,1.83-1.29.05-.76.1-1.44.15-2.09,1.57-.49,1.92-2.11,2.83-3.14a7.09,7.09,0,0,0-3.06-2.52,2.82,2.82,0,0,1-2-2.62c0-.19-.19-.36-.26-.48a2.67,2.67,0,0,0-1.94,1.52,1.79,1.79,0,0,1-1.89,1.14,19.11,19.11,0,0,0-2,0A2.48,2.48,0,0,1,307,141a5.28,5.28,0,0,1-.78-3.08,5.24,5.24,0,0,1-2.6-5.06l.4-.18c1.58-.65,2.7-.19,3.56,1.5.5,1,.89,2,2.12,2.13.19,0,.36.32.56.47a11.49,11.49,0,0,0,1.43,1,12.08,12.08,0,0,0,1.63.58,9.32,9.32,0,0,1,1-.84c1.12-.68,1.79-.41,2.34.93a2.18,2.18,0,0,0,1.56,1.47c1.67.41,3.45.16,5,1.12a1,1,0,0,0,.56,0c1.23,0,2.46,0,3.69-.14a19,19,0,0,0,2.05-.36,8.92,8.92,0,0,0,5,4.77L333,146c.58.62,1,1.08,1.48,1.56a1.59,1.59,0,0,0,2,.47,1.54,1.54,0,0,0,1.16-1.74c0-.06.2-.15.36-.25a8.27,8.27,0,0,1,.5,1.67c.06.6-.21,1.24-.11,1.82a29.21,29.21,0,0,0,1.41,6.88c.61,1.45,1.12,2.95,1.68,4.43.15.39.31.78.47,1.17.52,1.27,1,2.54,1.55,3.79a7.22,7.22,0,0,0,.91,1.61c.16.2.72.31.86.16a17.49,17.49,0,0,0,1.73-2c.37-.49.66-1.06,1.11-1.77a5.2,5.2,0,0,1,.15-1.78,8.56,8.56,0,0,0,.38-3.92,4.16,4.16,0,0,1,0-1.11,1.51,1.51,0,0,1,.48-.93,8.23,8.23,0,0,0,3.14-2.47c.05-.08.17-.1.24-.17.89-.89,1.76-1.79,2.67-2.66a4.36,4.36,0,0,1,1.3-.94,2.5,2.5,0,0,0,1.54-1.76c.25-.85,1.15-1.66,1.87-1.51a9.15,9.15,0,0,0,3.26-.2c.56-.08,1.13-.08,1.44-.1a19.06,19.06,0,0,0,2.09,2.88,5.13,5.13,0,0,1,1.79,5.17c-.07.34-.09.7-.13,1,1.77,1,2.83-.15,3.88-1.49a4.79,4.79,0,0,1,.95,2.49,6.09,6.09,0,0,0,.53,2.31,11.07,11.07,0,0,1,.28,7.59,1.26,1.26,0,0,0,.4,1.49,6.67,6.67,0,0,1,2.47,4.16,6.4,6.4,0,0,0,.41,1.7,8.1,8.1,0,0,0,1.26,2.47,12.47,12.47,0,0,0,2.69,1.82c.16.1.44,0,.74-.06-.05-.29,0-.54-.12-.68a5.25,5.25,0,0,1-.76-3.8,1.32,1.32,0,0,0-.14-.76,6.55,6.55,0,0,0-3-2.84,1.6,1.6,0,0,1-1.11-1.47,2.85,2.85,0,0,0-1.83-2.57c.49-1.95,1-3.83,1.46-5.7a.66.66,0,0,1,.53-.4,1,1,0,0,1,.65.43,2.31,2.31,0,0,1,.17.77,2.53,2.53,0,0,1,2.62,1.88,1.41,1.41,0,0,0,.55.66c.73.55,1.49,1.05,2.19,1.54,0,.77-.07,1.43-.1,2.09,1-.93,2.48-.87,2.82-2.42,0-.11.21-.28.3-.26,1,.21,1.34-.93,2.13-1.17.31-.1.59-.69.69-1.11a7,7,0,0,0-.17-4.23,5.72,5.72,0,0,0-1.27-2.44,15.39,15.39,0,0,1-3-3.72,1.48,1.48,0,0,1,.18-1.89,15.72,15.72,0,0,1,2.38-2.44,2.92,2.92,0,0,1,1.61-.34,5,5,0,0,1,1.08.18c.23.55-.24,1.46.7,1.65.17-1.33.17-1.33,1.31-1.66A2.93,2.93,0,0,0,392,147c.9-.32,2-.38,2.64-1a2.58,2.58,0,0,1,2.09-.79,4.24,4.24,0,0,0,2.18-.58c1.29-.83,2.28-2.15,3.57-3,.15-.09.2-.36.34-.51.6-.63.53-1.57.85-2.3a6.75,6.75,0,0,1,1.59-2.19,4.22,4.22,0,0,0,1.25-3.1l-1.14-1,1.07-.74c-.17-1,0-2.12-1-2.65a.38.38,0,0,1-.1-.12,6.32,6.32,0,0,0-2.58-4c.43-.51.77-.87,1.07-1.27.83-1.11,1.7-2.1,3.11-2.2.17,0,.32-.37.52-.61-.24-.16-.35-.28-.48-.31-1.22-.28-2.46-.88-3.56.4-.1.11-.43,0-.64,0-.1-.55-.18-1-.25-1.42-1.93-.5-2.05-.72-1.21-2.2.82.4,1.42.1,1.89-.77.16-.29.52-.45.79-.66a11.09,11.09,0,0,0,1.14-.91c.8-.79.87-.8,1.85.2,0,.82-1.65,1.22-.41,2.42,1.51-1.12,3.11-1.83,4.81-.63a7.1,7.1,0,0,1,0,1.31c-.36,1.56-.38,1.55.94,1.79a3.3,3.3,0,0,1,.56.07c.53.2.59.59.31,1.26a1.54,1.54,0,0,0-.06.85,2.71,2.71,0,0,1-.06,1.86,1.28,1.28,0,0,0,.2,1.42c1.12-.34,2.06-.67,3-.91a1.23,1.23,0,0,0,1-1.36c-.09-1.66-.24-3.33-1.54-4.49-.34-.29-.6-.68-.92-1a.83.83,0,0,1,0-1.26,3.78,3.78,0,0,1,.82-.58c1-.64,2.11-1,2.12-2.69a1.82,1.82,0,0,1,.63-1c.49-.5,1.06-.91,1.58-1.39a1.21,1.21,0,0,1,1.7-.15c1.17.81,2.25.34,3.16-.54a24.46,24.46,0,0,0,2.37-2.78c1.1-1.47,2.15-3,3.21-4.52a10.93,10.93,0,0,1,1.17-1.8c1.22-1.15,1.31-2.76,1.32-4.26a6,6,0,0,1,.59-2.9,3.52,3.52,0,0,0,.33-2.27,3.16,3.16,0,0,0-3.56-3,3.46,3.46,0,0,1-.26.66c-.35.61-1.12.76-1.3.29-.35-.85-1-.14-1.32-.54-.05-.41-.1-.82-.14-1.17-.63-.37-1.43.28-2-.73.39-.38.76-.76,1.15-1.12l2.14-1.9Q430.24,82.57,432,81c.25-.23.46-.54.71-.78.92-.92,1.81-1.88,2.78-2.72a2.53,2.53,0,0,1,1.35-.45,11.78,11.78,0,0,1,2.3,0,5,5,0,0,1,1.28.5c1.17-.86,2.46-.19,3.76-.26.35-.39.63-1.2,1.3-.88a8.08,8.08,0,0,0,2.51.4c.19,0,.37.26.9.64l-1.24.44c.11.16.21.33.31.5,1.52-.64,3.2-.24,4.91-1l-1.09-.71a3.18,3.18,0,0,1,1.51-2.14,12.17,12.17,0,0,0,1-1c.61-.63,1.13-1.54,1.85-1.85a2.93,2.93,0,0,1,2.91-.09c.27.18.71,0,.85,0l.38,2.66c1.16-.91,2.1-1.62,3-2.38a3.13,3.13,0,0,0,.82-1c.67-1.43,1.26-1.69,2.83-1l-1.2.53a7.18,7.18,0,0,0-.34,1.45,2.55,2.55,0,0,1-1.84,2.51,3.11,3.11,0,0,0-1,.66c-.61.59-1.19,1.22-1.78,1.83-.39.39-.79.77-1.19,1.15a20.22,20.22,0,0,1-1.82,1.77c-.95.74-2.19,1.09-2.52,2.58a.45.45,0,0,1-.19.24c-1.39,1-1.42,2.68-1.22,4.19.35,2.58,1,5.12,1.48,7.68a1.93,1.93,0,0,0,.28.46,4.45,4.45,0,0,0,2.36-3,2,2,0,0,1,.77-1,4,4,0,0,1,1-.46c-.1-1.94.31-2.41,2.07-2.57a3.84,3.84,0,0,0,1-.39c-.76-1.79-.73-2,.51-3.39l.83.56c.44-.61.49-1.09-.07-1.54a1,1,0,0,1-.18-1.39c.14-.24.24-.51.4-.84l-1.83-.49c.32-.62.55-1.1.82-1.56s.94-1.1,1-1.71c.15-1.17.83-1.4,1.57-1.67l.67.6,1.72-1.43c.18.45.31.75.45,1.11a4.39,4.39,0,0,0,.55-.36,5.24,5.24,0,0,1,3-1c1-.12,1,1.06,1.58,1.23.77-.62,1.48-1.21,2.21-1.77.23-.19.55-.26.73-.48a6.6,6.6,0,0,1,2.64-1.73c1.45-.68,2.84-1.48,4.35-2.28.58.17,1.31.44,2.05.59s1.07-.44.79-1.17c-.09-.24-.25-.46-.35-.7a8.8,8.8,0,0,0-.76-1.82c-.4-.51-1.12-.7-1.51-1.22s-.52-.51-.95-.39c-.14,0-.35-.16-.72-.35.76-.41,1.3-.77,1.89-.24,1.07.94,2,.14,2.92-.32.75-.38.37-1.23.42-1.88a3.51,3.51,0,0,1,0-.8,4.87,4.87,0,0,1,.67-.85c.15.83.25,1.33.34,1.82a2.73,2.73,0,0,0,.47.15c1.43.13,3-.29,4,1.45,0,0,.09.05.13.07l3.25,1.27a8.47,8.47,0,0,0,.62-1.28,1.41,1.41,0,0,1,1.39-1.11c1.13-.08,1.12-.14,1.35-1.4.07-.41.13-.83.22-1.39C499.11,59.12,498.25,58.56,497.36,58.06ZM279.9,112.4a2.08,2.08,0,0,1-2,.51,5.48,5.48,0,0,0-1.57,0c-.13.42-.15.94-.39,1.13a3.23,3.23,0,0,1-1.24.31c.22-1.9.22-1.9,1.59-2.07a16.87,16.87,0,0,1,.47-1.77,25.45,25.45,0,0,1,1.1-2.57,5.93,5.93,0,0,1,.79-1.09c.12-.16.42-.31.4-.41-.2-1,.64-1.31,1-1.9a2.32,2.32,0,0,1,2.12-1.11c.27.36.48.9.83,1.06a4.63,4.63,0,0,0,1.69.05l-1.09,1.08c.37.58.74,1.18,1.24,2,1-.4,2.21-.86,3.41-1.31,0-.1,0-.2,0-.3a4.4,4.4,0,0,1-1.56-.19,6.25,6.25,0,0,1-1.29-1.32c2.17-.87,4.18-2,6.57-1.58l-1.4,1,.34.76-1.6,2.11a7.92,7.92,0,0,0,.78.75c1.12.81,2.25,1.59,3.38,2.38a2.45,2.45,0,0,0,.73.47c1.17.25,1.31,1.18,1.35,2.42-1.13-.32-2.11.26-3.07.33-2.18.14-4.37.4-6.51-.9A5.22,5.22,0,0,0,279.9,112.4ZM296.76,160a1.17,1.17,0,0,1-.52.83c-.21.07-.59-.2-.8-.43a11.09,11.09,0,0,0-3.28-3,1.58,1.58,0,0,1-.9-1.11c-.17-.61-.38-1.22-.54-1.83a3.31,3.31,0,0,0-1.45-2.28c-.65-.36-.72-1-.83-1.74a30.51,30.51,0,0,0-.73-3.57,5.58,5.58,0,0,0-1-1.37c-.23-.33-.6-.66-.63-1-.15-1.73-1.26-2.93-1.83-4.43s-1.42-2.9-2.11-4.36c-.25-.53-.42-1.11-.63-1.67l.28-.15,2,3.15.87-1.08a2.57,2.57,0,0,1,.54.49,25.05,25.05,0,0,1,2.18,3.57,9.44,9.44,0,0,0,2.09,3.21,4,4,0,0,1,1.16,3,2.8,2.8,0,0,0,1.35,2.64,4.69,4.69,0,0,1,1.69,2.3,10.86,10.86,0,0,0,1,1.67c.67,1,1.42,1.94,1.24,3.44a8.08,8.08,0,0,0,.56,2.46A3.84,3.84,0,0,1,296.76,160Zm.91-45.13c-.07,0-.36-.27-.34-.36a1.25,1.25,0,0,1,.37-.56s.27.2.52.4C298,114.59,297.85,114.8,297.67,114.88Zm11.51,6.52a3.06,3.06,0,0,1-2.63-1,2.56,2.56,0,0,0-1.13-.56c-.42-.15-.78-.42-.59-.9.51-1.33,1.09-2.63,1.61-3.85l-3-4.28a1,1,0,0,1-.21-.59,3,3,0,0,0-1.07-2.57,4.49,4.49,0,0,1,2.48-2.77,30.38,30.38,0,0,0,3-1.75,1.72,1.72,0,0,1,.95-.25c.74.07,1.47.24,2.28.38a2.76,2.76,0,0,1-.41,2.68,5.24,5.24,0,0,1-.93.09,1.34,1.34,0,0,0-1.2.7,9.35,9.35,0,0,1-1.09,1.09c1.14.86,1.39,2.94,2.9,3.15.19,1,.35,1.78.5,2.57a2.71,2.71,0,0,1,.08.93,1.52,1.52,0,0,0,.56,1.7,2.79,2.79,0,0,1,.82,2.55,9.89,9.89,0,0,0,.1,2.24A23,23,0,0,1,309.18,121.4ZM184.89,187.34a7.69,7.69,0,0,0-1.27-1.05,5.72,5.72,0,0,0-1.61-.52,25.39,25.39,0,0,1-2.79-.49,2.1,2.1,0,0,0-1.8.06c-.29.15-.59.27-.81.38-.18-.62-.19-1.38-.5-1.6a18.05,18.05,0,0,0-3.19-1.69,1.13,1.13,0,0,0-1.58.66c-.47,1.08-1.19,1.46-2.23,1a5.75,5.75,0,0,0-.93-.23h0c-.37-1.14-1.23-.39-1.93-.43.35-2.1,2.46-2.68,2.79-4.26a9,9,0,0,1-1.26-2.35,4.28,4.28,0,0,0-2-3.14c-.2-.14-.36-.36-.56-.5A5.78,5.78,0,0,0,160.9,172a3.69,3.69,0,0,1-1.9-.28,6.51,6.51,0,0,1-1.55-1.11,1.14,1.14,0,0,1-.34-.47,3.41,3.41,0,0,0-3.27-2.33,1.84,1.84,0,0,1-.44-.16c.08-.37.15-.72.26-1.22l-1.37-.72c-.25-.13-.58-.19-.74-.4a1.57,1.57,0,0,0-2.54-.25,1.46,1.46,0,0,1-1.88.14,2.82,2.82,0,0,0-2.47-.43,1,1,0,0,1-1.21-.56,1.88,1.88,0,0,0-2.49-.82c-.4.16-.81.31-1.21.5-.69.32-1.08,0-1.28-.73l1-.88-.17-.37a6.5,6.5,0,0,0-1.06.42,19.55,19.55,0,0,1-1.7,1.15c-.68.31-1.44.38-2.11.69a1.64,1.64,0,0,0-.87.94,3.29,3.29,0,0,1-1.09,1.94,7.08,7.08,0,0,0-1.06,1.66,2.72,2.72,0,0,0-2.65-1.86,5.29,5.29,0,0,0-2,.69,1.8,1.8,0,0,1-2.35-.43c-.55-.59-1-1.28-1.56-1.86a2.86,2.86,0,0,1-.63-2.67c.19-1,.5-2,.67-3.09.07-.44.08-1.14-.15-1.34-.67-.59-1.2-1.46-2.28-1.38-1.53.12-3.08,0-4.62,0,.1-.91.24-1.81.3-2.71a3.73,3.73,0,0,1,.75-2.37.44.44,0,0,0,.06-.31,2.94,2.94,0,0,1,.77-2.3c.57-.7.3-1.17-.58-1.36a6.59,6.59,0,0,0-3.77.74,1.11,1.11,0,0,0-.54.83,5.06,5.06,0,0,1-1.48,3.22,5.3,5.3,0,0,0-1.6,0c-1.22.42-2.39.67-3.5-.31-.11-.1-.3-.05-.41-.13a2.37,2.37,0,0,1-.64-.58c-.42-.71-.76-1.48-1.2-2.17a8.6,8.6,0,0,1-.74-7.51,3.18,3.18,0,0,0,.13-1.69c-.72-2.38.29-3.5,2.12-4.19a2.68,2.68,0,0,0,1.09-.74,2.84,2.84,0,0,1,2.62-.92c.47,0,1,.22,1.41,0a.86.86,0,0,1,1.14.27c.75.89,1.54.17,2.28,0,.45-.08.33-.76-.44-1.4,1.52-.05,2.84,0,4.15-.15a2.55,2.55,0,0,1,2.66,1.22c1.2-1.09,2.11-.68,2.88.57a1.06,1.06,0,0,0,.39.36,14.93,14.93,0,0,0,.49,3.09,20,20,0,0,0,1.84,3.17.6.6,0,0,0,1.13-.16,4,4,0,0,0,.24-2.81c-.5-1.44-.92-2.93-1.42-4.38a4.12,4.12,0,0,1,1.58-5.06,2.82,2.82,0,0,0,1-.88c.31-.64.83-.81,1.31-1.15a7.7,7.7,0,0,0,2.21-2.08c.32-.53.79-.55,1.17-1a1.51,1.51,0,0,1,0-1.94c-.38-.42-1-.9-1-1.09.3-.9-.45-1.34-.51-2a5,5,0,0,0,.66-.62,6.94,6.94,0,0,0,.41-1.05c.06.49.09.7.1.9,0,.6.23,1.1.79,1.17s.69-.41.86-.89.5-.77.7-1.19a6,6,0,0,0,.64-1.74c.11-1.23,0-1.25,1.07-1.56.42-.12.85-.17,1.26-.31.84-.3,1.68-.64,2.53-1-.73-1.9-.29-3.22,1.14-4a10.9,10.9,0,0,1,2.83-1.32,2,2,0,0,1,2.15.37,4,4,0,0,0,.05.46c.24,1.19.74,1.4,1.59.66a3,3,0,0,0,.39-.47,2.25,2.25,0,0,1,1.3-.87,19.69,19.69,0,0,0,2.67-1.09c.59-.24.61-.71.47-1.26a8,8,0,0,1-1.46,0c-1.8-.29-3.08-.8-3.35-2.59a10.1,10.1,0,0,1,0-1.23c-.49-.21-1.26.25-1.32-.77a2.49,2.49,0,0,0,2.3-1.08,1.49,1.49,0,0,0-2-1.08c-.93.22-1.83.61-2.75.92a5.8,5.8,0,0,0-3.08,2.23c-.26.37-.48.93-1.3.89a9.71,9.71,0,0,1,.66-1.16c.48-.59,1-1.13,1.51-1.71a3.34,3.34,0,0,1,2-1.42,1.12,1.12,0,0,0,.81-.57c.45-1.57,1.56-1.5,2.69-1.49,2,0,3.93,0,5.9,0a3.23,3.23,0,0,0,2.89-1.44,1.6,1.6,0,0,1,1.34-.76,3.67,3.67,0,0,0,2.91-1.39V90.11c-.55-.89-1.85-.4-2.27-1.57,0-.13-.64-.09-.94,0a9.66,9.66,0,0,0-1,.63c-.48.27-1,.48-1.47.72l-.18-.41c.82-1.12,2.43-.94,3.4-2.19-1.4-.32-2.41-1.41-3.88-1.07.24-1.4-.7-1.76-1.43-2.2-.51-.31-.88-.58-.84-1.27l.93-.43c.08-.11.15-.23.22-.35-1.47,0-.73-1.58-1.65-2.19-.63-.42-.84-1.6-1.3-2.38s-1.08-1.61-1.61-2.4l-1.45,1.06a1.4,1.4,0,0,1-.47,1.84c-.86.56-1.63,1.61-2.92,1.23-.36-1.64-1.57-.88-2.93-.85,1.17-.8.9-1.63.81-2.48a23.45,23.45,0,0,1,0-2.52c-.48-.12-.95-.21-1.4-.37a3.15,3.15,0,0,1-2-1.5c-.52-.91-1.48-2-2.75-1.61a5.84,5.84,0,0,1-3.39-.15c-.67-.18-1.39-.64-2,.22s.18,1.36.42,2l-.46,1c.38,1.09.68,2,.88,2.55l-1.68,3,1.05.84a3.74,3.74,0,0,1,.2,6.16c-.81.71-1.74,1.26-2.71,2a6.25,6.25,0,0,1,.91,3c.08,1.15.7,2.27-.11,3.42-.21.06-.59,0-.79.24-.51.51-.9.18-1.27-.14a8.5,8.5,0,0,1-1.59-1.58,5.94,5.94,0,0,1-.9-2.24,33.75,33.75,0,0,1-.21-3.72,14.27,14.27,0,0,0-1.86-.41,9.85,9.85,0,0,1-6.14-2.57,6,6,0,0,0-1.37-.88,4.58,4.58,0,0,0-4.38-.41c-.33-1-.61-1.95-.91-2.84-.24-.69-.57-1.2-1.38-1.08s-1.19-.39-1.18-1.23c0-1.83,0-3.69,1.54-4.94.14-.12.34-.32.33-.48,0-1,.67-1.4,1.28-1.72a1,1,0,0,0,.49-1.37c.79-.08,1.58.2,2.06-1l-2.77-1.19.1-.32c.55.11,1.1.21,1.65.34s1.1.26,1.66.4l.42-1.23c2,.54,3.51-.56,3.48-2.49-1.63,0-2.7-1.23-4.24-2.25a3.4,3.4,0,0,1,2.56.77c1.47.86,1.45.9,2.69-.34.25-.25.52-.47.82-.74-.32-.44-.54-.75-.84-1.15.76-.2,1.42-.58,2,.12s1.12.57,2,.3L121,58.09l.17-.16,2.09,1.68A19.6,19.6,0,0,0,125,58.35c1.08-1,1.09-1.33.13-2.42a3.45,3.45,0,0,1-1-2.51c1.68.41,1.68.41,1.45-1a8.91,8.91,0,0,0-1.61-1.12,9.48,9.48,0,0,0-2.86-.8c-.94-.05-1.19.8-.57,1.62.15.21.36.35.52.55a1.7,1.7,0,0,1,.14.51l-1.13.39c-.39,1.78-1,3.24-2.42,3.83a18.94,18.94,0,0,1-1.43-1.46c-.38-.47-.43-1,.2-1.29a2.4,2.4,0,0,0,.44-.36A2.58,2.58,0,0,0,115,52.14c-.91.47-.49,2-1.62,2.2-.29-1-.55-2-.88-3.2a8.42,8.42,0,0,0-1-.18c-.49,0-1,0-1.17-.64s.48-.68.8-1c.06,0,.06-.18.1-.28-.36-.42-.74-.83-1.08-1.28a3.22,3.22,0,0,1-.61-1c-.43-1.63-1.08-2.23-2.53-2.19-1,0-1.15.19-.93,1.53-.87-.13-1.36.32-1.51,1.33l.66.93c-.58,1.27-.53,1.5.46,2a6.24,6.24,0,0,0,1.09.41c.78.23,1.57.42,2.35.66.53.16.6.54.33,1.21-.69-.76-1.29-.73-1.83.06.3.65,1.32-.19,1.28,1l-2.64,1.92v1.84c-1.27-.28-1.27-.28-1.26-2.33-.87-.27-1.68-1-2.84-.52,1.57.78,1.57.78,1.27,1.6a7.53,7.53,0,0,0-1.73-.46c-1.67,0-3.34.14-5,.15a5.11,5.11,0,0,1-1.38-.39l-3.28-1a.63.63,0,0,0-.42.07c-.77.35-1.54.72-2.41,1.13-.4.8.17,1.48.61,2.25l-1,.77-.47-1.18c-.1-.26-.14-.69-.3-.76-1.35-.56-2.61-1.68-4.21-1a3,3,0,0,1-1,.24,11.94,11.94,0,0,1-4.46-.59c.23-1.22,1.27-.55,1.67-1.25a2.65,2.65,0,0,0-2.44-1.35,5.84,5.84,0,0,1-1.57-.06c-1.48-.42-2.95-.91-4.42-1.42-.82-.29-1.62-.67-2.43-1a1.41,1.41,0,0,0-1.83.41,4.13,4.13,0,0,1-1.21.77c-.57-.44-.25-1.44-1.07-1.34s-.33.95-.58,1.38c-1.83,0-2-2.23-3-2.94-.42.51-.66,1-1,1.21a16.84,16.84,0,0,1-3.64,1.79,6.64,6.64,0,0,0-2.65,1.76c-.06.06-.17.05-.27.08l-1.16-.71c1.23-.76,2-1.31,2.87-1.76s1.8-.56,2.52-1.38c-1-.46-1-.44-1.65-.11q-.63.34-1.29.63a11.09,11.09,0,0,1-4.67,1.18,1.07,1.07,0,0,0-.52.24,2,2,0,0,0-.29.37l.61,1.26a17.33,17.33,0,0,1-5-1.64A3.78,3.78,0,0,0,43.48,51a3.49,3.49,0,0,1-2.18-.66,4.45,4.45,0,0,0-3.68-.89,3.69,3.69,0,0,1-1.14-.07c-2.66-.27-5.28-1.13-8-.84a2.08,2.08,0,0,1-1.84-.69,2.49,2.49,0,0,0-1.27-.59A5.6,5.6,0,0,0,23.67,47a8.46,8.46,0,0,0-1.58.38c-.61-1.52-.76-1.54-1.92-.84a6.25,6.25,0,0,1-1.86.7,16,16,0,0,1-2,.25,6,6,0,0,1,0,.61,5.77,5.77,0,0,1-.12.6,4.22,4.22,0,0,0-4.83,3,1.83,1.83,0,0,1-1,.86,4.69,4.69,0,0,1-1.67.4c-.92,0-1.35.56-1.57,1.58.7.33,1.37.61,2,1a5.85,5.85,0,0,1,1.65,1.22,2,2,0,0,0,1.49.79c.42,0,1.06.09,1.19.37.39.86,1.08.76,1.7,1a11.65,11.65,0,0,1,1.09.45c-.23.24-.33.43-.42.43a5.59,5.59,0,0,0-2.34.49c-.92.31-2,.61-2.58-.82a.88.88,0,0,0-.88-.26C8.53,59.8,7,60.54,5.2,61.39l2.52,1c-.17.43-.5.86-.42,1.16a1.14,1.14,0,0,0,.85.64c.85.09,1.74-.09,2.57.08a2.74,2.74,0,0,0,2.68-.56c.46-.43,1.2-.79,1.55-.22v2.95a4.71,4.71,0,0,0-1.69.62,2.41,2.41,0,0,1-2.91.49c-.56.77-1.08,1.47-1.57,2.19a6.8,6.8,0,0,0-.59,1.1c-.35.78-.23,1.22.48,1.48s1.37.34,2.05.57a3,3,0,0,1,.71.51c0,.12-.09.24-.14.35a9.4,9.4,0,0,0-1.17-.26c-.2,0-.59.1-.6.19a1.36,1.36,0,0,0,.18.82c.65,1,1.48,1.44,2.58.83a2.47,2.47,0,0,1,.75-.18c.63.51.54,1.16.53,1.81,0,1.26.42,1.6,1.41,1a1.62,1.62,0,0,1,2.42.47c.08.11.23.15.37.23l.35-.82,2.23.37c-.75,1.14-.63,2.66-1.86,3.5a13.23,13.23,0,0,1-1.32,1.05,8,8,0,0,0-1.53,1.42A1.56,1.56,0,0,0,17.9,84a4.9,4.9,0,0,1,2.55-1.69c.26-.08.65-.31.68-.51.14-1.24,1.09-1.44,1.83-1.75A8,8,0,0,0,25.4,78l-1-1c.41-.38.74-.71,1.1-1s.7-.35.78-.62c.44-1.57,1.8-2,2.78-2.85.57-.52,1.12-.27,1.67.53a2.38,2.38,0,0,0-2.27,1.29c-.57,1-.09,1.87-.4,2.79a10.78,10.78,0,0,0,1.18-.62c1-.48,1.86-1.74,3.12-1.08.75-.78.11-1.2-.22-1.62.68-1.33.66-1.24,1.75-.92,1.25.36,2.23,1.43,3.56,1.49.64.94,1.54.64,2.39.65s1.67-.19,2.25.19a3.07,3.07,0,0,0,2.54.44c.36.55.58,1.25.92,1.34a5.35,5.35,0,0,1,2.09,1.35c.85.71,1.13.64,2-.58a3.22,3.22,0,0,0,.37.72c.13.16.36.21.62.35V77.1c.41.46.56,1.08.91,1.45.82.87,1.8,1.58,2,3a.42.42,0,0,0,.19.23,3.54,3.54,0,0,1,1.49,2.6c1.73-.53,1.92.87,2.15,2.12l1-.24c-.16.34-.27.51-.34.7-.39,1,0,2.25,1,2.36.57.06.65.38.9.74.52.76,1.11,1.46,1.58,2.06,0,.63,0,1.24,0,1.84-.07.82.31,1,.94,1a2.15,2.15,0,0,1,.94.13c.56.24,1.09.57,1.83,1a1.78,1.78,0,0,0,1.07,1.16,5.59,5.59,0,0,1,2.06,1.84,1.91,1.91,0,0,1-.29,2.86c0-1.42-.69-1.83-2.55-1.48.22.65.49,1.26.65,1.91a19.35,19.35,0,0,1-.36,8,2.21,2.21,0,0,0,0,1.08,5,5,0,0,1,.22,3.44.81.81,0,0,0,.05.61c.66,1.22.77,2.73,1.71,3.81a3,3,0,0,1,1.07,1.92,5.19,5.19,0,0,0,1,2c.51.88,1.07,1.72,1.72,2.74,2.47.24,4.2,1.88,5.18,4.63.64,1.81,1.15,3.74,2.81,4.82A2.17,2.17,0,0,1,80,136c.39.55.43,1.06-.17,1.48-.17.12-.32.28-.69.59.82.47,1.45.81,2.06,1.2.78.5,1.77.91,1.76,2.11a2.75,2.75,0,0,0,1.34,2.27c.63.54,1.21,1.14,2,1.95l.58-.6c-.36-.44-.47-.6-.61-.74-.44-.45-1.09-.8-1.3-1.36a17.89,17.89,0,0,0-2.1-4.41c-1-1.42-1.71-3.11-3-4.37a3.86,3.86,0,0,1-.69-3.2c1.83.24,2,.3,2.56,1.94A16.94,16.94,0,0,0,86.1,139c.58.58,1.05,1,.87,1.86a8.64,8.64,0,0,1,1.37,1c1,1.13,2,2.32,2.93,3.49a4,4,0,0,1,.75,4.55,6.54,6.54,0,0,0,1.09,1.27c1.23.85,2.15,2.36,3.83,2.29.2,0,.4.28.61.41.67.4,1.33.83,2,1.18a29.13,29.13,0,0,0,2.77,1.31c1.21.46,2.42,1,3.72.16a2,2,0,0,1,2.43.36,6.21,6.21,0,0,1,1,.94c1.76,2,4.18,2.4,6.44,3.16a2,2,0,0,0,.89-.07c.4.57.68,1,1,1.46a21,21,0,0,1,1.63,2c.28.47.22,1.19.44,1.73s1-.16,1.46.52a5.65,5.65,0,0,0,2.15,1.77,9.65,9.65,0,0,1,3,1.74.62.62,0,0,0,.65,0c.13-.1.15-.43.15-.66a1.74,1.74,0,0,0-.16-.55c.27-.26.5-.46.7-.68.75-.79,1.47-.8,2,.2a12.23,12.23,0,0,1,1.06,3.21,16,16,0,0,1,.23,3.59,2.41,2.41,0,0,1-1.12,2.09,2.11,2.11,0,0,0-1,2.41c-.86.63-.86.63-1.48,2.05-.07.14-.17.26-.25.39a4.5,4.5,0,0,0-.46,3.51l1.19.1c-.09,1-.76,1.47-1.37,2-.82.7-.82.91-.41,2a9.31,9.31,0,0,1,.29,1.58,5.26,5.26,0,0,1,2.26,2.68c1.17,2.38,2.34,4.76,3.47,7.17.34.75.5,1.6.81,2.37a3.69,3.69,0,0,0,.71,1.16,11.25,11.25,0,0,0,4.43,3.21c1.16.37,1.58,1.65,2.53,2.25.12.08.16.38.18.58a8.56,8.56,0,0,1,0,1.13c-.11,2.65-.16,5.31-.36,7.95a21.32,21.32,0,0,1-.77,5.52c-.64,1.83.07,3.84-.89,5.55-.13.25,0,.74.13,1.1a8.11,8.11,0,0,1-.43,4.34c-.48,1.4-.93,2.81-1.44,4.19-.22.62-.55,1.19-.82,1.78.13,1.07.32,2.17.4,3.29a2,2,0,0,1-.36,1.17,2.69,2.69,0,0,0,0,3.24l1.33-.32a13.76,13.76,0,0,1-.36,2.83,2.86,2.86,0,0,0,.36,3c-1.08.51-1.22,1.58-1.36,2.64-.1.71-.39.92-1,.62v-1l-.25-.14c-.36.44-.71.88-1.18,1.44l1.74,1-.68,1.21,1.13.52c-.25.26-.6.46-.7.76-.44,1.46.1,2.86.31,4.28,0,.23.22.45.2.66-.1,1,.06,2,.72,2.38a8.5,8.5,0,0,1,1.72,1.56l-.86.48.06.28,1.82-.2-.62,1.53c.95.43,1.13.38,1.21-.46s.11-1.43.83-1.7,1.65-.56,2.53-.85c0,.05,0,0,0-.05.2-1.74-.36-3.69,1.06-5.11,0-1.54.93-2.24,1.91-2.95a1.73,1.73,0,0,0,.7-1.95,5.73,5.73,0,0,1-.82-.3,2.38,2.38,0,0,1-1.43-2,2.12,2.12,0,0,1,1.63-2c1.05-.21,1.24-1.1,1.38-2a2.76,2.76,0,0,1,.59-1.53,1.6,1.6,0,0,0,.16-1.41c-.69-.85-.14-1.83-.57-2.78,1.39,0,2.69,1,3.84-.21.08-1.11.16-2.22.23-3.28,1.55-.17,3.07-.32,4.58-.52,1.72-.21,2.21-1.87,2.91-3.23a.94.94,0,0,0-.22-.84c-.71-.51-.57-1.25-.45-1.87-.44-.79-1.69-.61-1.52-1.89a6.33,6.33,0,0,1,2.09.59c1,.73,2,.11,3,.36.18,0,.49-.15.63-.34.93-1.26,2.12-2.28,2.69-3.9.43-1.25,1.05-2.43,1.6-3.68l1,.6a8.62,8.62,0,0,1,2.17-3.54,2.33,2.33,0,0,0,.41-1.33,15.59,15.59,0,0,0,0-1.93,3.31,3.31,0,0,1,.91-2.66c1.47-1.53,3.45-2,5-3.24.2-.16.56-.06.85-.07.53,0,1.06,0,1.58,0,.27,0,.69-.08.77-.27.43-1,1.68-1.3,1.61-2.65,0-.23.22-.47.34-.71.59-1.13,1.5-2.1,1.3-3.6a.86.86,0,0,1,.22-.58A2.6,2.6,0,0,0,184,208c0-1.34,0-2.67.1-4a16,16,0,0,1,.24-2.07c0-.23.22-.61.36-.62,1.06-.07,1.28-1.09,1.56-1.87a4,4,0,0,1,1.32-1.79,5.79,5.79,0,0,0,1.49-1.7,7.39,7.39,0,0,0-.1-6.71C187.25,189.6,186.09,188.4,184.89,187.34Zm-35.8-82.08v.81l-.16.05a1.24,1.24,0,0,1-.11-.43C148.84,105.56,149,105.45,149.09,105.26Zm58-55.55c-1.51-.9-3.37-.48-4.65-2.06l.81-1.31c1.19.45,1.64,1.45,2,2.7,1-.16,1.9-.28,2.82-.49.5-.11.64-.58.62-1.12A2.87,2.87,0,0,0,207.45,45a5.42,5.42,0,0,0,.69-1.39,2.56,2.56,0,0,0-1-2.72c.88-1.09,1.94-.24,2.93-.65,0-.67-.06-1.34-.08-1.93,1.31-.87,2.58-1.69,3.81-2.57a1,1,0,0,0,.32-.81.88.88,0,0,0-.56-.58,2.42,2.42,0,0,0-1.09.12c-.44.13-.87.33-1.41.54.69-1.92.62-2.13-.8-3.47-.57-.53-1.05-1.17-1.61-1.81,1.64-.9,2.22-.73,2.95.65a7.86,7.86,0,0,0,1,1.16,6.92,6.92,0,0,0-.24-3.63l-2.13-.33c.2-.24.45-.26.63-.39s.59-.47.6-.72a1.1,1.1,0,0,0-.56-.76,5.78,5.78,0,0,0-1.34-.36c-.54.69-.81,1.67-1.95,1.39,1.31-1.85,2.15-4,4.14-4.94l-.54-1.64A2.86,2.86,0,0,1,212,20a4.15,4.15,0,0,0,3.79-2.18,6.31,6.31,0,0,1,2.94-2.17c.85-.36,1.7-.73,2.52-1.16a8.06,8.06,0,0,0,1.12-.87l-1.62-1.53h-4c-.67,0-1.31,0-1.72.83-.31.66-.93,1-1.93,1.19l1.29-1.65-.94-.58c-.69.4-.75,1.54-1.93,1.41.41-.52.66-.87.93-1.21a.91.91,0,0,0-.08-1.38.85.85,0,0,0-1.34.38,9.16,9.16,0,0,0-.19,1.09,2.3,2.3,0,0,1-.49,1.08c-1.16.95-2.36,1.83-3.57,2.69-.22.16-.56.09-.85.13a3.33,3.33,0,0,1,1-1.23c.81-.68,1.65-1.3,2.43-2,.62-.57.49-1.51-.23-1.56-1.22-.09-2.66-1-3.61.78a3.24,3.24,0,0,1-1.13,1,1.87,1.87,0,0,1-2,.16c.73-1,2.48-.44,2.24-2.46,1.76-.06,3.43-.07,4.13-2.38a15.61,15.61,0,0,0-1.57-.39c-.71-.12-1.44-.08-2.14-.25s-1.59-.31-1.75-.76A1.2,1.2,0,0,0,202.14,6c-1.79-.32-3.57-.66-5.37-.87-1.34-.16-2.69-.07-4-.19a21.08,21.08,0,0,0-11.05,1.84c-1.29-.87-2.2-1.06-3.09-.38a3,3,0,0,1-1.75.53c-.95.1-1.91.23-2.85.4a2.26,2.26,0,0,0-.7.4l.4.75a1.88,1.88,0,0,0-1.35.75c.69.44,1.37.81,2,1.29s1.47.47,1.83,1.36c-.16.09-.28.2-.32.17a8.92,8.92,0,0,0-3.47-1.32,2.55,2.55,0,0,1-.86-.56,3.8,3.8,0,0,0-4.1-.34c.55.52,1.07,1,1.56,1.47s.39,1-.26,1.41c-1.21-.83-2.11-2.32-3.7-2.46-.25,2.12-.25,2.12-1,2.74a17.4,17.4,0,0,0-.24-1.74c-.21-1-1.06-1.62-1.71-1.14-1.05.76-2.2.63-3.32.85-.39.07-.78.18-1,.23-.34.79.54,1.33-.09,2-1.71-2.33-2.73-2.57-4.1-1,0,.19.06.4.11.6s.14.4.18.61c.19,1.13-.31,1.57-1.31,1.19-1.23-.47-2.53-.62-3.44.54a3.82,3.82,0,0,1-2,1.39,6.82,6.82,0,0,0-1.61.66,1.16,1.16,0,0,0-.42.89c0,.22.48.47.76.5a15.16,15.16,0,0,0,1.92,0l1,1.62a3.88,3.88,0,0,1-3.89,1.73,3.77,3.77,0,0,0-2.24.38,12,12,0,0,1-3.85,1.23c-1.18.23-1.17.25-1.37,1.83.17.12.36.35.57.39a12.68,12.68,0,0,1,3.51,1.37A1.93,1.93,0,0,0,143,27a8.07,8.07,0,0,1,3.87-.14c.06,1-.45,1-.94,1-1,0-2.11,0-3.16.11s-2.12.36-3.17.54l-.05.37c.24.2.45.49.72.56a2.84,2.84,0,0,1,1.65,1.36c.69,1,1.94,1,2.93,1.44.08,0,.27-.09.36-.2.62-.77,1.23-.49,1.9-.06.35.22.85.5,1.18.38s.63-.67.95-1.06c.23.1.54.38.74.3,1.8-.7,3.49.37,5.24.34a.74.74,0,0,1,.54.16c.87,1.18,2.32,1.77,2.75,3.4.15.56.39,1.1.58,1.62,1.07.34,1.57.9,1.41,1.82l-.65.45c.18,1.07.32,1.86.48,2.8l2,1c-.42.45-.73.75-1,1.1a1.06,1.06,0,0,0,.35,1.79,1.59,1.59,0,0,0,2.1-.41c.71-.83.94-.75,1.47.28a10.18,10.18,0,0,1,.36,1c-.19.17-.29.33-.41.35-.67.08-1.33.13-2.08.2-.35.59-1,1.22-1,1.87a4,4,0,0,0,.84,2.15c.8,1.16,1.83,1,4.08-.25,1,1,.65,2.14.46,3.43l-1.63-1.53c-.75,1-1.43,1.76-2.06,2.62a1.52,1.52,0,0,0,0,1.66,12.32,12.32,0,0,0,.79,1.2c-.07.22-.14.47-.21.72-.38,1.51-.25,1.85.85,2.85a1.71,1.71,0,0,1,.48,1,8.78,8.78,0,0,0,1.77,4.4,45,45,0,0,0,3.29,4.25c1,1.2,2.05,1.95,3.5,1.61,1.22,1.32,2.41,2.52,4.24,2.52a13.13,13.13,0,0,0,.83-4.78A3.86,3.86,0,0,1,180.6,68,7,7,0,0,0,183,63.25c.06-.42.14-.82.22-1.27a2,2,0,0,1,.62,0,6,6,0,0,0,5-1.47,17,17,0,0,0,4.16-4.4c.34-.56.72-1.21,1.5-.9a5.14,5.14,0,0,0,3.66-.26,34.73,34.73,0,0,0,8.52-4.62A2.94,2.94,0,0,0,207.09,49.71ZM449.9,223.22a2.61,2.61,0,0,0-.22-1.08.59.59,0,0,0-.15-.27c-.88-.81-1.12-2.27-2.3-2.79a.85.85,0,0,1-.39-.63c0-1.3-.7-1.63-1.77-1.53a10.55,10.55,0,0,0-.42-1.58,7.77,7.77,0,0,0-1.12-2.12,6.58,6.58,0,0,0-1.95-1.23,2.63,2.63,0,0,1-1.53-2.63,2.55,2.55,0,0,0-.34-1.36,3.68,3.68,0,0,1-.69-2.22,1.55,1.55,0,0,0-1.29-1.67c-.94,0-1-.58-1.12-1.25-.34-1.32-.72-2.62-1.13-3.91-.05-.18-.34-.26-.58-.43a13.74,13.74,0,0,0-.95,5,10.12,10.12,0,0,1-.79,4.62c-.58,1.3-1.52,1.53-2.41.5a3.48,3.48,0,0,0-1.26-.94,15.31,15.31,0,0,1-2.5-1.52,13.73,13.73,0,0,1-1.42-1.32,17.85,17.85,0,0,1,.56-2.37c.25-.6,1.2-.78.95-1.61l-5.42-1.27c-.07.27-.17.6-.27.94-1.09.22-2.45-.33-3,1-.42,1.06-1.75,1.83-.95,3.25h-2.06l-1.61-1.77a7,7,0,0,0-3.92,4l-.71.08c-.08.45,0,1-.23,1.14-.52.4-.52-.41-.81-.58a1.34,1.34,0,0,0-.34-.09c-.38.51-1.08.85-.77,1.83.06.2-.18.56-.33.8-.25.39-.59.71-.8,1.12a2.62,2.62,0,0,1-2.24,1.54,10.75,10.75,0,0,0-2.7.85,3.43,3.43,0,0,1-.95.28,3.56,3.56,0,0,0-2.07.95c-.9.66-1.6,1.67-2.68,2a4.54,4.54,0,0,1,0,1.74,3.25,3.25,0,0,0,.27,3.28,6.68,6.68,0,0,0-.19,2.26c.39,1.13.43,2.41,1.22,3.38a2.18,2.18,0,0,1,.37,1.19,9.92,9.92,0,0,0,.91,3.36,3.29,3.29,0,0,1-.4,3.69c-.51.54-.35.9.14,1.27.31.24.61.51.93.74a2.67,2.67,0,0,0,3.46-.14,6.14,6.14,0,0,1,4.94-1.38,2.15,2.15,0,0,0,2.49-.71,5.49,5.49,0,0,1,3.71-2.16c1-.22,2-.64,3-.78a11.15,11.15,0,0,1,3.93-.19c.88.2,1.78.61,2.69.86.33.09.86.41.86.63,0,1,.94,1.14,1.19,1.9a18.56,18.56,0,0,0,.94,2.09l1.59-1.66,1.53-1.67.27.22c-.41,1.24-.82,2.48-1.23,3.74,1,.34.65-1.14,1.3-1.28.94.39.27,1.29.42,2l1.23-.14a14.46,14.46,0,0,1,.67,2.13c.27,1.7,1.11,2.64,2.62,2.84a3.37,3.37,0,0,1,1.49.49c.76.56,1.36.28,2-.22a12.42,12.42,0,0,0,.93-1,3.11,3.11,0,0,1,.52.32c.44.44.64,1.36,1.4,1.17a13,13,0,0,0,1.81-.87,11.52,11.52,0,0,1,2-.77c1-.23,1.22-.39,1.4-1.48.09-.53.08-1.08.18-1.6a7.56,7.56,0,0,1,.4-1.33,8.89,8.89,0,0,1,.66-1.35c.55-.93.35-2.29,1.31-3a4.41,4.41,0,0,0,1.6-3.25,12.88,12.88,0,0,1,.46-2.82C451,226.65,449.4,225,449.9,223.22Zm-337-209.81a10.78,10.78,0,0,1,1.14.16.76.76,0,0,1,.54,1.18,6,6,0,0,0-.18.7c1.16-.53,2.14-1,3.14-1.43s2.09-.72,3,.23c-.21.64-.39,1.19-.65,2,.46-.11.63-.17.81-.19a5.71,5.71,0,0,1,2.37-.17,3.15,3.15,0,0,0,1.94.05c.69-.19,1.37-.49,2.06-.68a3.52,3.52,0,0,1,3.56.64c-1.56.35-2.81.67-4.07.9a2.09,2.09,0,0,0-2,1.6l1.3,1.05c0,.12-.08.24-.13.36a3.5,3.5,0,0,1-1-.21,8.47,8.47,0,0,1-1.34-.93c-1.4-1.11-3-.77-4.75-.8.32.62.42,1.1.69,1.3q1.77,1.34,3.62,2.53A4.7,4.7,0,0,1,124.78,23a4.37,4.37,0,0,1-1.49,0c-1.14-.16-2.27-.4-3.41-.47s-1.68.55-1.71,2l2.39.52c.15.62.26,1.08.39,1.65l2.33.28c-.37.43-.5.73-.7.81a2.63,2.63,0,0,1-2.91-.83,2.87,2.87,0,0,0-3.2-.62l1,1.68a25.23,25.23,0,0,0-2.38.93c-.24.12-.57.61-.51.8a1.21,1.21,0,0,0,.73.78c.36.05.76-.24,1-.32,1.25.2,2.37.4,3.5.55a1.84,1.84,0,0,0,1.12-.09c.25-.15.34-.63.5-1a4.42,4.42,0,0,0,1.2.71,2.34,2.34,0,0,0,1.48-.06c.89-.42,1.29-.46,1.88.39a1,1,0,0,0,1.24.47l2.35-.74c.13-.05.31-.06.4-.17s.59-.66.52-.82a1.93,1.93,0,0,0-.79-.73c-.15-.1-.38,0-.57,0L125,27.93c.48-.88,1-1,1.67-.8a10.88,10.88,0,0,0,2.1.5c.88.11,1.29-.34,1.36-1.36,0-.25,0-.5,0-.75h2.53c0-.36,0-.61,0-.64A12.84,12.84,0,0,1,134,23.39c.41-.33.79-.62.67-1.26s-.78-.71-1.26-.84a19.57,19.57,0,0,0-2.2-.38c.43-.4.61-.7.81-.72a6.36,6.36,0,0,1,1.57.06,7.91,7.91,0,0,0,2.86-.08l-1-1.28.13-.31c.87.19,1.73.36,2.59.56a3,3,0,0,0,2.47-.45c.75-.49.16-1.31.63-1.66L148,13.2c-.18-.71-.6-.86-1.19-.65a5.54,5.54,0,0,1-1.1.33c-.44.07-.92,0-1-.6s.3-.81.76-.95a7.26,7.26,0,0,1,3.7-.12c1.46.3,2.55-.46,3.71-1.54a4.6,4.6,0,0,0-.91-.62c-1.09-.36-2.2-.7-3.31-1a4.08,4.08,0,0,0-1.43-.15A13.6,13.6,0,0,1,142,7.23a13.82,13.82,0,0,0-1.62-.29L140,8.21a2.54,2.54,0,0,0-2.85-.86l-.38.89a5.81,5.81,0,0,0-4.13-.89c0,.65,1,.93.54,1.76-3-1.94-5.57-1.93-7.85.13l2.08,1.91a41.75,41.75,0,0,1-5.5-.92,3,3,0,0,0-3.42.88,11.24,11.24,0,0,0-1.8-.2c-1,.06-2,.22-3,.34a4.18,4.18,0,0,0-.71.09,1,1,0,0,0-.84,1.13A.89.89,0,0,0,112.92,13.41Zm24,32.92-.91-1.11-1.51.57-.15-.31,1-1.47a18.13,18.13,0,0,0-2-1.47,5.14,5.14,0,0,0-1.54-.31c-1.44-.29-2.1.21-2.44,1.82,0,.11-.17.19-.27.28-.73-1.37-.72-1.35-1.87-.47a4.88,4.88,0,0,1-1.31.4c.39-1.27.65-2.14.91-3-1.59-2.72-3.25-3-5.72-1,.13.24.25.49.4.77-.65.14-1.43-.28-1.62.75s.81.87,1.17,1.4l-1.36,1A7.94,7.94,0,0,1,121,45.37a1.18,1.18,0,0,1,.16,1,1.08,1.08,0,0,1-.75.53c-.24,0-.52-.14-.8-.23.18-.36.31-.63.45-.94-.68-.82-1.68-1.43-1.3-2.82,0-.07-.07-.2-.14-.27-.83-.77-.37-1.36.19-2s.85-1,1.31-1.62c-1.83-.86-4.77.71-5.55,2.27-.45.9-.78,1.7-.24,2.41l-.61,1.78c1.2.86,2.87-.14,3.76,1.82h-2.64c.92,1.71,1.6,1.92,3.37,1.25.43.34.8.86,1.24.94a37.75,37.75,0,0,0,5,.72c.69,0,1.62.44,2-.68,1,.17,1.85,1.32,3,.19l-1.14-1.25a1.4,1.4,0,0,1,1.11.18A4.18,4.18,0,0,1,131,50.12c.35.63,1.27.85,1.91,1.3a4.77,4.77,0,0,1,.64.78l-1.42.66c1.06.8,1.87.11,2.62,0,.77.67,1.36,1.28,2,1.75,1.55,1.1,1.81,2.35.66,3.87a23.36,23.36,0,0,1-1.75,1.84c.32.49.63,1,1,1.63-1.83.19-3.34,1.49-4.91.26a12.14,12.14,0,0,0-1.07,1c-.2.25-.47.62-.44.89s.41.51.68.67c1.46.82,2.81-.38,4.23-.33.11,0,.23-.38.32-.53a3,3,0,0,1,2.07,1.46c.21.39.77.55,1.16.83s.76.51.73.64c-.28,1.14.5,1.19,1.09,1.47s1.3.65,1.93,1c1.32.79,2.8.85,4.34,1.52-.47-2.38-2.82-2.42-3.57-4.38,2,.18,3.31,1.78,5,2.32.61-.61.47-1.34,0-2.15l1,.27c-.26-.46-.41-.75-.59-1a11.65,11.65,0,0,0-.74-1c-.39-.45-.73-1.07-1.21-1.3-1.24-.58-1.63-2.07-2.65-2.86,0,0,0-.19.05-.34l1,.23-.47-1.09c.49-.6.9-.67,1.43-.21s1.12.8,1.66,1.22a1.22,1.22,0,0,1,.44.54c.34,1.22,1.35,1.35,2.19,1.94.05-.69.09-1.21.13-1.83.89.45,1.34-.14,1.83-.64l-.46-1c.82.2,1.49.41,1.56-.69-.4-.52-.84-.85-1.5-.63-.21.06-.63,0-.66-.07-.31-1.1-1-.43-1.56-.48-.22,0-.44-.08-.78-.14l.71-1c-.46-.37-1-1.1-1.36-1-2,.31-3.2-1.53-4.74-2,.15-.68.25-1.16.36-1.66.55-.15,1.14.64,1.83-.18l-1.94-.89,1.6-.61-1.08-1.11c-1.54.71-1.54.71-2.41.41l1.58-1.18c-.89-1.13-1.79-.26-2.68-.3-.19-.34-.37-.7-.56-1.05h-1.1l.25-1.06C138.52,45,137.72,45.5,137,46.33Zm-38.63,4.5a1.07,1.07,0,0,0-.59-1.45,7.36,7.36,0,0,0-1.88-.74,4.48,4.48,0,0,1-2.19-1.45c-.53-.5-.14-1.09-.16-1.64a2.87,2.87,0,0,0-.31-.89c-.15-.39-.33-.77-.45-1.17a3.65,3.65,0,0,0-4.32-2.92,4.78,4.78,0,0,0,0,1.07c.16.67.44,1.3.59,2a2.83,2.83,0,0,1-.12,1,2.89,2.89,0,0,1-.77-.49,2,2,0,0,1-.47-1,1.89,1.89,0,0,0-1.82-1.71,1.16,1.16,0,0,0-.39.09c0,.39.08.74.12,1.08l-1.78.64C83.17,41.5,82.28,41.16,81,42a13.33,13.33,0,0,1-1.37.59c.14-.87.23-1.41.34-2-.34-.06-.71-.27-1-.15-1.48.72-3,1.48-4.38,2.33a2.33,2.33,0,0,0-1.1,1.71,9.65,9.65,0,0,0,2.08,1.24,8.69,8.69,0,0,0,2.34,0l0,.48L74.29,47c.91.81.9.83,1.69.83,1.39,0,2.78,0,4.17,0A4.35,4.35,0,0,1,83.1,49c-2.49.33-5-.28-7.46.88.83,1.47,1.15,1.73,2.42,1.93.66.11,1.34.11,2,.27.32.08.77.39.82.67.18.94.7,1,1.39,1,2,0,3.94.17,5.69-1.12a3.26,3.26,0,0,0,2.73-1.21c.25.17.44.32.64.44a7.23,7.23,0,0,0,4.39,1.23,1.51,1.51,0,0,0,1.43-.91c-.19-1.4-1.79.45-1.89-1.24a5.7,5.7,0,0,1,1.52-.49A6,6,0,0,1,98.34,50.83ZM439.74,190c0-1.4-1.1-1.87-2-2.28-2.79-1.27-5.65-2.36-8.47-3.54a1.05,1.05,0,0,0-1.33.22c-.7.82-1.86,1-2.33,2.19-.08.19-.49.22-.75.32l-1.17-1.61-2.45.75.79,2.07.76-.9c1.43.62,2.75,1.32,4.13,1.77,2,.64,2.82,2.19,3.15,4.28l0,0v.05h0l.52,1.11c.85-.35,1.33.27,1.88.81a2.66,2.66,0,0,0,3.71.15l-.24-.68.32-.21c1.93-1.26,2.93-1,4.4.91a6,6,0,0,0,2.09,1.87,17.56,17.56,0,0,0,3.36.83c-.07-.71-.13-.61-2.43-2.46a16.67,16.67,0,0,1-2.41-3.17l1.16-.68C441.82,190.55,440.62,190.7,439.74,190Zm-50.86-8.76c.62,1.57,1.2,3.16,1.87,4.92a2.25,2.25,0,0,0,1.07.14c.68-.25.73.5,1.16.76l1.45-.64c.73.66,2,.33,2.4,1.58a3,3,0,0,0,2.15-3.13,2.1,2.1,0,0,1,.53-1.21,7.05,7.05,0,0,1,1.07-.92c-.16-2.08-.11-2.16,1.8-2.63-1.42-.82-1.12-2.61-2.07-3.58l.58-1.23-2.77-.47c-.13-1,.34-1.18,1-1.16s1.52.06,2.28.07c.12,0,.24-.15.36-.23s-.06-.44-.1-.69l1.3-.76a3.91,3.91,0,0,0-.64-.41c-.76-.26-1.51-.42-1.84-1.49a.7.7,0,0,0-1.23-.06,19.3,19.3,0,0,0-1.7,2.5c-.67,1.23-.62,1.26-2,.92-.32.41-.63.88-1,1.29s-.65.72-1,.77c-1.25.17-1.8,1.05-2,2.26h-1.45a2,2,0,0,0,2.88.65,1.41,1.41,0,0,1,1.66-.39,2.08,2.08,0,0,0,2.57-1.39c.13-.31.22-.65.39-1.15.37.55.38.88.13,1.28a3.06,3.06,0,0,0-.51,1.08,1.82,1.82,0,0,1-2,1.68c-1-.12-1.94-.24-2.73.66-.07.08-.28,0-.42,0a2.26,2.26,0,0,1-2.59-1.5A2.1,2.1,0,0,0,388.88,181.26Zm-82.79,21a1.9,1.9,0,0,0-1.26-1.66,5.12,5.12,0,0,1-.73,1.59,4,4,0,0,0-1.13,1.76c-.08.25-.34.44-.53.65a6.76,6.76,0,0,1-3.74,2,4.65,4.65,0,0,0-.47,4.65,2.58,2.58,0,0,1-.25,2.4c-.26.45-.57.87-.82,1.32a2.37,2.37,0,0,0-.18,2.27,5.61,5.61,0,0,1,.3,1.66,2.85,2.85,0,0,0,1,2.33c1.71,1.1,3.7.22,4.28-1.91.78-2.87,1.56-5.75,2.3-8.64.23-.87.32-1.78.49-2.66.14-.69.31-1.36.47-2.1.79,0,.9-.13.76-1S306.23,203.15,306.09,202.25ZM230.57,84.49h1.05c-.12.84-.22,1.59-.34,2.47l2.15-.21c0,.52-.07,1.16.1,1.27,1,.63.3,1.36.29,2l-1.85.59c1.29,1.61-.57,1.68-.83,2.59l2.61.72c0,.11,0,.22.05.33-1.67-.23-2.21,1.29-3.33,2.32l2.38-.3c.09,0,.22,0,.26-.11.4-.89,1.1-.58,1.75-.6a24.56,24.56,0,0,0,3.43-.31,10.79,10.79,0,0,0,1.93-.81L239,93.83c.34-.31.59-.55.85-.77.46-.39.84-.92.48-1.5-.22-.35-.77-.46-1.19-.63-.15-.06-.35,0-.48.07a11.35,11.35,0,0,0-1-2.48,29.74,29.74,0,0,1-2.35-3.47c-.24-.45-.8-.68-1.2-1,.15-1.18,1.51-1.73,1.1-3-.86-.53-1.91.21-2.83-.59l1.67-1.58h-2.66a14.3,14.3,0,0,0-1.34,4.22l.64.15C230.65,83.61,230.62,84,230.57,84.49Zm-122.36-64a2,2,0,0,1,1.13-.16c.83.12,1.79-.07,2.46,1-1.3.2-2.58-.44-3.75.41a4.8,4.8,0,0,0,4,2.79c.77.07,1.44.22,1.68-.84.23.1.36.14.49.21,1.07.55,1.16.48,1.1-.82a1.55,1.55,0,0,1,.2-.47l1.29.47c.21-1.65,1.79-1.35,2.59-2.34-.23-.12-.34-.23-.47-.24-1.37-.19-1.41-.19-1.52-1.63a1.93,1.93,0,0,0-1.09-1.69c-.11.07-.21.1-.26.18-.19.26-.36.54-.54.81a4.7,4.7,0,0,1-.71-.7c-.17-.24-.18-.63-.35-.86s-.5-.5-.68-.44c-1.18.36-1.81-.43-2.35-1.35a2.22,2.22,0,0,0-2.18-1.16c-.15.6-.42,1.06-1.17.88-.33-.08-.74.27-1.14.43.28.57.47,1,.67,1.39l-1.61.53c.18.57.31,1,.46,1.48l-1.8.23C105.77,19.85,106.49,21.29,108.21,20.51ZM64.33,44.25a3.29,3.29,0,0,1,2.73,2,1.07,1.07,0,0,0,1.76.12,1.84,1.84,0,0,1,1.39-.67c.82,0,1.24-.45,1.22-1.4a2.44,2.44,0,0,1,.07-.58,28.09,28.09,0,0,1,2.94-2.52A31.87,31.87,0,0,1,78,39.47c-1.24-1.17-2.39-2-4-1.67a1.88,1.88,0,0,1-1.39-.08,5.36,5.36,0,0,0-4.92-.79,6.18,6.18,0,0,1-1.29,0,9.16,9.16,0,0,0-1,.2,4,4,0,0,0,.25.68c1,1.38.94,1.37-.06,2.78a6.15,6.15,0,0,0-.8,1.47,19,19,0,0,0-.49,2.1S64.26,44.24,64.33,44.25Zm320.25,142a11.46,11.46,0,0,1-1.18-.78c-.33-.28-.78-.6-.86-1a1.77,1.77,0,0,0-1.22-1.4c-.11,0-.18-.23-.26-.34.13-.46.26-.9.42-1.43-.47-.24-.87-.4-1.24-.62a7.58,7.58,0,0,1-.9-.71c-.28-.26-.51-.64-.83-.81-1.5-.81-2.56-2.28-4-3.24-.34-.23-.51-.75-.79-1.09s-.69-1-1.13-1.15a17.37,17.37,0,0,0-2.75-.52c0,.14-.11.35-.05.43.56.78,1.13,1.55,1.72,2.3.4.5.87.93,1.27,1.43.18.23.24.71.44.79,1.1.43,1.42,1.48,1.77,2.55a2.57,2.57,0,0,0,.59.88,8,8,0,0,1,1.89,3.34,4,4,0,0,0,.81,1.48c.91,1,2,1.86,2.81,2.94a2.73,2.73,0,0,0,3.23,1.07C384.43,188.93,384.5,187.57,384.58,186.2Zm0,0v0l0,0ZM214.28,66.41a9.77,9.77,0,0,0,4.48-2.35,1.74,1.74,0,0,0,.57-1.86c-.5-.29-1.24-.44-1.35-.82-.37-1.25-1.42-1.24-2.19-2-.26,1-.72,1.36-1.52,1.21a2.43,2.43,0,0,0-.81.16c-.24,0-.57.17-.71.05-.64-.54-1-.22-1.35.47l-1-.73c.08,1.3-.59,1.67-1.6,1.89-.12-1.29.07-2.92-1.78-2.54-.1.26-.2.52-.29.78l-.75-.2c-.38.55-.71,1-1,1.46.49.65,1.05.19,1.59.13s1.23,0,1.52.76c-.6.89-1.78.29-2.44,1.28.95.24,2-.24,2.56,1l-.86.91a3.29,3.29,0,0,0,.77.26,7.15,7.15,0,0,1,3,.73,2,2,0,0,0,2.66-.4A1,1,0,0,1,214.28,66.41Zm40-44.7c.21-.06.47.14.71.22l-.4.74-.25.5c.73.69,1.41,1.72,2.36,1.64.74-.06,1.42-.88,2.21-1.41l1.91,1.08L257.3,26c1.1,1,2.31-.09,3.48.53-.65,1.17-1.92.38-2.67,1.36.53,1.16,1.57,1.43,2.44,1.92s.91.25,1.29-.61c.24-.56.48-1.31.91-1.55a2.78,2.78,0,0,0,1.27-2c.26-1.15.71-2,1.86-2.09.25,0,.47-.29.92-.57l-3.4-2.2-.74.22c-.16-1.46-.16-1.48-1.41-1.78-.32-.08-.83-.09-1,.12s-.13.77-.08,1.16.51.8,0,1.4c-.49-.61-.94-1.21-1.43-1.76s-.75-.46-1.06.23a5.61,5.61,0,0,0-.21.6c-1.12.44-1-.79-1.5-1.2a16.68,16.68,0,0,0-2.14.27c-.62.15-.73.58-.45,1.21A.67.67,0,0,0,254.26,21.71ZM366,20.43c.36-.09.72-.23,1.06-.34a3.13,3.13,0,0,0,2.84,2.14c1.08.06,2.19,0,3.13.83.21.2.75.1,1.09,0a20.07,20.07,0,0,0,1.82-.85c0-1.4.47-2.8-.8-3.83l-2,.91c-.32-1-1.2-1.58-.74-2.73.07-.16-.12-.5-.26-.7-.36-.49-.76-1-1.15-1.43a.89.89,0,0,0-1.28-.21c-1.32.72-2.71,1.29-4,2.06A7.54,7.54,0,0,0,364,17.92a1.45,1.45,0,0,0-.18,1A1.77,1.77,0,0,0,366,20.43ZM115.26,35.58c.08-.09.27-.06.52-.12.29,1.46,1.27,1.28,2.23,1.08.28-.06.54-.22.82-.28a3.16,3.16,0,0,1,.92-.08c.89,0,1.78.14,2.58.2.25-.55.4-.88.65-1.45.9,2.43,2.43,1.6,4,1.4-.59-1.43.73-1.36,1.17-2-1.72-2.37-6.44-2.55-9.43-.36a2.39,2.39,0,0,0-3.48-.15,6.72,6.72,0,0,0-1.25-1.4,5.62,5.62,0,0,0-1.66-.41c0-.1,0-.2,0-.3l1.39-.83a4,4,0,0,0-4.46-.43,12.55,12.55,0,0,0,.77,1.17,2,2,0,0,1,.59,2.12A5.49,5.49,0,0,0,111,35.9c.76,0,1.37-.3,1.62-.07C113.6,36.74,114.42,36.46,115.26,35.58ZM320,40.28a4.57,4.57,0,0,1,1.68.17c1.43.44,2.12-.2,2-2,1.2.31,1.55-.54,1.59-1.61,2,0,2,0,2.44-1.54.17-.07.34-.15.52-.21,2.86-.89,5.72-1.76,8.57-2.69a7.46,7.46,0,0,0,1.93-1c.25-.19.54-.86.44-1a1.34,1.34,0,0,0-1-.61c-1,.13-2.25-.16-3,1.07-.09.14-.34.17-.53.21-.84.2-1.68.37-2.52.58a3.56,3.56,0,0,1-2.51.2c-.25-.11-.78.16-1,.43-.43.58-.95.58-1.53.69a6.32,6.32,0,0,0-2.14.77c-.65.41-1.1,1.13-2,1.21a1.3,1.3,0,0,0-.85,1c0,1-.8,1-1.13,1.53.08.36.15.65.22.94-1.64.39-1.64.39-2.35,1.37C319,40.28,319.44,40.33,320,40.28ZM428.2,121.63l-.38-.94c-.53,1.07-1,2-1.44,2.86-.11.2-.44.45-.57.39-1.2-.57-2.34.43-3.52.16a.68.68,0,0,0-.53.13c-.75.67-1.48,1.37-2.47,2.3,2.22-.09,4-1.27,6-1-.2.92-.19,1.69,1,1.77l1.5-2.12c1.54,1.19,2.68-.66,4.09-1,.13.19.25.38.48.74.29-.63.73-1.13.66-1.53a3,3,0,0,1,.36-2,1.55,1.55,0,0,0,.08-.78,2.48,2.48,0,0,1,.57-1.87c.77-1,1.27-2.26.36-3.63a5.1,5.1,0,0,1-.32-1.37c0-.11-.21-.17-.4-.3-.07.36-.12.63-.16.91-1.34.16-1.51.42-1.51,1.86a5.84,5.84,0,0,1-.28,2A5.5,5.5,0,0,1,428.2,121.63ZM77.46,32.32a5.64,5.64,0,0,0,.6.61c-.89.35-1.93-.2-2.44,1.11.3.17.58.48.86.47,1.69,0,3.4.41,5.07-.35a2.63,2.63,0,0,1,2.46.33c-1.11,1-2.64.54-3.89,1.53a3.35,3.35,0,0,0,3.33.59c1-.43,2-.93,3-1.43A2,2,0,0,1,88.3,35a4,4,0,0,0,2.82-.1c.71-.17.89-.73.91-1.94,0-.77-.43-1-.93-1.21-.74-.36-.72.72-1.19.76-1.43-.43-1.43-.43-1.82-1.88s-1.06-1.65-2-.54a3.55,3.55,0,0,0-.36.64c.56.68,1.59.93,1.24,2.22A3.12,3.12,0,0,1,84,33c-1.2-.64-2.36-1.32-3.61-1.89a3,3,0,0,0-2.72.06C77.22,31.36,77.13,31.83,77.46,32.32ZM477.89,249.49l-1-1.16a19,19,0,0,1-1.9,3.44,14.2,14.2,0,0,1-3.31,2.7,8.54,8.54,0,0,0-3.05,4c1,.34,1.86.65,2.7.91a2.06,2.06,0,0,0,2.13-.53c.91-.8,1.08-2,1.51-3,.15-.36.27-.89.54-1,1.11-.57,1.66-1.82,2.58-2.63a2.24,2.24,0,0,0,.75-2.91ZM429.72,36.06a54.91,54.91,0,0,0,6-.3,3.18,3.18,0,0,0,3-2.3A8.74,8.74,0,0,0,434,32.08a8.47,8.47,0,0,0-2.14.53c-.18-.12-.45-.33-.75-.5-1.84-1.11-2.58-.88-3.51,1.19a1.73,1.73,0,0,0,0,1.32A2.4,2.4,0,0,0,429.72,36.06ZM161.22,93.84a6.22,6.22,0,0,0-3.11,3.86,12.81,12.81,0,0,1-1.24,2.83,7.83,7.83,0,0,0-.55,1h7.54c-.2,1.19.3,1.59,1.08,1.74.71-1.29.71-1.29-.72-2.4,0-.33.15-.9.05-1-.89-.45,0-1.11-.16-1.78-.37,0-.78-.21-1.08-.08-.49.22-1,.37-1.35,0a5.32,5.32,0,0,1-.66-1.23l-.8.1C160.45,95.79,161.59,95.14,161.22,93.84Zm-59.07-53c.5-.77,1.5-.9,1.7-1.94a1.76,1.76,0,0,0-2.07-.12c-.26.16-.74.31-.91.16-.78-.71-1.48,0-2.42-.11l1.34,1.67c-1.12,1.68-1.12,1.68-2.48.72-.08-.06-.16-.18-.23-.17s-.51,0-.62.15a.79.79,0,0,0-.07.69,5.91,5.91,0,0,0,1.67,1.44,6.53,6.53,0,0,1,2.39,1.69c1,1,1,1,2.22.33a.53.53,0,0,1,.27-.1c1,.15,1.29-.63,1.47-1.53a15.16,15.16,0,0,1,.5-1.48ZM224.87,94c1.46-.59,2.87-1.07,4.19-1.75.36-.18.56-.93.69-1.46.07-.32-.18-.73-.16-1.09a1.79,1.79,0,0,1,.3-1.08c.61-.63.32-1.3.13-1.91s-.78-.68-1.33-.57c-.23,0-.52.2-.69.1-1.15-.62-1.53.24-1.9,1.17-.08.19-.18.36-.26.53l-1.72.19c.42.85.07,1.88,1.13,2.28-.42.92-.79,1.72-1.19,2.57Zm43.29-73.78c-.43.53-.77.95-1.21,1.51a9.44,9.44,0,0,0,8.61-2.48,1.57,1.57,0,0,0-1.81-.91c-.53.07-1,.18-1.43-.42s-.83-.38-1.24,0-.6.55-1,.94c-.15-.64-.24-1-.36-1.51l-1,1c-1-.78-2.42.11-3.1-1.26l-2.17,2.2C264.92,20.45,266.63,19.28,268.16,20.18Zm48,26c1.09-.25,1.78.38,2.58.9l-.55,1.12,2.12.6a4.73,4.73,0,0,1,1-.42,10.11,10.11,0,0,1,1.71,0,10.59,10.59,0,0,0-.86-.88,4,4,0,0,1-1.45-2.67c-.16-1-.28-1.91.73-2.49.22-.13.29-.6.43-.91a4,4,0,0,0-5,1.12c.41,1.34.08,1.79-1.65,2.23C315.07,46.08,315.22,46.4,316.17,46.19ZM117.94,66.62l.86-.09,1-.11c.16.44.29.82.48,1.36a6.06,6.06,0,0,0,2.88-2.56c1.2.55,2.16,2.36,3.85,1.29-.39-1.05-1.31-.54-2-1,.3-1.57-1-1.54-1.74-2.08s-1.36-1.58-2.42-.88c-.29-.52-.51-.93-.83-1.49a6.34,6.34,0,0,0-1,4.16C118.67,65.79,117.91,65.72,117.94,66.62ZM481.45,241.86l-1.46-.18c-.05,1.57.42,3.3-1.31,4.22l2.08,1.61-.6,1.7c.24.55.63.79,1,.47a6.42,6.42,0,0,0,2.17-3.94c1.79-1,2-1.21,1.68-2.74C483.49,243.75,482.11,243.94,481.45,241.86ZM111.22,41.34c.63-.82,1.19-1.72,1.82-2.63-.33-.22-.51-.45-.64-.42-1.62.33-3.17-.42-4.77-.38a2.53,2.53,0,0,0-.57.12c-.13.34-.17.82-.39,1a1.91,1.91,0,0,0-.71,2.09,10.89,10.89,0,0,0,.89,2.32.73.73,0,0,0,.62.27c.32,0,.8-.15.88-.36a5.17,5.17,0,0,0,0-1.49C109.34,41.7,110.43,42.36,111.22,41.34Zm324.84,49c0-.12-.21-.2-.34-.32l-1.05.54c-.1.64-.21,1.16-.26,1.68s-.14,1,0,1.22c.66,1,.43,2,.51,3.08.11,1.49-.68,2.92-.14,4.42.05.15-.12.39-.15.6-.11,1-.21,2-.31,2.93l.5.29c.24-.38.41-.92.74-1.09s.71.14,1.33.3c-.47-.78-.84-1.33-1.12-1.92a3.39,3.39,0,0,1,.24-3.07c.43-.81,1.1-.26,1.66,0,.06,0,.16-.09.32-.2l-.71-1.89c-.61-1.65-1.56-3.21-.92-5.18C436.51,91.36,436.21,90.81,436.06,90.37Zm-4.25,21.16c.21.68.39,1.25.59,1.91l1.33-.94-1.39-.69a4.11,4.11,0,0,1,4.29.73c.45-1.8,1.73-2,3-2.18-.5-1.38-.5-1.47-1-1.5a4.62,4.62,0,0,1-3.17-2c-.26-.31-.47-.85-1.16-.56.07.39.14.78.2,1.17.18,1.09-.57,1.8-.9,2.68C432.67,110.08,432.41,111.09,431.81,111.53ZM95,23.27c-.65.54-1.43-.48-2,.28a2.54,2.54,0,0,0,2.44,1.15c.67,0,1.34,0,2,0a1.67,1.67,0,0,1,1.6.85c.52.86,1.22.91,2.09.34-.38-2.14-1.32-3.22-3.07-3.52a4.41,4.41,0,0,1-2.72-1.19,2.31,2.31,0,0,0-3.05,0C93,22.07,94.67,21.61,95,23.27ZM69.48,31.49a1.17,1.17,0,0,1,1.53.4,2.55,2.55,0,0,0,.81.4L74,29l1.18,1.78,1.6-1.32c.27-.77.5-1.4.79-2.22a4.23,4.23,0,0,0-1-.14c-.32,0-.63.36-.94.34a7.66,7.66,0,0,0-5.78,2.26,6.91,6.91,0,0,1-1.64.87C68.48,31.41,68.9,31.76,69.48,31.49ZM402.26,186a1.21,1.21,0,0,0,.34,1,1,1,0,0,1,.64,1.09c0,.73,0,1.46,0,2.2.82-.14,1.08-.46,1.08-1.38,0-.75-.05-1.49-.06-2.23s.38-.75.66-.68l1.27,3.12,1.3-.86-1.33-3.49,1.58-1.53c-1.19-.42-1.94.13-2.79.78-.4-.59-.78-1.13-1.27-1.84-.37.61-.66.89-.71,1.22A7.08,7.08,0,0,1,402.26,186ZM396,193.74a4,4,0,0,1-1.56,0c-.48-.24-.81-.82-1.25-1.2a1.84,1.84,0,0,0-.67-.23l-1.61-.5a2.31,2.31,0,0,1-2.76.27,4.84,4.84,0,0,0-3.19-1c-.62,0-.84.33-1,1a6.34,6.34,0,0,0,1.56,1.16,24.19,24.19,0,0,0,2.92.54c.61.1,1.21.22,1.81.35,1.08.22,2.14.47,3.22.66.55.09,1.11,0,1.66.12S396,194.6,396,193.74ZM99,30.29c.23.41.44.8.66,1.18l-.16.18-1.87-1.26-1.19,2.55c1,.67,2.3-.74,3.33.32-.21.47-.4.87-.6,1.31,1.13.82,2.18.2,3,.18.31-.79.52-1.39.77-2a2.88,2.88,0,0,0-.27-2.42.85.85,0,0,0-1.49.27C100.44,30.31,99.86,29.61,99,30.29Zm278.58-4.85a13.85,13.85,0,0,1,2.7-.29A2.84,2.84,0,0,0,383,23.71c-.54-1.85-2.33-1.6-3.2-2.81-2.2,0-2.27,2.64-3.59,3.74-.18.16-.18.59-.33,1.14C376.6,25.63,377.1,25.51,377.61,25.44ZM135.16,149.88c-.21-.82-1-.51-1.27-.85-1-1.17-2.52-1.08-3.61-2.08a8,8,0,0,0-2.45-1.22,6.35,6.35,0,0,0-5.59.05c-.37.19-.82.39-.59,1.16a6.69,6.69,0,0,0,1.44-.54c.81-.53,1.52-.93,2.23.16.13.19.54.14.82.22,1,.3,2.2.34,3,1a6.27,6.27,0,0,0,2.29,1.4c0,.41,0,.75-.1,1.32C132.63,149.8,134,150.85,135.16,149.88ZM440.61,249.2a11.6,11.6,0,0,1-2.62-.8c.34.85.53,1.31.7,1.78a6.63,6.63,0,0,1,.52,1.45,2.29,2.29,0,0,0,1.85,2.12,11.45,11.45,0,0,0,1.69-2.13,3.08,3.08,0,0,0,.24-2.9A10.06,10.06,0,0,1,440.61,249.2Zm-293.4,26.68c-2-.1-2.63-2.12-3.88-3.26.09-1.28-.79-1.21-1.42-1.05-.48.12-.86.71-1.48,1.27l1.44.33-.87,1.05,1.06.89c-.59.39-1.51-.41-1.69.92a47.39,47.39,0,0,1,4.79.39,3.78,3.78,0,0,0,2.3-.24C147.32,276,147.27,275.88,147.21,275.88ZM404,156.37c.11.91.58,1.41,1.41,1.32.14.51-.65.9,0,1.3s.84-.13,1.16-.54a6.05,6.05,0,0,0-.22-.8,1.86,1.86,0,0,1,.57-2.48,1.42,1.42,0,0,0,.4-1.83,6.4,6.4,0,0,1-.24-1.31l-.74-.18c-1.36-.33-1.54-.16-1.62,1.44-.05.83.16,1.72-.63,2.32C403.94,155.7,404,156.11,404,156.37Zm3.29,12.2c.8.35,1.7-.61,2.53.16-.23,2-.12,2.08,2,2.54v-1.91l1.05.23c.56-1.54-.19-2.68-.54-3.93l-2.61,2C408.62,167,407.82,167.36,407.27,168.57Zm-271.6-15.76c1.22.53,2.7-.28,3.82.8,1.28-1.2,2.68-.94,4.31-.81a5.23,5.23,0,0,0-.75-1c-1.84-1.47-4-1.23-6.14-1.34a2.65,2.65,0,0,1,1,2.14l-2.22-.14C135.68,152.58,135.68,152.69,135.67,152.81ZM432.85,38.09c-.84-.05-1.27.45-1.59,1.69a4.69,4.69,0,0,0,5,.9C436,38.68,434.5,38.17,432.85,38.09ZM102.34,50.83c-.19.9-.86,1.19-1.74,2,1.49.45,2.66.85,3.84,1.15a1.15,1.15,0,0,0,1.37-.77,8.15,8.15,0,0,0-2.38-2.54C103,50.39,102.47,50.28,102.34,50.83ZM348.75,165.47a5.19,5.19,0,0,0-.63,1.73,28.69,28.69,0,0,0,.57,3.44c0,.14.29.27.46.31a1.65,1.65,0,0,0,1.72-2.08A8.5,8.5,0,0,0,348.75,165.47ZM66,98.17a1.92,1.92,0,0,1-.93-.69c-1-1.86-2.75-1.83-4.32-2.28,0,0-.12.14-.29.34.42.4.82.82,1.26,1.18.26.2.64.23.89.44.89.76,1.7,1.62,2.62,2.32A6.08,6.08,0,0,0,67,100C66.87,98.93,66.6,98.44,66,98.17ZM490.76,46.26a10.63,10.63,0,0,0-1.4-.45c-.71-.14-1.42-.22-2.13-.31-1.31-.17-1.66.13-2,1.7C487.15,48.34,489,48.07,490.76,46.26ZM106,25.2a1,1,0,0,0,.54-.62c0-.22-.25-.55-.47-.68-.54-.33-1.14-.55-1.7-.85a2.24,2.24,0,0,0-2.3.05C103.1,25.51,104.09,26,106,25.2ZM420.41,184.36c.59,1.18,1.54.85,2.39.72.26,0,.59-.53.64-.87a1.43,1.43,0,0,0-.33-1.08c-1.21-1-2.27-.9-3.67.43C419.84,183.88,420.24,184,420.41,184.36ZM441.58,35.7c.93.23,1.88.41,2.82.57s1,.15,1.31-1.37c-1.56-.2-3.11-.44-4.67-.58-.29,0-.61.29-.92.45l0,.35A11,11,0,0,0,441.58,35.7ZM418.7,127.14c-.41.23-.8.51-1.34.85.31.2.53.48.73.46.75,0,.85.28.57,1-.09.23-.29.56-.22.7a2.32,2.32,0,0,0,.8,1c.14.07.61-.37.77-.67s.17-1,.4-1.36a1.14,1.14,0,0,0-.16-1.44C419.85,127.23,419.33,126.78,418.7,127.14ZM134.38,55.92a1.21,1.21,0,0,0-1.21-1.39,1.85,1.85,0,0,0-1.64,1.84.9.9,0,0,0,1,1A1.63,1.63,0,0,0,134.38,55.92Zm272.16,85.35c-1.42.06-1.76,1.33-2.22,2.27s.12,1.7.76,2.61A12.3,12.3,0,0,0,406.54,141.27ZM405,180.93a17.14,17.14,0,0,1,3.28.16c1.47.22,1.79.07,2.57-2-1.14,1.19-1.15,1.24-2.5,1.17a8.18,8.18,0,0,1-2.51-.45c-.78-.3-1.12.45-1.68.63-.28.09-.44.67-.82,1.3C404.11,181.36,404.54,181,405,180.93ZM81.91,26.88a11.09,11.09,0,0,0,2.81.16c.46-.06.87-.67,1.3-1l-.2-.37c-1.22,0-2.44,0-3.65,0-.2,0-.47.35-.55.59S81.78,26.87,81.91,26.88ZM250,117.77l1.58-.61c-.22-1.15.62-2.37-.61-3.14l-1.27.61C249.78,115.7,249.87,116.67,250,117.77Zm9.21,3.27c0-.47.1-.94.16-1.49-1.06,0-2-.13-3-.13-.35,0-.8,0-.78.77.9.49,1.81,1,2.75,1.48C258.84,121.93,259.13,121.67,259.19,121ZM108.25,30.83c.24-.83.15-1.36-.48-1.57a12.32,12.32,0,0,0-2-.52c-.42-.06-1-.21-1.27.36C105.32,30.78,106.79,30.63,108.25,30.83Zm283,118.66a2.56,2.56,0,0,0-2.06.34,2.11,2.11,0,0,0-.84,1.14c-.12.67.37,1,.94,1.17C390.69,151.35,390.69,151.35,391.27,149.49ZM169.55,183.92c1-.24,1.26-.76,1.22-2.2l-1.23-.08c-1.36,0-1.48.06-1.48,1.53a3.69,3.69,0,0,0,.12.74A4.84,4.84,0,0,0,169.55,183.92Zm276.86,7.23c1-.46,2.14-.86,2.26-2.38-.4-.47-.61-.26-.9.16a2.46,2.46,0,0,1-2.5,1.34,8.45,8.45,0,0,0-1.86.13C444.49,191.38,445.47,191.6,446.41,191.15ZM269.94,119.77a7.68,7.68,0,0,0-1.26-.6.81.81,0,0,0-1,.77,1.8,1.8,0,0,0,2.12,1.86Zm153.91,7.78c.16,0,.48-.51.75-.82-1.05-.74-2.19-.4-3.29.89L422,129C422.5,128,422.87,127.24,423.85,127.55Zm-14.79,70,4.35-2.34s0-.09,0-.14a.43.43,0,0,0-.05-.13A4.12,4.12,0,0,0,409.06,197.5ZM155.5,104.41l-1.38.29c.5-.6.87-1.07.6-1.8a2.55,2.55,0,0,0-1.3,2.31C154.77,105.77,155,105.68,155.5,104.41Zm-2.08.8,0,0h0s0,0,0,0h0ZM477.5,238.07a10.87,10.87,0,0,0,2.29,3.12C479.88,239.11,479.35,238.35,477.5,238.07ZM24.26,81c-.05,0-.24.37-.44.69.4.17.78.49,1,.39a18.57,18.57,0,0,0,2-1.43C25.73,79.82,25.13,81.39,24.26,81ZM.06,66.77c.73.32,1.47.64,2.22.94.43.17.7,0,.87-.49-1-.93-2.07-.72-3.15-.81C0,66.58,0,66.75.06,66.77Zm255,19.46c.09-.55.19-1.1.32-1.81l-1.75.67C254,86.08,254,86.08,255.09,86.23Zm-4,24.87c-1.35.45-1.4.9-.29,2.15A2.14,2.14,0,0,0,251.09,111.1ZM415.2,186.53l3.65.66C418.09,186.06,417.05,185.85,415.2,186.53Zm-8.59,8.5c-.9.45-1.82-1.19-2.77.05A2.35,2.35,0,0,0,406.61,195Zm1.55-29s.16-.06.2-.08a12.57,12.57,0,0,0,.31-1.87c0-.25-.27-.52-.43-.78-.2.71-.39,1.43-.62,2.28C407.73,165.65,407.94,165.85,408.16,166ZM12.94,85.82l.12.37,2.2-1.14C14.19,84.34,14.19,84.34,12.94,85.82ZM136,250.49c-1,.7-.57,1.69-.66,2.61C136.11,252.79,136.11,252.79,136,250.49ZM9.42,87.74a6.24,6.24,0,0,0,2.43-.87C10.75,86.4,10.39,86.52,9.42,87.74Zm12.44,64.33,1.6-1L22,149.75C22,150.68,21.92,151.19,21.86,152.07Zm29-72.16c-.41-.17-.82-.36-1.25-.49a.37.37,0,0,0-.35.18.72.72,0,0,0,0,.56c.46.69,1,.56,1.53.2C50.8,80.21,50.83,80.06,50.85,79.91Zm257.29,61.72a2,2,0,0,0,0-2.33C307.42,140.79,307.42,140.79,308.14,141.63ZM54,88.5c-.15.86.13,1.3.7,1.46.14,0,.45-.19.52-.38a3.17,3.17,0,0,0,0-.94Zm360.77,93.16c.37-.69,1-1.17,1-2.26l-.91.71,0,0,0,0a.43.43,0,0,1,0,0C414.16,180.56,414.34,181.08,414.72,181.66ZM54.88,86.27c-.45-.65-.12-1.94-1.33-2.1A1.83,1.83,0,0,0,54.88,86.27ZM271,124c1.56,1,1.59,1,2.55.44Zm132,72.5c.49.41.85,1.14,1.73.86C404.3,196.51,403.79,196.16,403,196.53Zm25.88-1.92c1.06-.17,1.11-.21,1.16-1.31C428.94,193.48,428.93,193.5,428.87,194.61ZM407,162.29V164l1.19-.81C408.22,162.35,407.55,162.63,407,162.29Zm1.19.94v0h0l0,0,0-.07Zm-277.85-10.4c.55,1.36,1.31.67,2.17.5A2.25,2.25,0,0,0,130.37,152.83Zm275.17,8.59c.64-.72.66-1.22.29-1.66-.13-.15-.46-.09-.92-.15C405.15,160.28,405.3,160.73,405.54,161.42Zm4.85-.2c.36.57.68,1.1,1,1.63C411.57,161.05,411.57,161.05,410.39,161.22Zm-25.81,25,0,0,0,0Zm-.58-1.52c.2.49.4,1,.6,1.52l.79-.09C384.64,184.51,384.64,184.51,384,184.66ZM145.31,153.31c.83.1,1.38.27,1.85-.44C146.61,152.68,146,152.33,145.31,153.31ZM51.2,82.82l.32-.16c-.2-.49-.4-1-.59-1.46A1.11,1.11,0,0,0,51.2,82.82Zm351.23,112-1.47-.47C401.3,195.32,401.68,195.32,402.43,194.8Zm-2.95.27a.5.5,0,0,0,0,.43c.41.43.76.2,1.19-.19C400.23,194.69,399.85,194.7,399.48,195.07Zm14.25-8c-.39-.62-.76-.68-1.24-.16C412.88,187.45,413.23,187.72,413.73,187.09Zm-4.79-26.91s.18,0,.35,0c-.08-.39-.16-.78-.28-1.34C408.2,159.42,408.63,159.81,408.94,160.18ZM149.39,251.8c.08.1.32,0,.48.06,0-.34,0-.68,0-1.26C149.28,251.08,149.07,251.38,149.39,251.8ZM136.27,271l.81,1C137.14,270.72,137.14,270.72,136.27,271Zm278.41-92.15c-.37.53-.53.94.12,1.2C414.81,179.67,415.17,179.23,414.68,178.85Zm-7.48-20.16.23.44c.21-.17.42-.34.62-.52a.89.89,0,0,0-.13-.23C407.68,158.47,407.44,158.58,407.2,158.69Zm-253.95,6.88v-.91h-.31v.91ZM7,88.7s-.25.17-.25.27a2.45,2.45,0,0,0,.2.67c.22-.3.41-.45.41-.59S7.1,88.77,7,88.7Zm396.17,74.71a4.11,4.11,0,0,0-.13.68s.19.16.2.15a1.4,1.4,0,0,0,.26-.46C403.47,163.72,403.29,163.6,403.12,163.41Zm-6.44,31.23c.12.12.23.29.37.35s.21-.12.43-.26a2.18,2.18,0,0,0-.5-.32C396.89,194.39,396.78,194.56,396.68,194.64Zm4.45-28.48-.49.36.22.31.42-.45Z" transform="translate(0 -4.83)" style="mix-blend-mode:screen;fill:url(#Degradado_sin_nombre_19)"/><path d="M93.56,85.69a27.64,27.64,0,0,1-4,.69,27.65,27.65,0,0,1-4-.73c0-.2,1.78-.35,4-.34S93.56,85.49,93.56,85.69Z" transform="translate(0 -4.83)" style="mix-blend-mode:multiply;fill:url(#Degradado_sin_nombre_85)"/><path d="M95.86,74.3c0,3.43-6.28,12.08-6.28,12.08s-6.17-8.71-6.15-12.14a6.22,6.22,0,1,1,12.43.06Z" transform="translate(0 -4.83)" style="fill:url(#Degradado_sin_nombre_62)"/><path d="M92.86,74.45a3.22,3.22,0,1,0-3.23,3.2A3.21,3.21,0,0,0,92.86,74.45Z" transform="translate(0 -4.83)" style="fill:url(#Degradado_sin_nombre_64)"/><path d="M163.44,205.76a27.64,27.64,0,0,1-4,.69,27.4,27.4,0,0,1-4-.73c0-.2,1.78-.35,4-.34S163.44,205.56,163.44,205.76Z" transform="translate(0 -4.83)" style="mix-blend-mode:multiply;fill:url(#Degradado_sin_nombre_85-2)"/><path d="M165.73,194.37c0,3.44-6.27,12.08-6.27,12.08s-6.18-8.71-6.16-12.14a6.22,6.22,0,1,1,12.43.06Z" transform="translate(0 -4.83)" style="fill:url(#Degradado_sin_nombre_62-2)"/><path d="M162.73,194.52a3.22,3.22,0,1,0-3.23,3.2A3.21,3.21,0,0,0,162.73,194.52Z" transform="translate(0 -4.83)" style="fill:url(#Degradado_sin_nombre_64-2)"/><path d="M256.08,102.83a27.6,27.6,0,0,1-4,.68,27.61,27.61,0,0,1-4-.72c0-.2,1.78-.36,4-.34S256.08,102.63,256.08,102.83Z" transform="translate(0 -4.83)" style="mix-blend-mode:multiply;fill:url(#Degradado_sin_nombre_85-3)"/><path d="M258.38,91.44c0,3.43-6.28,12.07-6.28,12.07s-6.17-8.7-6.16-12.13a6.22,6.22,0,1,1,12.44.06Z" transform="translate(0 -4.83)" style="fill:url(#Degradado_sin_nombre_62-3)"/><path d="M255.38,91.59a3.22,3.22,0,1,0-3.24,3.2A3.23,3.23,0,0,0,255.38,91.59Z" transform="translate(0 -4.83)" style="fill:url(#Degradado_sin_nombre_64-3)"/><path d="M278.31,194.34a27.6,27.6,0,0,1-4,.68,27.61,27.61,0,0,1-4-.72c0-.2,1.78-.36,4-.34S278.31,194.14,278.31,194.34Z" transform="translate(0 -4.83)" style="mix-blend-mode:multiply;fill:url(#Degradado_sin_nombre_85-4)"/><path d="M280.61,183c0,3.43-6.28,12.07-6.28,12.07s-6.18-8.7-6.16-12.13a6.22,6.22,0,1,1,12.44.06Z" transform="translate(0 -4.83)" style="fill:url(#Degradado_sin_nombre_62-4)"/><path d="M277.61,183.09a3.22,3.22,0,1,0-3.24,3.21A3.23,3.23,0,0,0,277.61,183.09Z" transform="translate(0 -4.83)" style="fill:url(#Degradado_sin_nombre_64-4)"/><path d="M391.52,114.75a27.6,27.6,0,0,1-4,.68,27.61,27.61,0,0,1-4-.72c0-.2,1.78-.36,4-.35S391.52,114.55,391.52,114.75Z" transform="translate(0 -4.83)" style="mix-blend-mode:multiply;fill:url(#Degradado_sin_nombre_85-5)"/><path d="M393.82,103.35c0,3.44-6.28,12.08-6.28,12.08s-6.17-8.7-6.16-12.14a6.22,6.22,0,0,1,12.44.06Z" transform="translate(0 -4.83)" style="fill:url(#Degradado_sin_nombre_62-5)"/><path d="M390.82,103.5a3.22,3.22,0,1,0-3.24,3.21A3.22,3.22,0,0,0,390.82,103.5Z" transform="translate(0 -4.83)" style="fill:url(#Degradado_sin_nombre_64-5)"/></g></g></svg>